<?xml version="1.0" encoding="utf-8"?>
<!-- Generator: Adobe Illustrator 22.1.0, SVG Export Plug-In . SVG Version: 6.00 Build 0)  -->
<svg version="1.1" id="Ebene_1" xmlns="http://www.w3.org/2000/svg" xmlns:xlink="http://www.w3.org/1999/xlink" x="0px" y="0px"
	 viewBox="0 0 1920 1080" style="enable-background:new 0 0 1920 1080;" xml:space="preserve">
<style type="text/css">
	.st0{fill:none;stroke:#1D1D1B;stroke-width:1.5;stroke-miterlimit:10;}
</style>
<polyline class="st0" points="320.3,756 282.8,756 282.8,718.5 282.8,681 282.8,643.5 282.8,606 282.8,568.5 282.8,531 282.8,493.5 
	282.8,456 282.8,418.5 282.8,381 282.8,343.5 282.8,306 320.3,306 "/>
<polyline class="st0" points="228.8,381 191.3,381 191.3,343.5 228.8,343.5 "/>
<polyline class="st0" points="137.3,231 99.8,231 99.8,193.5 99.8,156 99.8,118.5 "/>
<polyline class="st0" points="503.3,943.5 465.8,943.5 465.8,906 465.8,868.5 465.8,831 465.8,793.5 465.8,756 465.8,718.5 
	465.8,681 465.8,643.5 465.8,606 465.8,568.5 465.8,531 465.8,493.5 465.8,456 465.8,418.5 465.8,381 465.8,343.5 465.8,306 
	465.8,268.5 465.8,231 465.8,193.5 465.8,156 465.8,118.5 "/>
<polyline class="st0" points="411.8,831 374.3,831 374.3,793.5 374.3,756 374.3,718.5 374.3,681 374.3,643.5 374.3,606 374.3,568.5 
	374.3,531 374.3,493.5 374.3,456 374.3,418.5 374.3,381 374.3,343.5 374.3,306 374.3,268.5 374.3,231 411.8,231 "/>
<g>
	<path d="M384.7,826.5h-1.9v-12.6l-3.8,1.4v-1.7l5.4-2h0.3V826.5z"/>
	<path d="M397.6,819.9c-0.4,0.5-0.9,0.9-1.4,1.1c-0.6,0.3-1.2,0.4-1.8,0.4c-0.9,0-1.6-0.2-2.3-0.6c-0.6-0.4-1.1-1-1.5-1.8
		c-0.3-0.8-0.5-1.6-0.5-2.5c0-1,0.2-1.9,0.6-2.7c0.4-0.8,0.9-1.4,1.6-1.8s1.5-0.6,2.4-0.6c1.5,0,2.6,0.6,3.5,1.7
		c0.9,1.1,1.3,2.6,1.3,4.5v0.6c0,2.9-0.6,5-1.7,6.4c-1.1,1.3-2.9,2-5.2,2.1h-0.4v-1.6h0.4c1.6,0,2.8-0.4,3.6-1.2
		S397.5,821.6,397.6,819.9z M394.6,819.9c0.6,0,1.2-0.2,1.8-0.6c0.5-0.4,0.9-0.9,1.2-1.4v-0.8c0-1.2-0.3-2.3-0.8-3s-1.2-1.2-2.1-1.2
		c-0.8,0-1.5,0.3-2,1c-0.5,0.6-0.8,1.5-0.8,2.5c0,1,0.2,1.9,0.7,2.5C393.2,819.6,393.8,819.9,394.6,819.9z"/>
	<path d="M409.3,819.9c-0.4,0.5-0.9,0.9-1.4,1.1c-0.6,0.3-1.2,0.4-1.8,0.4c-0.9,0-1.6-0.2-2.3-0.6c-0.6-0.4-1.1-1-1.5-1.8
		c-0.3-0.8-0.5-1.6-0.5-2.5c0-1,0.2-1.9,0.6-2.7c0.4-0.8,0.9-1.4,1.6-1.8s1.5-0.6,2.4-0.6c1.5,0,2.6,0.6,3.5,1.7
		c0.9,1.1,1.3,2.6,1.3,4.5v0.6c0,2.9-0.6,5-1.7,6.4c-1.1,1.3-2.9,2-5.2,2.1H404v-1.6h0.4c1.6,0,2.8-0.4,3.6-1.2
		S409.3,821.6,409.3,819.9z M406.4,819.9c0.6,0,1.2-0.2,1.8-0.6c0.5-0.4,0.9-0.9,1.2-1.4v-0.8c0-1.2-0.3-2.3-0.8-3s-1.2-1.2-2.1-1.2
		c-0.8,0-1.5,0.3-2,1c-0.5,0.6-0.8,1.5-0.8,2.5c0,1,0.2,1.9,0.7,2.5C404.9,819.6,405.6,819.9,406.4,819.9z"/>
	<path d="M421.1,819.9c-0.4,0.5-0.9,0.9-1.4,1.1c-0.6,0.3-1.2,0.4-1.8,0.4c-0.9,0-1.6-0.2-2.3-0.6c-0.6-0.4-1.1-1-1.5-1.8
		c-0.3-0.8-0.5-1.6-0.5-2.5c0-1,0.2-1.9,0.6-2.7c0.4-0.8,0.9-1.4,1.6-1.8s1.5-0.6,2.4-0.6c1.5,0,2.6,0.6,3.5,1.7
		c0.9,1.1,1.3,2.6,1.3,4.5v0.6c0,2.9-0.6,5-1.7,6.4c-1.1,1.3-2.9,2-5.2,2.1h-0.4v-1.6h0.4c1.6,0,2.8-0.4,3.6-1.2
		S421.1,821.6,421.1,819.9z M418.2,819.9c0.6,0,1.2-0.2,1.8-0.6c0.5-0.4,0.9-0.9,1.2-1.4v-0.8c0-1.2-0.3-2.3-0.8-3s-1.2-1.2-2.1-1.2
		c-0.8,0-1.5,0.3-2,1c-0.5,0.6-0.8,1.5-0.8,2.5c0,1,0.2,1.9,0.7,2.5C416.7,819.6,417.4,819.9,418.2,819.9z"/>
</g>
<g>
	<path d="M296.8,751.5H287v-1.4l5.2-5.7c0.8-0.9,1.3-1.6,1.6-2.1c0.3-0.5,0.4-1.1,0.4-1.7c0-0.8-0.2-1.4-0.7-1.9
		c-0.5-0.5-1.1-0.7-1.9-0.7c-0.9,0-1.7,0.3-2.2,0.8c-0.5,0.5-0.8,1.3-0.8,2.2h-1.9c0-1.4,0.4-2.5,1.3-3.3s2.1-1.3,3.6-1.3
		c1.4,0,2.5,0.4,3.3,1.1c0.8,0.7,1.2,1.7,1.2,2.9c0,1.5-0.9,3.2-2.8,5.3l-4,4.3h7.5V751.5z"/>
	<path d="M308.1,745.1c0,2.2-0.4,3.9-1.1,5s-1.9,1.6-3.6,1.6c-1.6,0-2.8-0.5-3.5-1.6c-0.8-1.1-1.2-2.6-1.2-4.7v-2.5
		c0-2.2,0.4-3.8,1.1-4.9s1.9-1.6,3.6-1.6c1.6,0,2.8,0.5,3.5,1.5c0.8,1,1.1,2.6,1.2,4.8V745.1z M306.2,742.5c0-1.6-0.2-2.8-0.7-3.5
		c-0.5-0.7-1.2-1.1-2.1-1.1c-1,0-1.7,0.4-2.1,1.1s-0.7,1.9-0.7,3.4v3c0,1.6,0.2,2.8,0.7,3.6c0.5,0.8,1.2,1.2,2.1,1.2
		c0.9,0,1.6-0.4,2.1-1.1c0.5-0.7,0.7-1.9,0.7-3.4V742.5z"/>
	<path d="M319.9,745.1c0,2.2-0.4,3.9-1.1,5s-1.9,1.6-3.6,1.6c-1.6,0-2.8-0.5-3.5-1.6c-0.8-1.1-1.2-2.6-1.2-4.7v-2.5
		c0-2.2,0.4-3.8,1.1-4.9s1.9-1.6,3.6-1.6c1.6,0,2.8,0.5,3.5,1.5c0.8,1,1.1,2.6,1.2,4.8V745.1z M318,742.5c0-1.6-0.2-2.8-0.7-3.5
		c-0.5-0.7-1.2-1.1-2.1-1.1c-1,0-1.7,0.4-2.1,1.1s-0.7,1.9-0.7,3.4v3c0,1.6,0.2,2.8,0.7,3.6c0.5,0.8,1.2,1.2,2.1,1.2
		c0.9,0,1.6-0.4,2.1-1.1c0.5-0.7,0.7-1.9,0.7-3.4V742.5z"/>
	<path d="M328.6,751.5h-1.9v-12.6l-3.8,1.4v-1.7l5.4-2h0.3V751.5z"/>
</g>
<g>
	<path d="M205.3,376.5h-9.8v-1.4l5.2-5.7c0.8-0.9,1.3-1.6,1.6-2.1c0.3-0.5,0.4-1.1,0.4-1.7c0-0.8-0.2-1.4-0.7-1.9s-1.1-0.7-1.9-0.7
		c-0.9,0-1.7,0.3-2.2,0.8c-0.5,0.5-0.8,1.3-0.8,2.2h-1.9c0-1.4,0.4-2.5,1.3-3.3s2.1-1.3,3.6-1.3c1.4,0,2.5,0.4,3.3,1.1
		c0.8,0.7,1.2,1.7,1.2,2.9c0,1.5-0.9,3.2-2.8,5.3l-4,4.3h7.5V376.5z"/>
	<path d="M216.6,370.1c0,2.2-0.4,3.9-1.1,5s-1.9,1.6-3.6,1.6c-1.6,0-2.8-0.5-3.5-1.6c-0.8-1.1-1.2-2.6-1.2-4.7v-2.5
		c0-2.2,0.4-3.8,1.1-4.9s1.9-1.6,3.6-1.6c1.6,0,2.8,0.5,3.5,1.5c0.8,1,1.1,2.6,1.2,4.8V370.1z M214.7,367.5c0-1.6-0.2-2.8-0.7-3.5
		s-1.2-1.1-2.1-1.1c-1,0-1.7,0.4-2.1,1.1s-0.7,1.9-0.7,3.4v3c0,1.6,0.2,2.8,0.7,3.6c0.5,0.8,1.2,1.2,2.1,1.2c0.9,0,1.6-0.4,2.1-1.1
		c0.5-0.7,0.7-1.9,0.7-3.4V367.5z"/>
	<path d="M225.3,376.5h-1.9v-12.6l-3.8,1.4v-1.7l5.4-2h0.3V376.5z"/>
	<path d="M240.6,376.5h-9.8v-1.4l5.2-5.7c0.8-0.9,1.3-1.6,1.6-2.1c0.3-0.5,0.4-1.1,0.4-1.7c0-0.8-0.2-1.4-0.7-1.9s-1.1-0.7-1.9-0.7
		c-0.9,0-1.7,0.3-2.2,0.8c-0.5,0.5-0.8,1.3-0.8,2.2h-1.9c0-1.4,0.4-2.5,1.3-3.3s2.1-1.3,3.6-1.3c1.4,0,2.5,0.4,3.3,1.1
		c0.8,0.7,1.2,1.7,1.2,2.9c0,1.5-0.9,3.2-2.8,5.3l-4,4.3h7.5V376.5z"/>
</g>
<g>
	<path d="M197.8,399c-0.1-0.2-0.2-0.5-0.2-0.9c-0.7,0.7-1.5,1.1-2.5,1.1c-0.9,0-1.6-0.2-2.1-0.7c-0.6-0.5-0.8-1.1-0.8-1.8
		c0-0.9,0.3-1.6,1-2.1c0.7-0.5,1.7-0.8,2.9-0.8h1.5V393c0-0.5-0.2-0.9-0.5-1.2c-0.3-0.3-0.8-0.5-1.4-0.5c-0.5,0-1,0.1-1.3,0.4
		c-0.4,0.3-0.5,0.6-0.5,1h-1.5c0-0.4,0.2-0.9,0.5-1.3c0.3-0.4,0.7-0.7,1.3-1c0.5-0.2,1.1-0.4,1.7-0.4c1,0,1.8,0.3,2.4,0.8
		c0.6,0.5,0.9,1.2,0.9,2.1v4c0,0.8,0.1,1.4,0.3,1.9v0.1H197.8z M195.3,397.9c0.5,0,0.9-0.1,1.3-0.4s0.7-0.6,0.9-0.9v-1.8h-1.2
		c-1.8,0-2.7,0.5-2.7,1.6c0,0.5,0.2,0.8,0.5,1.1S194.8,397.9,195.3,397.9z"/>
	<path d="M210.5,396.7c0-0.4-0.2-0.7-0.5-0.9c-0.3-0.2-0.8-0.4-1.6-0.6c-0.8-0.2-1.4-0.4-1.8-0.6c-0.4-0.2-0.8-0.5-1-0.8
		c-0.2-0.3-0.3-0.7-0.3-1.1c0-0.7,0.3-1.3,0.9-1.8c0.6-0.5,1.4-0.7,2.3-0.7c1,0,1.8,0.3,2.4,0.8c0.6,0.5,0.9,1.2,0.9,2h-1.5
		c0-0.4-0.2-0.8-0.5-1.1c-0.3-0.3-0.8-0.4-1.3-0.4c-0.5,0-1,0.1-1.3,0.4s-0.5,0.5-0.5,0.9c0,0.4,0.1,0.6,0.4,0.8s0.8,0.4,1.5,0.5
		c0.7,0.2,1.3,0.4,1.8,0.6c0.5,0.2,0.8,0.5,1,0.8c0.2,0.3,0.3,0.7,0.3,1.2c0,0.8-0.3,1.4-0.9,1.9c-0.6,0.5-1.4,0.7-2.4,0.7
		c-0.7,0-1.3-0.1-1.9-0.4s-1-0.6-1.3-1c-0.3-0.4-0.5-0.9-0.5-1.4h1.5c0,0.5,0.2,0.9,0.6,1.2c0.4,0.3,0.9,0.4,1.5,0.4
		c0.6,0,1-0.1,1.4-0.3C210.3,397.4,210.5,397.1,210.5,396.7z"/>
	<path d="M217.6,399.2c-1.2,0-2.1-0.4-2.9-1.2c-0.7-0.8-1.1-1.8-1.1-3.1v-0.3c0-0.9,0.2-1.6,0.5-2.3c0.3-0.7,0.8-1.2,1.4-1.6
		c0.6-0.4,1.2-0.6,1.9-0.6c1.1,0,2,0.4,2.6,1.1c0.6,0.7,0.9,1.8,0.9,3.2v0.6h-5.9c0,0.9,0.3,1.6,0.8,2.1c0.5,0.5,1.1,0.8,1.8,0.8
		c0.5,0,1-0.1,1.3-0.3c0.4-0.2,0.7-0.5,1-0.9l0.9,0.7C220.1,398.6,219,399.2,217.6,399.2z M217.4,391.3c-0.6,0-1.1,0.2-1.5,0.7
		c-0.4,0.4-0.7,1.1-0.8,1.8h4.4v-0.1c0-0.8-0.2-1.3-0.6-1.8C218.5,391.6,218,391.3,217.4,391.3z"/>
	<path d="M224.1,390.3l0,1c0.6-0.8,1.5-1.1,2.6-1.1c1.2,0,2,0.5,2.5,1.4c0.3-0.4,0.7-0.8,1.1-1c0.5-0.3,1-0.4,1.6-0.4
		c1.9,0,2.9,1,2.9,3v5.8h-1.5v-5.8c0-0.6-0.1-1.1-0.4-1.4c-0.3-0.3-0.8-0.5-1.4-0.5c-0.6,0-1,0.2-1.4,0.5c-0.4,0.3-0.6,0.8-0.6,1.3
		v5.8H228v-5.7c0-1.3-0.6-1.9-1.9-1.9c-1,0-1.6,0.4-2,1.2v6.4h-1.5v-8.7H224.1z"/>
	<path d="M240.8,399.2c-1.2,0-2.1-0.4-2.9-1.2c-0.7-0.8-1.1-1.8-1.1-3.1v-0.3c0-0.9,0.2-1.6,0.5-2.3c0.3-0.7,0.8-1.2,1.4-1.6
		c0.6-0.4,1.2-0.6,1.9-0.6c1.1,0,2,0.4,2.6,1.1c0.6,0.7,0.9,1.8,0.9,3.2v0.6h-5.9c0,0.9,0.3,1.6,0.8,2.1c0.5,0.5,1.1,0.8,1.8,0.8
		c0.5,0,1-0.1,1.3-0.3c0.4-0.2,0.7-0.5,1-0.9l0.9,0.7C243.3,398.6,242.2,399.2,240.8,399.2z M240.6,391.3c-0.6,0-1.1,0.2-1.5,0.7
		c-0.4,0.4-0.7,1.1-0.8,1.8h4.4v-0.1c0-0.8-0.2-1.3-0.6-1.8C241.7,391.6,241.2,391.3,240.6,391.3z"/>
	<path d="M251,396.7c0-0.4-0.2-0.7-0.5-0.9c-0.3-0.2-0.8-0.4-1.6-0.6c-0.8-0.2-1.4-0.4-1.8-0.6c-0.4-0.2-0.8-0.5-1-0.8
		c-0.2-0.3-0.3-0.7-0.3-1.1c0-0.7,0.3-1.3,0.9-1.8c0.6-0.5,1.4-0.7,2.3-0.7c1,0,1.8,0.3,2.4,0.8c0.6,0.5,0.9,1.2,0.9,2h-1.5
		c0-0.4-0.2-0.8-0.5-1.1c-0.3-0.3-0.8-0.4-1.3-0.4c-0.5,0-1,0.1-1.3,0.4s-0.5,0.5-0.5,0.9c0,0.4,0.1,0.6,0.4,0.8s0.8,0.4,1.5,0.5
		c0.7,0.2,1.3,0.4,1.8,0.6c0.5,0.2,0.8,0.5,1,0.8c0.2,0.3,0.3,0.7,0.3,1.2c0,0.8-0.3,1.4-0.9,1.9c-0.6,0.5-1.4,0.7-2.4,0.7
		c-0.7,0-1.3-0.1-1.9-0.4s-1-0.6-1.3-1c-0.3-0.4-0.5-0.9-0.5-1.4h1.5c0,0.5,0.2,0.9,0.6,1.2c0.4,0.3,0.9,0.4,1.5,0.4
		c0.6,0,1-0.1,1.4-0.3C250.8,397.4,251,397.1,251,396.7z"/>
	<path d="M256.4,388.2v2.1h1.6v1.2h-1.6v5.4c0,0.3,0.1,0.6,0.2,0.8s0.4,0.3,0.7,0.3c0.2,0,0.4,0,0.7-0.1v1.2
		c-0.4,0.1-0.8,0.2-1.1,0.2c-0.7,0-1.2-0.2-1.5-0.6c-0.3-0.4-0.5-1-0.5-1.7v-5.4h-1.6v-1.2h1.6v-2.1H256.4z"/>
	<path d="M263.4,399.2c-1.2,0-2.1-0.4-2.9-1.2c-0.7-0.8-1.1-1.8-1.1-3.1v-0.3c0-0.9,0.2-1.6,0.5-2.3c0.3-0.7,0.8-1.2,1.4-1.6
		c0.6-0.4,1.2-0.6,1.9-0.6c1.1,0,2,0.4,2.6,1.1c0.6,0.7,0.9,1.8,0.9,3.2v0.6h-5.9c0,0.9,0.3,1.6,0.8,2.1c0.5,0.5,1.1,0.8,1.8,0.8
		c0.5,0,1-0.1,1.3-0.3c0.4-0.2,0.7-0.5,1-0.9l0.9,0.7C266,398.6,264.9,399.2,263.4,399.2z M263.2,391.3c-0.6,0-1.1,0.2-1.5,0.7
		c-0.4,0.4-0.7,1.1-0.8,1.8h4.4v-0.1c0-0.8-0.2-1.3-0.6-1.8C264.3,391.6,263.8,391.3,263.2,391.3z"/>
	<path d="M272.7,391.6c-0.2,0-0.5-0.1-0.7-0.1c-1,0-1.6,0.4-2,1.2v6.2h-1.5v-8.7h1.5l0,1c0.5-0.8,1.2-1.2,2.1-1.2
		c0.3,0,0.5,0,0.7,0.1V391.6z"/>
	<path d="M192.4,407.8c0-0.2,0.1-0.4,0.2-0.6c0.1-0.2,0.4-0.3,0.7-0.3s0.5,0.1,0.7,0.3s0.2,0.4,0.2,0.6c0,0.2-0.1,0.4-0.2,0.6
		s-0.4,0.2-0.7,0.2s-0.5-0.1-0.7-0.2C192.5,408.2,192.4,408,192.4,407.8z M194,418.8h-1.5v-8.7h1.5V418.8z"/>
	<path d="M197.8,410.1l0,1.1c0.7-0.8,1.5-1.3,2.6-1.3c1.8,0,2.8,1,2.8,3.1v5.8h-1.5V413c0-0.6-0.1-1.1-0.4-1.4
		c-0.3-0.3-0.7-0.5-1.3-0.5c-0.5,0-0.9,0.1-1.3,0.4c-0.4,0.3-0.7,0.6-0.9,1v6.2h-1.5v-8.7H197.8z"/>
	<path d="M211.6,408v2.1h1.6v1.2h-1.6v5.4c0,0.3,0.1,0.6,0.2,0.8s0.4,0.3,0.7,0.3c0.2,0,0.4,0,0.7-0.1v1.2c-0.4,0.1-0.8,0.2-1.1,0.2
		c-0.7,0-1.2-0.2-1.5-0.6c-0.3-0.4-0.5-1-0.5-1.7v-5.4h-1.6v-1.2h1.6V408H211.6z"/>
	<path d="M214.4,414.4c0-0.9,0.2-1.6,0.5-2.3c0.3-0.7,0.8-1.2,1.4-1.6c0.6-0.4,1.3-0.6,2.1-0.6c1.2,0,2.1,0.4,2.9,1.2
		c0.7,0.8,1.1,1.9,1.1,3.3v0.1c0,0.8-0.2,1.6-0.5,2.3c-0.3,0.7-0.8,1.2-1.4,1.6c-0.6,0.4-1.3,0.6-2.1,0.6c-1.2,0-2.1-0.4-2.9-1.2
		c-0.7-0.8-1.1-1.9-1.1-3.3V414.4z M215.9,414.5c0,1,0.2,1.7,0.7,2.3c0.4,0.6,1,0.9,1.8,0.9c0.8,0,1.4-0.3,1.8-0.9
		c0.4-0.6,0.7-1.4,0.7-2.5c0-1-0.2-1.7-0.7-2.3c-0.5-0.6-1.1-0.9-1.8-0.9c-0.7,0-1.3,0.3-1.8,0.9S215.9,413.4,215.9,414.5z"/>
	<path d="M228.4,411.4c-0.2,0-0.5-0.1-0.7-0.1c-1,0-1.6,0.4-2,1.2v6.2h-1.5v-8.7h1.5l0,1c0.5-0.8,1.2-1.2,2.1-1.2
		c0.3,0,0.5,0,0.7,0.1V411.4z"/>
	<path d="M229.2,414.4c0-0.9,0.2-1.6,0.5-2.3c0.3-0.7,0.8-1.2,1.4-1.6c0.6-0.4,1.3-0.6,2.1-0.6c1.2,0,2.1,0.4,2.9,1.2
		c0.7,0.8,1.1,1.9,1.1,3.3v0.1c0,0.8-0.2,1.6-0.5,2.3c-0.3,0.7-0.8,1.2-1.4,1.6c-0.6,0.4-1.3,0.6-2.1,0.6c-1.2,0-2.1-0.4-2.9-1.2
		c-0.7-0.8-1.1-1.9-1.1-3.3V414.4z M230.7,414.5c0,1,0.2,1.7,0.7,2.3c0.4,0.6,1,0.9,1.8,0.9c0.8,0,1.4-0.3,1.8-0.9
		c0.4-0.6,0.7-1.4,0.7-2.5c0-1-0.2-1.7-0.7-2.3c-0.5-0.6-1.1-0.9-1.8-0.9c-0.7,0-1.3,0.3-1.8,0.9S230.7,413.4,230.7,414.5z"/>
	<path d="M240.5,410.1l0,1.1c0.7-0.8,1.5-1.3,2.6-1.3c1.8,0,2.8,1,2.8,3.1v5.8h-1.5V413c0-0.6-0.1-1.1-0.4-1.4
		c-0.3-0.3-0.7-0.5-1.3-0.5c-0.5,0-0.9,0.1-1.3,0.4c-0.4,0.3-0.7,0.6-0.9,1v6.2H239v-8.7H240.5z"/>
	<path d="M250.2,408v2.1h1.6v1.2h-1.6v5.4c0,0.3,0.1,0.6,0.2,0.8s0.4,0.3,0.7,0.3c0.2,0,0.4,0,0.7-0.1v1.2c-0.4,0.1-0.8,0.2-1.1,0.2
		c-0.7,0-1.2-0.2-1.5-0.6c-0.3-0.4-0.5-1-0.5-1.7v-5.4h-1.6v-1.2h1.6V408H250.2z"/>
	<path d="M253,414.4c0-0.9,0.2-1.6,0.5-2.3c0.3-0.7,0.8-1.2,1.4-1.6c0.6-0.4,1.3-0.6,2.1-0.6c1.2,0,2.1,0.4,2.9,1.2
		c0.7,0.8,1.1,1.9,1.1,3.3v0.1c0,0.8-0.2,1.6-0.5,2.3c-0.3,0.7-0.8,1.2-1.4,1.6c-0.6,0.4-1.3,0.6-2.1,0.6c-1.2,0-2.1-0.4-2.9-1.2
		c-0.7-0.8-1.1-1.9-1.1-3.3V414.4z M254.5,414.5c0,1,0.2,1.7,0.7,2.3c0.4,0.6,1,0.9,1.8,0.9c0.8,0,1.4-0.3,1.8-0.9
		c0.4-0.6,0.7-1.4,0.7-2.5c0-1-0.2-1.7-0.7-2.3c-0.5-0.6-1.1-0.9-1.8-0.9c-0.7,0-1.3,0.3-1.8,0.9S254.5,413.4,254.5,414.5z"/>
</g>
<g>
	<path d="M377.4,838.2v2.1h1.6v1.2h-1.6v5.4c0,0.3,0.1,0.6,0.2,0.8s0.4,0.3,0.7,0.3c0.2,0,0.4,0,0.7-0.1v1.2
		c-0.4,0.1-0.8,0.2-1.1,0.2c-0.7,0-1.2-0.2-1.5-0.6c-0.3-0.4-0.5-1-0.5-1.7v-5.4h-1.6v-1.2h1.6v-2.1H377.4z"/>
	<path d="M386.1,848.1c-0.6,0.7-1.4,1-2.6,1c-0.9,0-1.6-0.3-2.1-0.8c-0.5-0.5-0.7-1.3-0.7-2.4v-5.7h1.5v5.6c0,1.3,0.5,2,1.6,2
		c1.1,0,1.9-0.4,2.3-1.3v-6.3h1.5v8.7h-1.4L386.1,848.1z"/>
	<path d="M391.9,838.2v2.1h1.6v1.2h-1.6v5.4c0,0.3,0.1,0.6,0.2,0.8s0.4,0.3,0.7,0.3c0.2,0,0.4,0,0.7-0.1v1.2
		c-0.4,0.1-0.8,0.2-1.1,0.2c-0.7,0-1.2-0.2-1.5-0.6c-0.3-0.4-0.5-1-0.5-1.7v-5.4h-1.6v-1.2h1.6v-2.1H391.9z"/>
	<path d="M394.7,844.6c0-0.9,0.2-1.6,0.5-2.3c0.3-0.7,0.8-1.2,1.4-1.6c0.6-0.4,1.3-0.6,2.1-0.6c1.2,0,2.1,0.4,2.9,1.2
		c0.7,0.8,1.1,1.9,1.1,3.3v0.1c0,0.8-0.2,1.6-0.5,2.3c-0.3,0.7-0.8,1.2-1.4,1.6c-0.6,0.4-1.3,0.6-2.1,0.6c-1.2,0-2.1-0.4-2.9-1.2
		c-0.7-0.8-1.1-1.9-1.1-3.3V844.6z M396.2,844.7c0,1,0.2,1.7,0.7,2.3c0.4,0.6,1,0.9,1.8,0.9c0.8,0,1.4-0.3,1.8-0.9
		c0.4-0.6,0.7-1.4,0.7-2.5c0-1-0.2-1.7-0.7-2.3c-0.5-0.6-1.1-0.9-1.8-0.9c-0.7,0-1.3,0.3-1.8,0.9
		C396.4,842.8,396.2,843.6,396.2,844.7z"/>
	<path d="M408.7,841.6c-0.2,0-0.5-0.1-0.7-0.1c-1,0-1.6,0.4-2,1.2v6.2h-1.5v-8.7h1.5l0,1c0.5-0.8,1.2-1.2,2.1-1.2
		c0.3,0,0.5,0,0.7,0.1V841.6z"/>
	<path d="M410.1,838c0-0.2,0.1-0.4,0.2-0.6c0.1-0.2,0.4-0.3,0.7-0.3s0.5,0.1,0.7,0.3c0.2,0.2,0.2,0.4,0.2,0.6c0,0.2-0.1,0.4-0.2,0.6
		c-0.2,0.2-0.4,0.2-0.7,0.2s-0.5-0.1-0.7-0.2C410.2,838.4,410.1,838.2,410.1,838z M411.7,849h-1.5v-8.7h1.5V849z"/>
	<path d="M415.5,840.3l0,1.1c0.7-0.8,1.5-1.3,2.6-1.3c1.8,0,2.8,1,2.8,3.1v5.8h-1.5v-5.8c0-0.6-0.1-1.1-0.4-1.4s-0.7-0.5-1.3-0.5
		c-0.5,0-0.9,0.1-1.3,0.4s-0.7,0.6-0.9,1v6.2h-1.5v-8.7H415.5z"/>
	<path d="M422.8,844.6c0-1.4,0.3-2.4,0.9-3.2c0.6-0.8,1.5-1.2,2.5-1.2c1.1,0,1.9,0.4,2.5,1.1l0.1-1h1.4v8.5c0,1.1-0.3,2-1,2.7
		c-0.7,0.7-1.6,1-2.7,1c-0.6,0-1.2-0.1-1.8-0.4s-1.1-0.6-1.4-1.1l0.8-0.9c0.6,0.8,1.4,1.2,2.3,1.2c0.7,0,1.3-0.2,1.7-0.6
		s0.6-1,0.6-1.7v-0.7c-0.6,0.7-1.4,1-2.4,1c-1,0-1.8-0.4-2.5-1.2C423.2,847.1,422.8,846,422.8,844.6z M424.3,844.7
		c0,1,0.2,1.8,0.6,2.3c0.4,0.6,1,0.8,1.7,0.8c0.9,0,1.6-0.4,2.1-1.3v-4c-0.5-0.8-1.1-1.2-2.1-1.2c-0.7,0-1.3,0.3-1.7,0.8
		C424.5,842.8,424.3,843.6,424.3,844.7z"/>
	<path d="M441.9,849c-0.1-0.2-0.2-0.5-0.2-0.9c-0.7,0.7-1.5,1.1-2.5,1.1c-0.9,0-1.6-0.2-2.1-0.7c-0.6-0.5-0.8-1.1-0.8-1.8
		c0-0.9,0.3-1.6,1-2.1c0.7-0.5,1.7-0.8,2.9-0.8h1.5V843c0-0.5-0.2-0.9-0.5-1.2s-0.8-0.5-1.4-0.5c-0.5,0-1,0.1-1.3,0.4
		c-0.4,0.3-0.5,0.6-0.5,1h-1.5c0-0.4,0.2-0.9,0.5-1.3c0.3-0.4,0.7-0.7,1.3-1s1.1-0.4,1.7-0.4c1,0,1.8,0.3,2.4,0.8
		c0.6,0.5,0.9,1.2,0.9,2.1v4c0,0.8,0.1,1.4,0.3,1.9v0.1H441.9z M439.4,847.9c0.5,0,0.9-0.1,1.3-0.4c0.4-0.2,0.7-0.6,0.9-0.9v-1.8
		h-1.2c-1.8,0-2.7,0.5-2.7,1.6c0,0.5,0.2,0.8,0.5,1.1C438.6,847.7,439,847.9,439.4,847.9z"/>
	<path d="M447.5,838.2v2.1h1.6v1.2h-1.6v5.4c0,0.3,0.1,0.6,0.2,0.8c0.1,0.2,0.4,0.3,0.7,0.3c0.2,0,0.4,0,0.7-0.1v1.2
		c-0.4,0.1-0.8,0.2-1.1,0.2c-0.7,0-1.2-0.2-1.5-0.6c-0.3-0.4-0.5-1-0.5-1.7v-5.4h-1.6v-1.2h1.6v-2.1H447.5z"/>
	<path d="M376.1,868.8v-7.6h-1.4v-1.2h1.4v-0.9c0-0.9,0.2-1.7,0.7-2.2c0.5-0.5,1.2-0.8,2.1-0.8c0.3,0,0.7,0,1,0.1l-0.1,1.2
		c-0.3,0-0.5-0.1-0.8-0.1c-0.5,0-0.9,0.1-1.1,0.4c-0.3,0.3-0.4,0.7-0.4,1.2v0.9h1.9v1.2h-1.9v7.6H376.1z"/>
	<path d="M385.3,861.4c-0.2,0-0.5-0.1-0.7-0.1c-1,0-1.6,0.4-2,1.2v6.2h-1.5v-8.7h1.5l0,1c0.5-0.8,1.2-1.2,2.1-1.2
		c0.3,0,0.5,0,0.7,0.1V861.4z"/>
	<path d="M390.2,869c-1.2,0-2.1-0.4-2.9-1.2s-1.1-1.8-1.1-3.1v-0.3c0-0.9,0.2-1.6,0.5-2.3c0.3-0.7,0.8-1.2,1.4-1.6
		c0.6-0.4,1.2-0.6,1.9-0.6c1.1,0,2,0.4,2.6,1.1c0.6,0.7,0.9,1.8,0.9,3.2v0.6h-5.9c0,0.9,0.3,1.6,0.8,2.1c0.5,0.5,1.1,0.8,1.8,0.8
		c0.5,0,1-0.1,1.3-0.3s0.7-0.5,1-0.9l0.9,0.7C392.7,868.4,391.6,869,390.2,869z M390,861.1c-0.6,0-1.1,0.2-1.5,0.7s-0.7,1.1-0.8,1.8
		h4.4v-0.1c0-0.8-0.2-1.3-0.6-1.8S390.6,861.1,390,861.1z"/>
	<path d="M395.3,857.8c0-0.2,0.1-0.4,0.2-0.6c0.1-0.2,0.4-0.3,0.7-0.3s0.5,0.1,0.7,0.3c0.2,0.2,0.2,0.4,0.2,0.6
		c0,0.2-0.1,0.4-0.2,0.6c-0.2,0.2-0.4,0.2-0.7,0.2s-0.5-0.1-0.7-0.2C395.4,858.2,395.3,858,395.3,857.8z M396.9,868.8h-1.5v-8.7h1.5
		V868.8z"/>
	<path d="M402.9,869c-1.2,0-2.1-0.4-2.9-1.2s-1.1-1.8-1.1-3.1v-0.3c0-0.9,0.2-1.6,0.5-2.3c0.3-0.7,0.8-1.2,1.4-1.6
		c0.6-0.4,1.2-0.6,1.9-0.6c1.1,0,2,0.4,2.6,1.1c0.6,0.7,0.9,1.8,0.9,3.2v0.6h-5.9c0,0.9,0.3,1.6,0.8,2.1c0.5,0.5,1.1,0.8,1.8,0.8
		c0.5,0,1-0.1,1.3-0.3s0.7-0.5,1-0.9l0.9,0.7C405.5,868.4,404.4,869,402.9,869z M402.7,861.1c-0.6,0-1.1,0.2-1.5,0.7
		s-0.7,1.1-0.8,1.8h4.4v-0.1c0-0.8-0.2-1.3-0.6-1.8S403.3,861.1,402.7,861.1z"/>
	<path d="M377.8,884.6l-0.9,1v3.1h-1.5v-12.4h1.5v7.5l0.8-1l2.7-2.9h1.8l-3.4,3.6l3.8,5.1h-1.7L377.8,884.6z"/>
	<path d="M389.1,887.7c-0.6,0.7-1.4,1-2.6,1c-0.9,0-1.6-0.3-2.1-0.8c-0.5-0.5-0.7-1.3-0.7-2.4v-5.7h1.5v5.6c0,1.3,0.5,2,1.6,2
		c1.1,0,1.9-0.4,2.3-1.3v-6.3h1.5v8.7h-1.4L389.1,887.7z"/>
	<path d="M394.2,879.9l0,1.1c0.7-0.8,1.5-1.3,2.6-1.3c1.8,0,2.8,1,2.8,3.1v5.8h-1.5v-5.8c0-0.6-0.1-1.1-0.4-1.4
		c-0.3-0.3-0.7-0.5-1.3-0.5c-0.5,0-0.9,0.1-1.3,0.4c-0.4,0.3-0.7,0.6-0.9,1v6.2h-1.5v-8.7H394.2z"/>
	<path d="M407,886.3c0-0.4-0.2-0.7-0.5-0.9c-0.3-0.2-0.8-0.4-1.6-0.6c-0.8-0.2-1.4-0.4-1.8-0.6c-0.4-0.2-0.8-0.5-1-0.8
		c-0.2-0.3-0.3-0.7-0.3-1.1c0-0.7,0.3-1.3,0.9-1.8c0.6-0.5,1.4-0.7,2.3-0.7c1,0,1.8,0.3,2.4,0.8c0.6,0.5,0.9,1.2,0.9,2h-1.5
		c0-0.4-0.2-0.8-0.5-1.1c-0.3-0.3-0.8-0.4-1.3-0.4c-0.5,0-1,0.1-1.3,0.4s-0.5,0.5-0.5,0.9c0,0.4,0.1,0.6,0.4,0.8s0.8,0.4,1.5,0.5
		c0.7,0.2,1.3,0.4,1.8,0.6c0.5,0.2,0.8,0.5,1,0.8c0.2,0.3,0.3,0.7,0.3,1.2c0,0.8-0.3,1.4-0.9,1.9c-0.6,0.5-1.4,0.7-2.4,0.7
		c-0.7,0-1.3-0.1-1.9-0.4c-0.5-0.2-1-0.6-1.3-1c-0.3-0.4-0.5-0.9-0.5-1.4h1.5c0,0.5,0.2,0.9,0.6,1.2c0.4,0.3,0.9,0.4,1.5,0.4
		c0.6,0,1-0.1,1.4-0.3C406.8,887,407,886.7,407,886.3z"/>
	<path d="M412.5,877.8v2.1h1.6v1.2h-1.6v5.4c0,0.3,0.1,0.6,0.2,0.8c0.1,0.2,0.4,0.3,0.7,0.3c0.2,0,0.4,0,0.7-0.1v1.2
		c-0.4,0.1-0.8,0.2-1.1,0.2c-0.7,0-1.2-0.2-1.5-0.6c-0.3-0.4-0.5-1-0.5-1.7V881h-1.6v-1.2h1.6v-2.1H412.5z"/>
	<path d="M420.9,886.3c0-0.4-0.2-0.7-0.5-0.9c-0.3-0.2-0.8-0.4-1.6-0.6s-1.4-0.4-1.8-0.6c-0.4-0.2-0.8-0.5-1-0.8s-0.3-0.7-0.3-1.1
		c0-0.7,0.3-1.3,0.9-1.8s1.4-0.7,2.3-0.7c1,0,1.8,0.3,2.4,0.8c0.6,0.5,0.9,1.2,0.9,2h-1.5c0-0.4-0.2-0.8-0.5-1.1
		c-0.3-0.3-0.8-0.4-1.3-0.4c-0.5,0-1,0.1-1.3,0.4c-0.3,0.2-0.5,0.5-0.5,0.9c0,0.4,0.1,0.6,0.4,0.8c0.3,0.2,0.8,0.4,1.5,0.5
		c0.7,0.2,1.3,0.4,1.8,0.6c0.5,0.2,0.8,0.5,1,0.8c0.2,0.3,0.3,0.7,0.3,1.2c0,0.8-0.3,1.4-0.9,1.9s-1.4,0.7-2.4,0.7
		c-0.7,0-1.3-0.1-1.9-0.4c-0.5-0.2-1-0.6-1.3-1c-0.3-0.4-0.5-0.9-0.5-1.4h1.5c0,0.5,0.2,0.9,0.6,1.2c0.4,0.3,0.9,0.4,1.5,0.4
		c0.6,0,1-0.1,1.4-0.3C420.7,887,420.9,886.7,420.9,886.3z"/>
	<path d="M427.8,887.5c0.5,0,1-0.2,1.4-0.5s0.6-0.7,0.7-1.2h1.4c0,0.5-0.2,1-0.5,1.4c-0.3,0.5-0.7,0.8-1.3,1.1
		c-0.5,0.3-1.1,0.4-1.7,0.4c-1.2,0-2.1-0.4-2.8-1.2c-0.7-0.8-1.1-1.9-1.1-3.3v-0.2c0-0.8,0.2-1.6,0.5-2.3c0.3-0.7,0.8-1.2,1.3-1.5
		s1.3-0.5,2.1-0.5c1,0,1.8,0.3,2.4,0.9c0.6,0.6,1,1.3,1,2.3h-1.4c0-0.6-0.3-1-0.6-1.4c-0.4-0.4-0.9-0.5-1.4-0.5
		c-0.8,0-1.3,0.3-1.8,0.8c-0.4,0.5-0.6,1.3-0.6,2.4v0.3c0,1,0.2,1.8,0.6,2.3C426.5,887.3,427.1,887.5,427.8,887.5z"/>
	<path d="M434.5,880.9c0.7-0.8,1.5-1.2,2.6-1.2c1.8,0,2.8,1,2.8,3.1v5.8h-1.5v-5.8c0-0.6-0.1-1.1-0.4-1.4s-0.7-0.5-1.3-0.5
		c-0.5,0-0.9,0.1-1.3,0.4s-0.7,0.6-0.9,1v6.2H433v-12.4h1.5V880.9z"/>
	<path d="M447.5,887.7c-0.6,0.7-1.4,1-2.6,1c-0.9,0-1.6-0.3-2.1-0.8s-0.7-1.3-0.7-2.4v-5.7h1.5v5.6c0,1.3,0.5,2,1.6,2
		c1.1,0,1.9-0.4,2.3-1.3v-6.3h1.5v8.7h-1.4L447.5,887.7z"/>
	<path d="M452.8,888.6h-1.5v-12.4h1.5V888.6z"/>
	<path d="M458.8,888.8c-1.2,0-2.1-0.4-2.9-1.2s-1.1-1.8-1.1-3.1v-0.3c0-0.9,0.2-1.6,0.5-2.3c0.3-0.7,0.8-1.2,1.4-1.6
		c0.6-0.4,1.2-0.6,1.9-0.6c1.1,0,2,0.4,2.6,1.1c0.6,0.7,0.9,1.8,0.9,3.2v0.6h-5.9c0,0.9,0.3,1.6,0.8,2.1c0.5,0.5,1.1,0.8,1.8,0.8
		c0.5,0,1-0.1,1.3-0.3s0.7-0.5,1-0.9l0.9,0.7C461.3,888.2,460.2,888.8,458.8,888.8z M458.6,880.9c-0.6,0-1.1,0.2-1.5,0.7
		s-0.7,1.1-0.8,1.8h4.4v-0.1c0-0.8-0.2-1.3-0.6-1.8C459.7,881.2,459.2,880.9,458.6,880.9z"/>
	<path d="M377.8,904.4l-0.9,1v3.1h-1.5V896h1.5v7.5l0.8-1l2.7-2.9h1.8l-3.4,3.6l3.8,5.1h-1.7L377.8,904.4z"/>
	<path d="M383.7,897.4c0-0.2,0.1-0.4,0.2-0.6c0.1-0.2,0.4-0.3,0.7-0.3s0.5,0.1,0.7,0.3c0.2,0.2,0.2,0.4,0.2,0.6
		c0,0.2-0.1,0.4-0.2,0.6c-0.2,0.2-0.4,0.2-0.7,0.2s-0.5-0.1-0.7-0.2C383.8,897.8,383.7,897.6,383.7,897.4z M385.4,908.4h-1.5v-8.7
		h1.5V908.4z"/>
	<path d="M391.4,908.6c-1.2,0-2.1-0.4-2.9-1.2s-1.1-1.8-1.1-3.1V904c0-0.9,0.2-1.6,0.5-2.3c0.3-0.7,0.8-1.2,1.4-1.6
		c0.6-0.4,1.2-0.6,1.9-0.6c1.1,0,2,0.4,2.6,1.1c0.6,0.7,0.9,1.8,0.9,3.2v0.6h-5.9c0,0.9,0.3,1.6,0.8,2.1c0.5,0.5,1.1,0.8,1.8,0.8
		c0.5,0,1-0.1,1.3-0.3s0.7-0.5,1-0.9l0.9,0.7C393.9,908,392.8,908.6,391.4,908.6z M391.2,900.7c-0.6,0-1.1,0.2-1.5,0.7
		s-0.7,1.1-0.8,1.8h4.4v-0.1c0-0.8-0.2-1.3-0.6-1.8S391.8,900.7,391.2,900.7z"/>
	<path d="M398.1,908.4h-1.5V896h1.5V908.4z"/>
</g>
<g>
	<path d="M283.5,769.6c0-1.3,0.3-2.4,1-3.2c0.6-0.8,1.5-1.2,2.5-1.2c1,0,1.8,0.3,2.4,1v-4.5h1.5V774h-1.4l-0.1-0.9
		c-0.6,0.7-1.4,1.1-2.5,1.1c-1,0-1.8-0.4-2.5-1.2c-0.6-0.8-1-1.9-1-3.2V769.6z M285,769.7c0,1,0.2,1.8,0.6,2.3s1,0.8,1.7,0.8
		c0.9,0,1.6-0.4,2.1-1.3v-4c-0.4-0.8-1.1-1.2-2.1-1.2c-0.7,0-1.3,0.3-1.7,0.8S285,768.6,285,769.7z"/>
	<path d="M293.2,763c0-0.2,0.1-0.4,0.2-0.6c0.1-0.2,0.4-0.3,0.7-0.3s0.5,0.1,0.7,0.3c0.2,0.2,0.2,0.4,0.2,0.6c0,0.2-0.1,0.4-0.2,0.6
		c-0.2,0.2-0.4,0.2-0.7,0.2s-0.5-0.1-0.7-0.2C293.3,763.4,293.2,763.2,293.2,763z M294.8,774h-1.5v-8.7h1.5V774z"/>
	<path d="M297.9,774v-7.6h-1.4v-1.2h1.4v-0.9c0-0.9,0.2-1.7,0.7-2.2c0.5-0.5,1.2-0.8,2.1-0.8c0.3,0,0.7,0,1,0.1l-0.1,1.2
		c-0.3,0-0.5-0.1-0.8-0.1c-0.5,0-0.9,0.1-1.1,0.4c-0.3,0.3-0.4,0.7-0.4,1.2v0.9h1.9v1.2h-1.9v7.6H297.9z"/>
	<path d="M303.6,774v-7.6h-1.4v-1.2h1.4v-0.9c0-0.9,0.2-1.7,0.7-2.2c0.5-0.5,1.2-0.8,2.1-0.8c0.3,0,0.7,0,1,0.1l-0.1,1.2
		c-0.3,0-0.5-0.1-0.8-0.1c-0.5,0-0.9,0.1-1.1,0.4c-0.3,0.3-0.4,0.7-0.4,1.2v0.9h1.9v1.2h-1.9v7.6H303.6z"/>
	<path d="M312.1,774.2c-1.2,0-2.1-0.4-2.9-1.2s-1.1-1.8-1.1-3.1v-0.3c0-0.9,0.2-1.6,0.5-2.3c0.3-0.7,0.8-1.2,1.4-1.6
		c0.6-0.4,1.2-0.6,1.9-0.6c1.1,0,2,0.4,2.6,1.1c0.6,0.7,0.9,1.8,0.9,3.2v0.6h-5.9c0,0.9,0.3,1.6,0.8,2.1c0.5,0.5,1.1,0.8,1.8,0.8
		c0.5,0,1-0.1,1.3-0.3s0.7-0.5,1-0.9l0.9,0.7C314.6,773.6,313.5,774.2,312.1,774.2z M311.9,766.3c-0.6,0-1.1,0.2-1.5,0.7
		s-0.7,1.1-0.8,1.8h4.4v-0.1c0-0.8-0.2-1.3-0.6-1.8S312.5,766.3,311.9,766.3z"/>
	<path d="M321.4,766.6c-0.2,0-0.5-0.1-0.7-0.1c-1,0-1.6,0.4-2,1.2v6.2h-1.5v-8.7h1.5l0,1c0.5-0.8,1.2-1.2,2.1-1.2
		c0.3,0,0.5,0,0.7,0.1V766.6z"/>
	<path d="M326.2,774.2c-1.2,0-2.1-0.4-2.9-1.2s-1.1-1.8-1.1-3.1v-0.3c0-0.9,0.2-1.6,0.5-2.3c0.3-0.7,0.8-1.2,1.4-1.6
		c0.6-0.4,1.2-0.6,1.9-0.6c1.1,0,2,0.4,2.6,1.1c0.6,0.7,0.9,1.8,0.9,3.2v0.6h-5.9c0,0.9,0.3,1.6,0.8,2.1c0.5,0.5,1.1,0.8,1.8,0.8
		c0.5,0,1-0.1,1.3-0.3s0.7-0.5,1-0.9l0.9,0.7C328.8,773.6,327.7,774.2,326.2,774.2z M326.1,766.3c-0.6,0-1.1,0.2-1.5,0.7
		s-0.7,1.1-0.8,1.8h4.4v-0.1c0-0.8-0.2-1.3-0.6-1.8S326.7,766.3,326.1,766.3z"/>
	<path d="M332.8,765.3l0,1.1c0.7-0.8,1.5-1.3,2.6-1.3c1.8,0,2.8,1,2.8,3.1v5.8h-1.5v-5.8c0-0.6-0.1-1.1-0.4-1.4
		c-0.3-0.3-0.7-0.5-1.3-0.5c-0.5,0-0.9,0.1-1.3,0.4c-0.4,0.3-0.7,0.6-0.9,1v6.2h-1.5v-8.7H332.8z"/>
	<path d="M342.5,763.2v2.1h1.6v1.2h-1.6v5.4c0,0.3,0.1,0.6,0.2,0.8s0.4,0.3,0.7,0.3c0.2,0,0.4,0,0.7-0.1v1.2
		c-0.4,0.1-0.8,0.2-1.1,0.2c-0.7,0-1.2-0.2-1.5-0.6c-0.3-0.4-0.5-1-0.5-1.7v-5.4h-1.6v-1.2h1.6v-2.1H342.5z"/>
	<path d="M289,791.5c0-0.4-0.2-0.7-0.5-0.9c-0.3-0.2-0.8-0.4-1.6-0.6c-0.8-0.2-1.4-0.4-1.8-0.6c-0.4-0.2-0.8-0.5-1-0.8
		c-0.2-0.3-0.3-0.7-0.3-1.1c0-0.7,0.3-1.3,0.9-1.8c0.6-0.5,1.4-0.7,2.3-0.7c1,0,1.8,0.3,2.4,0.8c0.6,0.5,0.9,1.2,0.9,2h-1.5
		c0-0.4-0.2-0.8-0.5-1.1c-0.3-0.3-0.8-0.4-1.3-0.4c-0.5,0-1,0.1-1.3,0.4s-0.5,0.5-0.5,0.9c0,0.4,0.1,0.6,0.4,0.8s0.8,0.4,1.5,0.5
		c0.7,0.2,1.3,0.4,1.8,0.6c0.5,0.2,0.8,0.5,1,0.8c0.2,0.3,0.3,0.7,0.3,1.2c0,0.8-0.3,1.4-0.9,1.9c-0.6,0.5-1.4,0.7-2.4,0.7
		c-0.7,0-1.3-0.1-1.9-0.4c-0.5-0.2-1-0.6-1.3-1c-0.3-0.4-0.5-0.9-0.5-1.4h1.5c0,0.5,0.2,0.9,0.6,1.2c0.4,0.3,0.9,0.4,1.5,0.4
		c0.6,0,1-0.1,1.4-0.3C288.8,792.2,289,791.9,289,791.5z"/>
	<path d="M295.9,792.7c0.5,0,1-0.2,1.4-0.5c0.4-0.3,0.6-0.7,0.7-1.2h1.4c0,0.5-0.2,1-0.5,1.4s-0.7,0.8-1.3,1.1
		c-0.5,0.3-1.1,0.4-1.7,0.4c-1.2,0-2.1-0.4-2.8-1.2c-0.7-0.8-1.1-1.9-1.1-3.3v-0.2c0-0.8,0.2-1.6,0.5-2.3c0.3-0.7,0.8-1.2,1.3-1.5
		c0.6-0.4,1.3-0.5,2.1-0.5c1,0,1.8,0.3,2.4,0.9c0.6,0.6,1,1.3,1,2.3h-1.4c0-0.6-0.3-1-0.6-1.4c-0.4-0.4-0.9-0.5-1.4-0.5
		c-0.8,0-1.3,0.3-1.8,0.8c-0.4,0.5-0.6,1.3-0.6,2.4v0.3c0,1,0.2,1.8,0.6,2.3C294.5,792.5,295.1,792.7,295.9,792.7z"/>
	<path d="M302.5,786.1c0.7-0.8,1.5-1.2,2.6-1.2c1.8,0,2.8,1,2.8,3.1v5.8h-1.5V788c0-0.6-0.1-1.1-0.4-1.4c-0.3-0.3-0.7-0.5-1.3-0.5
		c-0.5,0-0.9,0.1-1.3,0.4c-0.4,0.3-0.7,0.6-0.9,1v6.2H301v-12.4h1.5V786.1z"/>
	<path d="M309.7,789.4c0-0.9,0.2-1.6,0.5-2.3c0.3-0.7,0.8-1.2,1.4-1.6c0.6-0.4,1.3-0.6,2.1-0.6c1.2,0,2.1,0.4,2.9,1.2
		c0.7,0.8,1.1,1.9,1.1,3.3v0.1c0,0.8-0.2,1.6-0.5,2.3c-0.3,0.7-0.8,1.2-1.4,1.6c-0.6,0.4-1.3,0.6-2.1,0.6c-1.2,0-2.1-0.4-2.9-1.2
		c-0.7-0.8-1.1-1.9-1.1-3.3V789.4z M311.2,789.5c0,1,0.2,1.7,0.7,2.3c0.4,0.6,1,0.9,1.8,0.9c0.8,0,1.4-0.3,1.8-0.9
		c0.4-0.6,0.7-1.4,0.7-2.5c0-1-0.2-1.7-0.7-2.3c-0.5-0.6-1.1-0.9-1.8-0.9c-0.7,0-1.3,0.3-1.8,0.9
		C311.4,787.6,311.2,788.4,311.2,789.5z"/>
	<path d="M319.1,789.4c0-0.9,0.2-1.6,0.5-2.3c0.3-0.7,0.8-1.2,1.4-1.6c0.6-0.4,1.3-0.6,2.1-0.6c1.2,0,2.1,0.4,2.9,1.2
		c0.7,0.8,1.1,1.9,1.1,3.3v0.1c0,0.8-0.2,1.6-0.5,2.3c-0.3,0.7-0.8,1.2-1.4,1.6c-0.6,0.4-1.3,0.6-2.1,0.6c-1.2,0-2.1-0.4-2.9-1.2
		c-0.7-0.8-1.1-1.9-1.1-3.3V789.4z M320.6,789.5c0,1,0.2,1.7,0.7,2.3c0.4,0.6,1,0.9,1.8,0.9c0.8,0,1.4-0.3,1.8-0.9
		c0.4-0.6,0.7-1.4,0.7-2.5c0-1-0.2-1.7-0.7-2.3c-0.5-0.6-1.1-0.9-1.8-0.9c-0.7,0-1.3,0.3-1.8,0.9
		C320.8,787.6,320.6,788.4,320.6,789.5z"/>
	<path d="M330.5,793.8h-1.5v-12.4h1.5V793.8z"/>
	<path d="M338,791.5c0-0.4-0.2-0.7-0.5-0.9c-0.3-0.2-0.8-0.4-1.6-0.6c-0.8-0.2-1.4-0.4-1.8-0.6c-0.4-0.2-0.8-0.5-1-0.8
		c-0.2-0.3-0.3-0.7-0.3-1.1c0-0.7,0.3-1.3,0.9-1.8c0.6-0.5,1.4-0.7,2.3-0.7c1,0,1.8,0.3,2.4,0.8c0.6,0.5,0.9,1.2,0.9,2h-1.5
		c0-0.4-0.2-0.8-0.5-1.1c-0.3-0.3-0.8-0.4-1.3-0.4c-0.5,0-1,0.1-1.3,0.4s-0.5,0.5-0.5,0.9c0,0.4,0.1,0.6,0.4,0.8s0.8,0.4,1.5,0.5
		c0.7,0.2,1.3,0.4,1.8,0.6c0.5,0.2,0.8,0.5,1,0.8c0.2,0.3,0.3,0.7,0.3,1.2c0,0.8-0.3,1.4-0.9,1.9c-0.6,0.5-1.4,0.7-2.4,0.7
		c-0.7,0-1.3-0.1-1.9-0.4c-0.5-0.2-1-0.6-1.3-1c-0.3-0.4-0.5-0.9-0.5-1.4h1.5c0,0.5,0.2,0.9,0.6,1.2c0.4,0.3,0.9,0.4,1.5,0.4
		c0.6,0,1-0.1,1.4-0.3C337.8,792.2,338,791.9,338,791.5z"/>
</g>
<g>
	<path d="M106,246.7c0-0.4-0.2-0.7-0.5-0.9c-0.3-0.2-0.8-0.4-1.6-0.6c-0.8-0.2-1.4-0.4-1.8-0.6c-0.4-0.2-0.8-0.5-1-0.8
		c-0.2-0.3-0.3-0.7-0.3-1.1c0-0.7,0.3-1.3,0.9-1.8c0.6-0.5,1.4-0.7,2.3-0.7c1,0,1.8,0.3,2.4,0.8c0.6,0.5,0.9,1.2,0.9,2h-1.5
		c0-0.4-0.2-0.8-0.5-1.1c-0.3-0.3-0.8-0.4-1.3-0.4c-0.5,0-1,0.1-1.3,0.4s-0.5,0.5-0.5,0.9c0,0.4,0.1,0.6,0.4,0.8s0.8,0.4,1.5,0.5
		c0.7,0.2,1.3,0.4,1.8,0.6c0.5,0.2,0.8,0.5,1,0.8c0.2,0.3,0.3,0.7,0.3,1.2c0,0.8-0.3,1.4-0.9,1.9c-0.6,0.5-1.4,0.7-2.4,0.7
		c-0.7,0-1.3-0.1-1.9-0.4s-1-0.6-1.3-1c-0.3-0.4-0.5-0.9-0.5-1.4h1.5c0,0.5,0.2,0.9,0.6,1.2c0.4,0.3,0.9,0.4,1.5,0.4
		c0.6,0,1-0.1,1.4-0.3C105.8,247.4,106,247.1,106,246.7z"/>
	<path d="M111.4,238.2v2.1h1.6v1.2h-1.6v5.4c0,0.3,0.1,0.6,0.2,0.8s0.4,0.3,0.7,0.3c0.2,0,0.4,0,0.7-0.1v1.2
		c-0.4,0.1-0.8,0.2-1.1,0.2c-0.7,0-1.2-0.2-1.5-0.6c-0.3-0.4-0.5-1-0.5-1.7v-5.4h-1.6v-1.2h1.6v-2.1H111.4z"/>
	<path d="M120.2,248.1c-0.6,0.7-1.4,1-2.6,1c-0.9,0-1.6-0.3-2.1-0.8c-0.5-0.5-0.7-1.3-0.7-2.4v-5.7h1.5v5.6c0,1.3,0.5,2,1.6,2
		c1.1,0,1.9-0.4,2.3-1.3v-6.3h1.5v8.7h-1.4L120.2,248.1z"/>
	<path d="M123.5,244.6c0-1.3,0.3-2.4,1-3.2c0.6-0.8,1.5-1.2,2.5-1.2c1,0,1.8,0.3,2.4,1v-4.5h1.5V249h-1.4l-0.1-0.9
		c-0.6,0.7-1.4,1.1-2.5,1.1c-1,0-1.8-0.4-2.5-1.2c-0.6-0.8-1-1.9-1-3.2V244.6z M125,244.7c0,1,0.2,1.8,0.6,2.3s1,0.8,1.7,0.8
		c0.9,0,1.6-0.4,2.1-1.3v-4c-0.4-0.8-1.1-1.2-2.1-1.2c-0.7,0-1.3,0.3-1.7,0.8S125,243.6,125,244.7z"/>
	<path d="M136,246.8l2-6.5h1.6l-3.5,10.1c-0.5,1.5-1.4,2.2-2.6,2.2l-0.3,0l-0.6-0.1v-1.2l0.4,0c0.5,0,0.9-0.1,1.2-0.3
		c0.3-0.2,0.5-0.6,0.7-1.1l0.3-0.9l-3.1-8.6h1.6L136,246.8z"/>
	<path d="M150.5,249c-0.1-0.2-0.2-0.5-0.2-0.9c-0.7,0.7-1.5,1.1-2.5,1.1c-0.9,0-1.6-0.2-2.1-0.7c-0.6-0.5-0.8-1.1-0.8-1.8
		c0-0.9,0.3-1.6,1-2.1c0.7-0.5,1.7-0.8,2.9-0.8h1.5V243c0-0.5-0.2-0.9-0.5-1.2c-0.3-0.3-0.8-0.5-1.4-0.5c-0.5,0-1,0.1-1.3,0.4
		c-0.4,0.3-0.5,0.6-0.5,1H145c0-0.4,0.2-0.9,0.5-1.3c0.3-0.4,0.7-0.7,1.3-1c0.5-0.2,1.1-0.4,1.7-0.4c1,0,1.8,0.3,2.4,0.8
		c0.6,0.5,0.9,1.2,0.9,2.1v4c0,0.8,0.1,1.4,0.3,1.9v0.1H150.5z M148,247.9c0.5,0,0.9-0.1,1.3-0.4s0.7-0.6,0.9-0.9v-1.8H149
		c-1.8,0-2.7,0.5-2.7,1.6c0,0.5,0.2,0.8,0.5,1.1S147.5,247.9,148,247.9z"/>
	<path d="M156.1,238.2v2.1h1.6v1.2h-1.6v5.4c0,0.3,0.1,0.6,0.2,0.8s0.4,0.3,0.7,0.3c0.2,0,0.4,0,0.7-0.1v1.2
		c-0.4,0.1-0.8,0.2-1.1,0.2c-0.7,0-1.2-0.2-1.5-0.6c-0.3-0.4-0.5-1-0.5-1.7v-5.4H153v-1.2h1.6v-2.1H156.1z"/>
	<path d="M102.3,260.1l0,1c0.6-0.8,1.5-1.1,2.6-1.1c1.2,0,2,0.5,2.5,1.4c0.3-0.4,0.7-0.8,1.1-1c0.5-0.3,1-0.4,1.6-0.4
		c1.9,0,2.9,1,2.9,3v5.8h-1.5V263c0-0.6-0.1-1.1-0.4-1.4c-0.3-0.3-0.8-0.5-1.4-0.5c-0.6,0-1,0.2-1.4,0.5c-0.4,0.3-0.6,0.8-0.6,1.3
		v5.8h-1.5v-5.7c0-1.3-0.6-1.9-1.9-1.9c-1,0-1.6,0.4-2,1.2v6.4h-1.5v-8.7H102.3z"/>
	<path d="M120.7,267.9c-0.6,0.7-1.4,1-2.6,1c-0.9,0-1.6-0.3-2.1-0.8c-0.5-0.5-0.7-1.3-0.7-2.4v-5.7h1.5v5.6c0,1.3,0.5,2,1.6,2
		c1.1,0,1.9-0.4,2.3-1.3v-6.3h1.5v8.7h-1.4L120.7,267.9z"/>
	<path d="M126.5,258v2.1h1.6v1.2h-1.6v5.4c0,0.3,0.1,0.6,0.2,0.8s0.4,0.3,0.7,0.3c0.2,0,0.4,0,0.7-0.1v1.2c-0.4,0.1-0.8,0.2-1.1,0.2
		c-0.7,0-1.2-0.2-1.5-0.6c-0.3-0.4-0.5-1-0.5-1.7v-5.4h-1.6v-1.2h1.6V258H126.5z"/>
	<path d="M131.3,261.1c0.7-0.8,1.5-1.2,2.6-1.2c1.8,0,2.8,1,2.8,3.1v5.8h-1.5V263c0-0.6-0.1-1.1-0.4-1.4c-0.3-0.3-0.7-0.5-1.3-0.5
		c-0.5,0-0.9,0.1-1.3,0.4c-0.4,0.3-0.7,0.6-0.9,1v6.2h-1.5v-12.4h1.5V261.1z"/>
	<path d="M142.5,269c-1.2,0-2.1-0.4-2.9-1.2c-0.7-0.8-1.1-1.8-1.1-3.1v-0.3c0-0.9,0.2-1.6,0.5-2.3c0.3-0.7,0.8-1.2,1.4-1.6
		c0.6-0.4,1.2-0.6,1.9-0.6c1.1,0,2,0.4,2.6,1.1c0.6,0.7,0.9,1.8,0.9,3.2v0.6H140c0,0.9,0.3,1.6,0.8,2.1c0.5,0.5,1.1,0.8,1.8,0.8
		c0.5,0,1-0.1,1.3-0.3c0.4-0.2,0.7-0.5,1-0.9l0.9,0.7C145.1,268.4,144,269,142.5,269z M142.3,261.1c-0.6,0-1.1,0.2-1.5,0.7
		c-0.4,0.4-0.7,1.1-0.8,1.8h4.4v-0.1c0-0.8-0.2-1.3-0.6-1.8C143.5,261.4,143,261.1,142.3,261.1z"/>
	<path d="M152.7,266.5c0-0.4-0.2-0.7-0.5-0.9c-0.3-0.2-0.8-0.4-1.6-0.6c-0.8-0.2-1.4-0.4-1.8-0.6c-0.4-0.2-0.8-0.5-1-0.8
		c-0.2-0.3-0.3-0.7-0.3-1.1c0-0.7,0.3-1.3,0.9-1.8c0.6-0.5,1.4-0.7,2.3-0.7c1,0,1.8,0.3,2.4,0.8c0.6,0.5,0.9,1.2,0.9,2h-1.5
		c0-0.4-0.2-0.8-0.5-1.1c-0.3-0.3-0.8-0.4-1.3-0.4c-0.5,0-1,0.1-1.3,0.4s-0.5,0.5-0.5,0.9c0,0.4,0.1,0.6,0.4,0.8s0.8,0.4,1.5,0.5
		c0.7,0.2,1.3,0.4,1.8,0.6c0.5,0.2,0.8,0.5,1,0.8c0.2,0.3,0.3,0.7,0.3,1.2c0,0.8-0.3,1.4-0.9,1.9c-0.6,0.5-1.4,0.7-2.4,0.7
		c-0.7,0-1.3-0.1-1.9-0.4s-1-0.6-1.3-1c-0.3-0.4-0.5-0.9-0.5-1.4h1.5c0,0.5,0.2,0.9,0.6,1.2c0.4,0.3,0.9,0.4,1.5,0.4
		c0.6,0,1-0.1,1.4-0.3C152.6,267.2,152.7,266.9,152.7,266.5z"/>
	<path d="M156.2,257.8c0-0.2,0.1-0.4,0.2-0.6c0.1-0.2,0.4-0.3,0.7-0.3s0.5,0.1,0.7,0.3s0.2,0.4,0.2,0.6c0,0.2-0.1,0.4-0.2,0.6
		s-0.4,0.2-0.7,0.2s-0.5-0.1-0.7-0.2C156.2,258.2,156.2,258,156.2,257.8z M157.8,268.8h-1.5v-8.7h1.5V268.8z"/>
	<path d="M165.5,267.9c-0.6,0.7-1.4,1-2.6,1c-0.9,0-1.6-0.3-2.1-0.8c-0.5-0.5-0.7-1.3-0.7-2.4v-5.7h1.5v5.6c0,1.3,0.5,2,1.6,2
		c1.1,0,1.9-0.4,2.3-1.3v-6.3h1.5v8.7h-1.4L165.5,267.9z"/>
	<path d="M174.3,266.5c0-0.4-0.2-0.7-0.5-0.9c-0.3-0.2-0.8-0.4-1.6-0.6c-0.8-0.2-1.4-0.4-1.8-0.6c-0.4-0.2-0.8-0.5-1-0.8
		c-0.2-0.3-0.3-0.7-0.3-1.1c0-0.7,0.3-1.3,0.9-1.8c0.6-0.5,1.4-0.7,2.3-0.7c1,0,1.8,0.3,2.4,0.8c0.6,0.5,0.9,1.2,0.9,2h-1.5
		c0-0.4-0.2-0.8-0.5-1.1c-0.3-0.3-0.8-0.4-1.3-0.4c-0.5,0-1,0.1-1.3,0.4s-0.5,0.5-0.5,0.9c0,0.4,0.1,0.6,0.4,0.8s0.8,0.4,1.5,0.5
		c0.7,0.2,1.3,0.4,1.8,0.6c0.5,0.2,0.8,0.5,1,0.8c0.2,0.3,0.3,0.7,0.3,1.2c0,0.8-0.3,1.4-0.9,1.9c-0.6,0.5-1.4,0.7-2.4,0.7
		c-0.7,0-1.3-0.1-1.9-0.4s-1-0.6-1.3-1c-0.3-0.4-0.5-0.9-0.5-1.4h1.5c0,0.5,0.2,0.9,0.6,1.2c0.4,0.3,0.9,0.4,1.5,0.4
		c0.6,0,1-0.1,1.4-0.3C174.2,267.2,174.3,266.9,174.3,266.5z"/>
</g>
<g>
	<path d="M474.6,959.4l1.7-6.7h1.5l-2.5,8.7H474l-2.1-6.6l-2.1,6.6h-1.2l-2.5-8.7h1.5l1.7,6.5l2-6.5h1.2L474.6,959.4z"/>
	<path d="M482.9,961.7c-1.2,0-2.1-0.4-2.9-1.2s-1.1-1.8-1.1-3.1v-0.3c0-0.9,0.2-1.6,0.5-2.3c0.3-0.7,0.8-1.2,1.4-1.6
		c0.6-0.4,1.2-0.6,1.9-0.6c1.1,0,2,0.4,2.6,1.1c0.6,0.7,0.9,1.8,0.9,3.2v0.6h-5.9c0,0.9,0.3,1.6,0.8,2.1c0.5,0.5,1.1,0.8,1.8,0.8
		c0.5,0,1-0.1,1.3-0.3s0.7-0.5,1-0.9l0.9,0.7C485.5,961.1,484.4,961.7,482.9,961.7z M482.7,953.8c-0.6,0-1.1,0.2-1.5,0.7
		s-0.7,1.1-0.8,1.8h4.4v-0.1c0-0.8-0.2-1.3-0.6-1.8C483.8,954.1,483.3,953.8,482.7,953.8z"/>
	<path d="M489.6,961.5h-1.5v-12.4h1.5V961.5z"/>
	<path d="M493.6,961.5h-1.5v-12.4h1.5V961.5z"/>
	<path d="M468.5,981.3H467v-12.4h1.5V981.3z"/>
	<path d="M470.9,970.3c0-0.2,0.1-0.4,0.2-0.6c0.1-0.2,0.4-0.3,0.7-0.3c0.3,0,0.5,0.1,0.7,0.3c0.2,0.2,0.2,0.4,0.2,0.6
		c0,0.2-0.1,0.4-0.2,0.6c-0.2,0.2-0.4,0.2-0.7,0.2c-0.3,0-0.5-0.1-0.7-0.2C471,970.7,470.9,970.5,470.9,970.3z M472.5,981.3H471
		v-8.7h1.5V981.3z"/>
	<path d="M477.8,979.3l2.2-6.7h1.5l-3.1,8.7h-1.1l-3.2-8.7h1.5L477.8,979.3z"/>
	<path d="M482.9,970.3c0-0.2,0.1-0.4,0.2-0.6c0.1-0.2,0.4-0.3,0.7-0.3c0.3,0,0.5,0.1,0.7,0.3c0.2,0.2,0.2,0.4,0.2,0.6
		c0,0.2-0.1,0.4-0.2,0.6c-0.2,0.2-0.4,0.2-0.7,0.2c-0.3,0-0.5-0.1-0.7-0.2C483,970.7,482.9,970.5,482.9,970.3z M484.5,981.3H483
		v-8.7h1.5V981.3z"/>
	<path d="M488.3,972.6l0,1.1c0.7-0.8,1.5-1.3,2.6-1.3c1.8,0,2.8,1,2.8,3.1v5.8h-1.5v-5.8c0-0.6-0.1-1.1-0.4-1.4s-0.7-0.5-1.3-0.5
		c-0.5,0-0.9,0.1-1.3,0.4s-0.7,0.6-0.9,1v6.2h-1.5v-8.7H488.3z"/>
	<path d="M495.6,976.9c0-1.4,0.3-2.4,0.9-3.2c0.6-0.8,1.5-1.2,2.5-1.2c1.1,0,1.9,0.4,2.5,1.1l0.1-1h1.4v8.5c0,1.1-0.3,2-1,2.7
		c-0.7,0.7-1.6,1-2.7,1c-0.6,0-1.2-0.1-1.8-0.4s-1.1-0.6-1.4-1.1l0.8-0.9c0.6,0.8,1.4,1.2,2.3,1.2c0.7,0,1.3-0.2,1.7-0.6
		s0.6-1,0.6-1.7v-0.7c-0.6,0.7-1.4,1-2.4,1c-1,0-1.8-0.4-2.5-1.2C495.9,979.4,495.6,978.3,495.6,976.9z M497.1,977
		c0,1,0.2,1.8,0.6,2.3c0.4,0.6,1,0.8,1.7,0.8c0.9,0,1.6-0.4,2.1-1.3v-4c-0.5-0.8-1.1-1.2-2.1-1.2c-0.7,0-1.3,0.3-1.7,0.8
		C497.3,975.1,497.1,975.9,497.1,977z"/>
</g>
<g>
	<path d="M113.8,226.5H104v-1.4l5.2-5.7c0.8-0.9,1.3-1.6,1.6-2.1c0.3-0.5,0.4-1.1,0.4-1.7c0-0.8-0.2-1.4-0.7-1.9s-1.1-0.7-1.9-0.7
		c-0.9,0-1.7,0.3-2.2,0.8c-0.5,0.5-0.8,1.3-0.8,2.2h-1.9c0-1.4,0.4-2.5,1.3-3.3s2.1-1.3,3.6-1.3c1.4,0,2.5,0.4,3.3,1.1
		c0.8,0.7,1.2,1.7,1.2,2.9c0,1.5-0.9,3.2-2.8,5.3l-4,4.3h7.5V226.5z"/>
	<path d="M125.1,220.1c0,2.2-0.4,3.9-1.1,5s-1.9,1.6-3.6,1.6c-1.6,0-2.8-0.5-3.5-1.6c-0.8-1.1-1.2-2.6-1.2-4.7v-2.5
		c0-2.2,0.4-3.8,1.1-4.9s1.9-1.6,3.6-1.6c1.6,0,2.8,0.5,3.5,1.5c0.8,1,1.1,2.6,1.2,4.8V220.1z M123.2,217.5c0-1.6-0.2-2.8-0.7-3.5
		s-1.2-1.1-2.1-1.1c-1,0-1.7,0.4-2.1,1.1s-0.7,1.9-0.7,3.4v3c0,1.6,0.2,2.8,0.7,3.6c0.5,0.8,1.2,1.2,2.1,1.2c0.9,0,1.6-0.4,2.1-1.1
		c0.5-0.7,0.7-1.9,0.7-3.4V217.5z"/>
	<path d="M133.8,226.5h-1.9v-12.6l-3.8,1.4v-1.7l5.4-2h0.3V226.5z"/>
	<path d="M140.2,219l0.8-7.4h7.6v1.8h-6l-0.5,4.1c0.7-0.4,1.6-0.6,2.5-0.6c1.4,0,2.4,0.4,3.2,1.3c0.8,0.9,1.2,2.1,1.2,3.6
		c0,1.5-0.4,2.8-1.2,3.6c-0.8,0.9-2,1.3-3.5,1.3c-1.3,0-2.4-0.4-3.2-1.1s-1.3-1.7-1.4-3h1.8c0.1,0.9,0.4,1.5,0.9,1.9
		s1.1,0.7,1.9,0.7c0.9,0,1.6-0.3,2.1-0.9c0.5-0.6,0.8-1.4,0.8-2.5c0-1-0.3-1.8-0.8-2.4c-0.5-0.6-1.3-0.9-2.2-0.9
		c-0.8,0-1.5,0.2-1.9,0.5l-0.5,0.4L140.2,219z"/>
</g>
<g>
	<path d="M476.2,939h-1.9v-12.6l-3.8,1.4V926l5.4-2h0.3V939z"/>
	<path d="M489.1,932.4c-0.4,0.5-0.9,0.9-1.4,1.1c-0.6,0.3-1.2,0.4-1.8,0.4c-0.9,0-1.6-0.2-2.3-0.6c-0.6-0.4-1.1-1-1.5-1.8
		c-0.3-0.8-0.5-1.6-0.5-2.5c0-1,0.2-1.9,0.6-2.7c0.4-0.8,0.9-1.4,1.6-1.8s1.5-0.6,2.4-0.6c1.5,0,2.6,0.6,3.5,1.7
		c0.9,1.1,1.3,2.6,1.3,4.5v0.6c0,2.9-0.6,5-1.7,6.4c-1.1,1.3-2.9,2-5.2,2.1h-0.4v-1.6h0.4c1.6,0,2.8-0.4,3.6-1.2
		S489,934.1,489.1,932.4z M486.1,932.4c0.6,0,1.2-0.2,1.8-0.6c0.5-0.4,0.9-0.9,1.2-1.4v-0.8c0-1.2-0.3-2.3-0.8-3s-1.2-1.2-2.1-1.2
		c-0.8,0-1.5,0.3-2,1c-0.5,0.6-0.8,1.5-0.8,2.5c0,1,0.2,1.9,0.7,2.5C484.7,932.1,485.3,932.4,486.1,932.4z"/>
	<path d="M500.8,932.4c-0.4,0.5-0.9,0.9-1.4,1.1c-0.6,0.3-1.2,0.4-1.8,0.4c-0.9,0-1.6-0.2-2.3-0.6c-0.6-0.4-1.1-1-1.5-1.8
		c-0.3-0.8-0.5-1.6-0.5-2.5c0-1,0.2-1.9,0.6-2.7c0.4-0.8,0.9-1.4,1.6-1.8s1.5-0.6,2.4-0.6c1.5,0,2.6,0.6,3.5,1.7
		c0.9,1.1,1.3,2.6,1.3,4.5v0.6c0,2.9-0.6,5-1.7,6.4c-1.1,1.3-2.9,2-5.2,2.1h-0.4v-1.6h0.4c1.6,0,2.8-0.4,3.6-1.2
		S500.8,934.1,500.8,932.4z M497.9,932.4c0.6,0,1.2-0.2,1.8-0.6c0.5-0.4,0.9-0.9,1.2-1.4v-0.8c0-1.2-0.3-2.3-0.8-3s-1.2-1.2-2.1-1.2
		c-0.8,0-1.5,0.3-2,1c-0.5,0.6-0.8,1.5-0.8,2.5c0,1,0.2,1.9,0.7,2.5C496.4,932.1,497.1,932.4,497.9,932.4z"/>
	<path d="M512.8,924.1v1.6h-0.3c-1.5,0-2.7,0.5-3.5,1.3s-1.4,2-1.5,3.6c0.8-0.9,1.9-1.4,3.2-1.4c1.3,0,2.3,0.5,3.1,1.4
		c0.8,0.9,1.2,2.1,1.2,3.5c0,1.5-0.4,2.8-1.3,3.7c-0.8,0.9-2,1.4-3.4,1.4c-1.4,0-2.6-0.5-3.5-1.6c-0.9-1.1-1.3-2.5-1.3-4.2v-0.7
		c0-2.7,0.6-4.8,1.8-6.3c1.2-1.5,2.9-2.2,5.2-2.2H512.8z M510.3,930.8c-0.6,0-1.2,0.2-1.8,0.6s-0.9,0.9-1.1,1.5v0.7
		c0,1.2,0.3,2.2,0.8,3c0.6,0.8,1.2,1.1,2.1,1.1c0.9,0,1.5-0.3,2-0.9c0.5-0.6,0.7-1.5,0.7-2.5c0-1-0.2-1.9-0.7-2.5
		C511.8,931.1,511.1,930.8,510.3,930.8z"/>
</g>
</svg>
