<?xml version="1.0" encoding="utf-8"?>
<!-- Generator: Adobe Illustrator 22.1.0, SVG Export Plug-In . SVG Version: 6.00 Build 0)  -->
<svg version="1.1" xmlns="http://www.w3.org/2000/svg" xmlns:xlink="http://www.w3.org/1999/xlink" x="0px" y="0px"
	 viewBox="0 0 1920 1080" style="enable-background:new 0 0 1920 1080;" xml:space="preserve">
<style type="text/css">
	.st0{display:none;}
	.st1{fill:none;stroke:#1D1D1B;stroke-width:1.5;stroke-miterlimit:10;}
	.st2{fill:none;stroke:#1D1D1B;stroke-width:1.5;stroke-miterlimit:10;stroke-dasharray:5,5;}
	.st3{fill:none;stroke:#1D1D1B;stroke-width:1.5;stroke-miterlimit:10;stroke-dasharray:5;}
</style>
<g id="Ebene_2" class="st0">
	
		<image style="display:inline;overflow:visible;" width="3840" height="2160" xlink:href="meine wenigkeit/01.jpg"  transform="matrix(0.5 0 0 0.5 0 0)">
	</image>
</g>
<g id="Ebene_1">
	<polyline class="st1" points="375.3,708.5 337.8,708.5 337.8,671 337.8,633.5 337.8,596 337.8,558.5 337.8,521 337.8,483.5 
		337.8,446 337.8,408.5 337.8,371 337.8,333.5 337.8,296 337.8,258.5 375.3,258.5 	"/>
	<polyline class="st1" points="283.8,333.5 246.3,333.5 246.3,296 283.8,296 	"/>
	<polyline class="st1" points="178.3,183.5 140.8,183.5 140.8,146 140.8,108.5 140.8,71 	"/>
	<polyline class="st1" points="578.3,896 540.8,896 540.8,858.5 540.8,821 540.8,783.5 540.8,746 540.8,708.5 540.8,671 
		540.8,633.5 540.8,596 540.8,558.5 540.8,521 540.8,483.5 540.8,446 540.8,408.5 540.8,371 540.8,333.5 540.8,296 540.8,258.5 
		540.8,221 540.8,183.5 540.8,146 540.8,108.5 540.8,71 	"/>
	<polyline class="st1" points="476.8,783.5 439.3,783.5 439.3,746 439.3,708.5 439.3,671 439.3,633.5 439.3,596 439.3,558.5 
		439.3,521 439.3,483.5 439.3,446 439.3,408.5 439.3,371 439.3,333.5 439.3,296 439.3,258.5 439.3,221 439.3,183.5 476.8,183.5 	"/>
	<g>
		<path d="M452.2,779h-9.9l0.3-2.2l5.3-5c1.1-1,1.8-1.8,2.2-2.5c0.4-0.6,0.5-1.3,0.4-1.9c-0.1-0.8-0.6-1.3-1.5-1.3
			c-0.7,0-1.2,0.2-1.6,0.7c-0.4,0.5-0.7,1.1-0.8,1.9l-2.9,0c0.1-0.9,0.3-1.8,0.8-2.5s1.2-1.3,2-1.8c0.8-0.4,1.7-0.6,2.7-0.6
			c1.4,0,2.5,0.4,3.2,1.2c0.8,0.8,1.1,1.8,1,3c-0.1,1.4-0.9,2.9-2.5,4.4l-1.5,1.4l-3.1,2.7l6.2,0L452.2,779z"/>
		<path d="M459,779.2c-1.3,0-2.3-0.5-3-1.3s-1.1-2-1.1-3.5c0-0.5,0-1,0.1-1.5l0.4-2.8c0.3-2,1-3.6,2-4.6c1-1.1,2.2-1.6,3.8-1.5
			c1.3,0,2.3,0.5,3,1.3c0.7,0.8,1.1,2,1.1,3.5c0,0.5,0,1-0.1,1.5l-0.4,2.8c-0.3,2.1-1,3.6-2,4.7C461.8,778.7,460.6,779.2,459,779.2z
			 M462.5,768.4c0-1.4-0.5-2.1-1.4-2.1c-1.4-0.1-2.3,1-2.6,3.2l-0.5,3.5c-0.1,0.7-0.2,1.3-0.2,1.8c0,1.4,0.4,2.1,1.4,2.1
			c1.4,0.1,2.3-1,2.6-3.2l0.5-3.6C462.4,769.3,462.5,768.8,462.5,768.4z"/>
		<path d="M470.8,779.2c-1.3,0-2.3-0.5-3-1.3s-1.1-2-1.1-3.5c0-0.5,0-1,0.1-1.5l0.4-2.8c0.3-2,1-3.6,2-4.6c1-1.1,2.2-1.6,3.8-1.5
			c1.3,0,2.3,0.5,3,1.3c0.7,0.8,1.1,2,1.1,3.5c0,0.5,0,1-0.1,1.5l-0.4,2.8c-0.3,2.1-1,3.6-2,4.7
			C473.6,778.7,472.4,779.2,470.8,779.2z M474.3,768.4c0-1.4-0.5-2.1-1.4-2.1c-1.4-0.1-2.3,1-2.6,3.2l-0.5,3.5
			c-0.1,0.7-0.2,1.3-0.2,1.8c0,1.4,0.4,2.1,1.4,2.1c1.4,0.1,2.3-1,2.6-3.2l0.5-3.6C474.2,769.3,474.3,768.8,474.3,768.4z"/>
		<path d="M482.6,779.2c-1.3,0-2.3-0.5-3-1.3s-1.1-2-1.1-3.5c0-0.5,0-1,0.1-1.5l0.4-2.8c0.3-2,1-3.6,2-4.6c1-1.1,2.2-1.6,3.8-1.5
			c1.3,0,2.3,0.5,3,1.3c0.7,0.8,1.1,2,1.1,3.5c0,0.5,0,1-0.1,1.5l-0.4,2.8c-0.3,2.1-1,3.6-2,4.7
			C485.4,778.7,484.1,779.2,482.6,779.2z M486.1,768.4c0-1.4-0.5-2.1-1.4-2.1c-1.4-0.1-2.3,1-2.6,3.2l-0.5,3.5
			c-0.1,0.7-0.2,1.3-0.2,1.8c0,1.4,0.4,2.1,1.4,2.1c1.4,0.1,2.3-1,2.6-3.2l0.5-3.6C486,769.3,486.1,768.8,486.1,768.4z"/>
	</g>
	<g>
		<path d="M350.7,704h-9.9l0.3-2.2l5.3-5c1.1-1,1.8-1.8,2.2-2.5c0.4-0.6,0.5-1.3,0.4-1.9c-0.1-0.8-0.6-1.3-1.5-1.3
			c-0.7,0-1.2,0.2-1.6,0.7c-0.4,0.5-0.7,1.1-0.8,1.9l-2.9,0c0.1-0.9,0.3-1.8,0.8-2.5s1.2-1.3,2-1.8c0.8-0.4,1.7-0.6,2.7-0.6
			c1.4,0,2.5,0.4,3.2,1.2c0.8,0.8,1.1,1.8,1,3c-0.1,1.4-0.9,2.9-2.5,4.4l-1.5,1.4l-3.1,2.7l6.2,0L350.7,704z"/>
		<path d="M357.5,704.2c-1.3,0-2.3-0.5-3-1.3s-1.1-2-1.1-3.5c0-0.5,0-1,0.1-1.5l0.4-2.8c0.3-2,1-3.6,2-4.6c1-1.1,2.2-1.6,3.8-1.5
			c1.3,0,2.3,0.5,3,1.3c0.7,0.8,1.1,2,1.1,3.5c0,0.5,0,1-0.1,1.5l-0.4,2.8c-0.3,2.1-1,3.6-2,4.7
			C360.3,703.7,359.1,704.2,357.5,704.2z M361,693.4c0-1.4-0.5-2.1-1.4-2.1c-1.4-0.1-2.3,1-2.6,3.2l-0.5,3.5
			c-0.1,0.7-0.2,1.3-0.2,1.8c0,1.4,0.4,2.1,1.4,2.1c1.4,0.1,2.3-1,2.6-3.2l0.5-3.6C360.9,694.3,361,693.8,361,693.4z"/>
		<path d="M369.3,704.2c-1.3,0-2.3-0.5-3-1.3s-1.1-2-1.1-3.5c0-0.5,0-1,0.1-1.5l0.4-2.8c0.3-2,1-3.6,2-4.6c1-1.1,2.2-1.6,3.8-1.5
			c1.3,0,2.3,0.5,3,1.3c0.7,0.8,1.1,2,1.1,3.5c0,0.5,0,1-0.1,1.5l-0.4,2.8c-0.3,2.1-1,3.6-2,4.7
			C372.1,703.7,370.9,704.2,369.3,704.2z M372.8,693.4c0-1.4-0.5-2.1-1.4-2.1c-1.4-0.1-2.3,1-2.6,3.2l-0.5,3.5
			c-0.1,0.7-0.2,1.3-0.2,1.8c0,1.4,0.4,2.1,1.4,2.1c1.4,0.1,2.3-1,2.6-3.2l0.5-3.6C372.7,694.3,372.8,693.8,372.8,693.4z"/>
		<path d="M383,704h-2.9l2-11.4l-3.6,1.1l0.5-2.5l6.2-2.2l0.4,0L383,704z"/>
	</g>
	<g>
		<path d="M259.2,329h-9.9l0.3-2.2l5.3-5c1.1-1,1.8-1.8,2.2-2.5s0.5-1.3,0.4-1.9c-0.1-0.8-0.6-1.3-1.5-1.3c-0.7,0-1.2,0.2-1.6,0.7
			c-0.4,0.5-0.7,1.1-0.8,1.9l-2.9,0c0.1-0.9,0.3-1.8,0.8-2.5s1.2-1.3,2-1.8c0.8-0.4,1.7-0.6,2.7-0.6c1.4,0,2.5,0.4,3.2,1.2
			s1.1,1.8,1,3c-0.1,1.4-0.9,2.9-2.5,4.4l-1.5,1.4l-3.1,2.7l6.2,0L259.2,329z"/>
		<path d="M266,329.2c-1.3,0-2.3-0.5-3-1.3s-1.1-2-1.1-3.5c0-0.5,0-1,0.1-1.5l0.4-2.8c0.3-2,1-3.6,2-4.6s2.2-1.6,3.8-1.5
			c1.3,0,2.3,0.5,3,1.3c0.7,0.8,1.1,2,1.1,3.5c0,0.5,0,1-0.1,1.5l-0.4,2.8c-0.3,2.1-1,3.6-2,4.7C268.8,328.7,267.6,329.2,266,329.2z
			 M269.5,318.4c0-1.4-0.5-2.1-1.4-2.1c-1.4-0.1-2.3,1-2.6,3.2l-0.5,3.5c-0.1,0.7-0.2,1.3-0.2,1.8c0,1.4,0.4,2.1,1.4,2.1
			c1.4,0.1,2.3-1,2.6-3.2l0.5-3.6C269.4,319.3,269.5,318.8,269.5,318.4z"/>
		<path d="M279.7,329h-2.9l2-11.4l-3.6,1.1l0.5-2.5l6.2-2.2l0.4,0L279.7,329z"/>
		<path d="M294.6,329h-9.9l0.3-2.2l5.3-5c1.1-1,1.8-1.8,2.2-2.5s0.5-1.3,0.4-1.9c-0.1-0.8-0.6-1.3-1.5-1.3c-0.7,0-1.2,0.2-1.6,0.7
			c-0.4,0.5-0.7,1.1-0.8,1.9l-2.9,0c0.1-0.9,0.3-1.8,0.8-2.5s1.2-1.3,2-1.8c0.8-0.4,1.7-0.6,2.7-0.6c1.4,0,2.5,0.4,3.2,1.2
			s1.1,1.8,1,3c-0.1,1.4-0.9,2.9-2.5,4.4l-1.5,1.4l-3.1,2.7l6.2,0L294.6,329z"/>
	</g>
	<g>
		<path d="M78.4,65.8h-9.9l0.3-2.2l5.3-5c1.1-1,1.8-1.8,2.2-2.5s0.5-1.3,0.4-1.9c-0.1-0.8-0.6-1.3-1.5-1.3c-0.7,0-1.2,0.2-1.6,0.7
			c-0.4,0.5-0.7,1.1-0.8,1.9l-2.9,0c0.1-0.9,0.3-1.8,0.8-2.5s1.2-1.3,2-1.8c0.8-0.4,1.7-0.6,2.7-0.6c1.4,0,2.5,0.4,3.2,1.2
			s1.1,1.8,1,3c-0.1,1.4-0.9,2.9-2.5,4.4l-1.5,1.4l-3.1,2.7l6.2,0L78.4,65.8z"/>
		<path d="M85.2,66c-1.3,0-2.3-0.5-3-1.3s-1.1-2-1.1-3.5c0-0.5,0-1,0.1-1.5l0.4-2.8c0.3-2,1-3.6,2-4.6s2.2-1.6,3.8-1.5
			c1.3,0,2.3,0.5,3,1.3c0.7,0.8,1.1,2,1.1,3.5c0,0.5,0,1-0.1,1.5L91,59.8c-0.3,2.1-1,3.6-2,4.7C88.1,65.5,86.8,66,85.2,66z
			 M88.7,55.1c0-1.4-0.5-2.1-1.4-2.1c-1.4-0.1-2.3,1-2.6,3.2l-0.5,3.5C84,60.4,84,61,84,61.4c0,1.4,0.4,2.1,1.4,2.1
			c1.4,0.1,2.3-1,2.6-3.2l0.5-3.6C88.7,56.1,88.7,55.6,88.7,55.1z"/>
		<path d="M99,65.8h-2.9l2-11.4l-3.6,1.1l0.5-2.5l6.2-2.2l0.4,0L99,65.8z"/>
		<path d="M115.2,54.7c-0.1,1.5-1,2.6-2.6,3.4c0.6,0.4,1,0.9,1.3,1.5s0.4,1.2,0.4,1.9c-0.1,1.3-0.6,2.4-1.6,3.2s-2.3,1.2-3.8,1.2
			c-1.4,0-2.5-0.4-3.3-1.2c-0.8-0.8-1.2-1.8-1.1-3c0.1-1.7,1.1-2.9,2.9-3.8c-1-0.8-1.5-1.8-1.4-3.1c0-0.8,0.3-1.6,0.7-2.3
			s1.1-1.2,1.8-1.5s1.6-0.5,2.5-0.5c1.3,0,2.3,0.4,3.1,1.2C114.9,52.5,115.2,53.5,115.2,54.7z M111.4,61.4c0.1-0.6,0-1.1-0.3-1.5
			s-0.7-0.6-1.3-0.6c-0.6,0-1.2,0.2-1.6,0.6s-0.7,1-0.8,1.6c-0.1,0.6,0,1.1,0.3,1.4s0.7,0.6,1.3,0.6c0.6,0,1.2-0.2,1.6-0.6
			C111.1,62.6,111.3,62,111.4,61.4z M112.2,54.9c0.1-0.6,0-1-0.3-1.3s-0.6-0.5-1.1-0.5c-0.5,0-1,0.2-1.4,0.5s-0.6,0.9-0.7,1.5
			c-0.1,0.6,0,1,0.3,1.4c0.2,0.4,0.6,0.5,1.1,0.5c0.5,0,1-0.2,1.4-0.6S112.2,55.5,112.2,54.9z"/>
	</g>
	<g>
		<path d="M251.1,346.3c-1.3-0.4-2.3-0.9-2.9-1.4c-0.6-0.6-0.9-1.2-0.9-2.1c0-0.9,0.4-1.7,1.1-2.3c0.7-0.6,1.7-0.9,2.9-0.9
			c0.8,0,1.5,0.2,2.2,0.5c0.6,0.3,1.1,0.7,1.5,1.3c0.3,0.5,0.5,1.1,0.5,1.8h-1.6c0-0.7-0.2-1.3-0.7-1.7c-0.5-0.4-1.1-0.6-1.9-0.6
			c-0.8,0-1.4,0.2-1.8,0.5c-0.4,0.3-0.6,0.8-0.6,1.4c0,0.5,0.2,0.9,0.6,1.2c0.4,0.3,1.1,0.6,2.1,0.9c1,0.3,1.7,0.6,2.3,0.9
			c0.6,0.3,1,0.7,1.2,1.2c0.3,0.4,0.4,1,0.4,1.6c0,1-0.4,1.7-1.1,2.3c-0.7,0.6-1.7,0.9-3,0.9c-0.8,0-1.6-0.2-2.3-0.5
			c-0.7-0.3-1.2-0.7-1.6-1.3c-0.4-0.5-0.6-1.1-0.6-1.8h1.6c0,0.7,0.3,1.3,0.8,1.7c0.5,0.4,1.2,0.6,2.1,0.6c0.8,0,1.4-0.2,1.9-0.5
			c0.4-0.3,0.7-0.8,0.7-1.4s-0.2-1-0.6-1.3C252.9,346.9,252.1,346.6,251.1,346.3z"/>
		<path d="M260.8,351.7c-1.2,0-2.1-0.4-2.9-1.2c-0.7-0.8-1.1-1.8-1.1-3.1v-0.3c0-0.9,0.2-1.6,0.5-2.3c0.3-0.7,0.8-1.2,1.4-1.6
			c0.6-0.4,1.2-0.6,1.9-0.6c1.1,0,2,0.4,2.6,1.1c0.6,0.7,0.9,1.8,0.9,3.2v0.6h-5.9c0,0.9,0.3,1.6,0.8,2.1c0.5,0.5,1.1,0.8,1.8,0.8
			c0.5,0,1-0.1,1.3-0.3c0.4-0.2,0.7-0.5,1-0.9l0.9,0.7C263.3,351.1,262.2,351.7,260.8,351.7z M260.6,343.8c-0.6,0-1.1,0.2-1.5,0.7
			c-0.4,0.4-0.7,1.1-0.8,1.8h4.4v-0.1c0-0.8-0.2-1.3-0.6-1.8C261.7,344.1,261.2,343.8,260.6,343.8z"/>
		<path d="M267.3,342.8l0,1c0.6-0.8,1.5-1.1,2.6-1.1c1.2,0,2,0.5,2.5,1.4c0.3-0.4,0.7-0.8,1.1-1c0.5-0.3,1-0.4,1.6-0.4
			c1.9,0,2.9,1,2.9,3v5.8h-1.5v-5.8c0-0.6-0.1-1.1-0.4-1.4c-0.3-0.3-0.8-0.5-1.4-0.5c-0.6,0-1,0.2-1.4,0.5c-0.4,0.3-0.6,0.8-0.6,1.3
			v5.8h-1.5v-5.7c0-1.3-0.6-1.9-1.9-1.9c-1,0-1.6,0.4-2,1.2v6.4h-1.5v-8.7H267.3z"/>
		<path d="M284,351.7c-1.2,0-2.1-0.4-2.9-1.2c-0.7-0.8-1.1-1.8-1.1-3.1v-0.3c0-0.9,0.2-1.6,0.5-2.3c0.3-0.7,0.8-1.2,1.4-1.6
			c0.6-0.4,1.2-0.6,1.9-0.6c1.1,0,2,0.4,2.6,1.1c0.6,0.7,0.9,1.8,0.9,3.2v0.6h-5.9c0,0.9,0.3,1.6,0.8,2.1c0.5,0.5,1.1,0.8,1.8,0.8
			c0.5,0,1-0.1,1.3-0.3c0.4-0.2,0.7-0.5,1-0.9l0.9,0.7C286.5,351.1,285.4,351.7,284,351.7z M283.8,343.8c-0.6,0-1.1,0.2-1.5,0.7
			c-0.4,0.4-0.7,1.1-0.8,1.8h4.4v-0.1c0-0.8-0.2-1.3-0.6-1.8C284.9,344.1,284.4,343.8,283.8,343.8z"/>
		<path d="M294.2,349.2c0-0.4-0.2-0.7-0.5-0.9c-0.3-0.2-0.8-0.4-1.6-0.6c-0.8-0.2-1.4-0.4-1.8-0.6c-0.4-0.2-0.8-0.5-1-0.8
			c-0.2-0.3-0.3-0.7-0.3-1.1c0-0.7,0.3-1.3,0.9-1.8c0.6-0.5,1.4-0.7,2.3-0.7c1,0,1.8,0.3,2.4,0.8c0.6,0.5,0.9,1.2,0.9,2h-1.5
			c0-0.4-0.2-0.8-0.5-1.1c-0.3-0.3-0.8-0.4-1.3-0.4c-0.5,0-1,0.1-1.3,0.4s-0.5,0.5-0.5,0.9c0,0.4,0.1,0.6,0.4,0.8s0.8,0.4,1.5,0.5
			c0.7,0.2,1.3,0.4,1.8,0.6c0.5,0.2,0.8,0.5,1,0.8c0.2,0.3,0.3,0.7,0.3,1.2c0,0.8-0.3,1.4-0.9,1.9c-0.6,0.5-1.4,0.7-2.4,0.7
			c-0.7,0-1.3-0.1-1.9-0.4s-1-0.6-1.3-1c-0.3-0.4-0.5-0.9-0.5-1.4h1.5c0,0.5,0.2,0.9,0.6,1.2c0.4,0.3,0.9,0.4,1.5,0.4
			c0.6,0,1-0.1,1.4-0.3C294,349.9,294.2,349.6,294.2,349.2z"/>
		<path d="M299.6,340.7v2.1h1.6v1.2h-1.6v5.4c0,0.3,0.1,0.6,0.2,0.8s0.4,0.3,0.7,0.3c0.2,0,0.4,0,0.7-0.1v1.2
			c-0.4,0.1-0.8,0.2-1.1,0.2c-0.7,0-1.2-0.2-1.5-0.6c-0.3-0.4-0.5-1-0.5-1.7v-5.4h-1.6v-1.2h1.6v-2.1H299.6z"/>
		<path d="M306.6,351.7c-1.2,0-2.1-0.4-2.9-1.2c-0.7-0.8-1.1-1.8-1.1-3.1v-0.3c0-0.9,0.2-1.6,0.5-2.3c0.3-0.7,0.8-1.2,1.4-1.6
			c0.6-0.4,1.2-0.6,1.9-0.6c1.1,0,2,0.4,2.6,1.1c0.6,0.7,0.9,1.8,0.9,3.2v0.6h-5.9c0,0.9,0.3,1.6,0.8,2.1c0.5,0.5,1.1,0.8,1.8,0.8
			c0.5,0,1-0.1,1.3-0.3c0.4-0.2,0.7-0.5,1-0.9l0.9,0.7C309.2,351.1,308.1,351.7,306.6,351.7z M306.4,343.8c-0.6,0-1.1,0.2-1.5,0.7
			c-0.4,0.4-0.7,1.1-0.8,1.8h4.4v-0.1c0-0.8-0.2-1.3-0.6-1.8C307.6,344.1,307.1,343.8,306.4,343.8z"/>
		<path d="M316,344.1c-0.2,0-0.5-0.1-0.7-0.1c-1,0-1.6,0.4-2,1.2v6.2h-1.5v-8.7h1.5l0,1c0.5-0.8,1.2-1.2,2.1-1.2
			c0.3,0,0.5,0,0.7,0.1V344.1z"/>
		<path d="M247.4,360.3c0-0.2,0.1-0.4,0.2-0.6c0.1-0.2,0.4-0.3,0.7-0.3s0.5,0.1,0.7,0.3s0.2,0.4,0.2,0.6c0,0.2-0.1,0.4-0.2,0.6
			s-0.4,0.2-0.7,0.2s-0.5-0.1-0.7-0.2C247.5,360.7,247.4,360.5,247.4,360.3z M249,371.3h-1.5v-8.7h1.5V371.3z"/>
		<path d="M252.8,362.6l0,1.1c0.7-0.8,1.5-1.3,2.6-1.3c1.8,0,2.8,1,2.8,3.1v5.8h-1.5v-5.8c0-0.6-0.1-1.1-0.4-1.4
			c-0.3-0.3-0.7-0.5-1.3-0.5c-0.5,0-0.9,0.1-1.3,0.4c-0.4,0.3-0.7,0.6-0.9,1v6.2h-1.5v-8.7H252.8z"/>
		<path d="M255.7,380.6h-3.8v10.5h-1.5v-10.5h-3.8v-1.3h9.1V380.6z"/>
		<path d="M256,386.7c0-0.9,0.2-1.6,0.5-2.3c0.3-0.7,0.8-1.2,1.4-1.6c0.6-0.4,1.3-0.6,2.1-0.6c1.2,0,2.1,0.4,2.9,1.2
			c0.7,0.8,1.1,1.9,1.1,3.3v0.1c0,0.8-0.2,1.6-0.5,2.3c-0.3,0.7-0.8,1.2-1.4,1.6c-0.6,0.4-1.3,0.6-2.1,0.6c-1.2,0-2.1-0.4-2.9-1.2
			c-0.7-0.8-1.1-1.9-1.1-3.3V386.7z M257.5,386.8c0,1,0.2,1.7,0.7,2.3c0.4,0.6,1,0.9,1.8,0.9c0.8,0,1.4-0.3,1.8-0.9
			c0.4-0.6,0.7-1.4,0.7-2.5c0-1-0.2-1.7-0.7-2.3c-0.5-0.6-1.1-0.9-1.8-0.9c-0.7,0-1.3,0.3-1.8,0.9S257.5,385.7,257.5,386.8z"/>
		<path d="M270,383.7c-0.2,0-0.5-0.1-0.7-0.1c-1,0-1.6,0.4-2,1.2v6.2h-1.5v-8.7h1.5l0,1c0.5-0.8,1.2-1.2,2.1-1.2
			c0.3,0,0.5,0,0.7,0.1V383.7z"/>
		<path d="M270.9,386.7c0-0.9,0.2-1.6,0.5-2.3c0.3-0.7,0.8-1.2,1.4-1.6c0.6-0.4,1.3-0.6,2.1-0.6c1.2,0,2.1,0.4,2.9,1.2
			c0.7,0.8,1.1,1.9,1.1,3.3v0.1c0,0.8-0.2,1.6-0.5,2.3c-0.3,0.7-0.8,1.2-1.4,1.6c-0.6,0.4-1.3,0.6-2.1,0.6c-1.2,0-2.1-0.4-2.9-1.2
			c-0.7-0.8-1.1-1.9-1.1-3.3V386.7z M272.4,386.8c0,1,0.2,1.7,0.7,2.3c0.4,0.6,1,0.9,1.8,0.9c0.8,0,1.4-0.3,1.8-0.9
			c0.4-0.6,0.7-1.4,0.7-2.5c0-1-0.2-1.7-0.7-2.3c-0.5-0.6-1.1-0.9-1.8-0.9c-0.7,0-1.3,0.3-1.8,0.9S272.4,385.7,272.4,386.8z"/>
		<path d="M282.1,382.4l0,1.1c0.7-0.8,1.5-1.3,2.6-1.3c1.8,0,2.8,1,2.8,3.1v5.8H286v-5.8c0-0.6-0.1-1.1-0.4-1.4
			c-0.3-0.3-0.7-0.5-1.3-0.5c-0.5,0-0.9,0.1-1.3,0.4c-0.4,0.3-0.7,0.6-0.9,1v6.2h-1.5v-8.7H282.1z"/>
		<path d="M291.8,380.3v2.1h1.6v1.2h-1.6v5.4c0,0.3,0.1,0.6,0.2,0.8s0.4,0.3,0.7,0.3c0.2,0,0.4,0,0.7-0.1v1.2
			c-0.4,0.1-0.8,0.2-1.1,0.2c-0.7,0-1.2-0.2-1.5-0.6c-0.3-0.4-0.5-1-0.5-1.7v-5.4h-1.6v-1.2h1.6v-2.1H291.8z"/>
		<path d="M294.6,386.7c0-0.9,0.2-1.6,0.5-2.3c0.3-0.7,0.8-1.2,1.4-1.6c0.6-0.4,1.3-0.6,2.1-0.6c1.2,0,2.1,0.4,2.9,1.2
			c0.7,0.8,1.1,1.9,1.1,3.3v0.1c0,0.8-0.2,1.6-0.5,2.3c-0.3,0.7-0.8,1.2-1.4,1.6c-0.6,0.4-1.3,0.6-2.1,0.6c-1.2,0-2.1-0.4-2.9-1.2
			c-0.7-0.8-1.1-1.9-1.1-3.3V386.7z M296.1,386.8c0,1,0.2,1.7,0.7,2.3c0.4,0.6,1,0.9,1.8,0.9c0.8,0,1.4-0.3,1.8-0.9
			c0.4-0.6,0.7-1.4,0.7-2.5c0-1-0.2-1.7-0.7-2.3c-0.5-0.6-1.1-0.9-1.8-0.9c-0.7,0-1.3,0.3-1.8,0.9S296.1,385.7,296.1,386.8z"/>
		<path d="M304.7,392.1h-1.3l4.9-12.7h1.3L304.7,392.1z"/>
		<path d="M252.5,408.6c0-0.4-0.2-0.7-0.5-0.9c-0.3-0.2-0.8-0.4-1.6-0.6c-0.8-0.2-1.4-0.4-1.8-0.6c-0.4-0.2-0.8-0.5-1-0.8
			c-0.2-0.3-0.3-0.7-0.3-1.1c0-0.7,0.3-1.3,0.9-1.8c0.6-0.5,1.4-0.7,2.3-0.7c1,0,1.8,0.3,2.4,0.8c0.6,0.5,0.9,1.2,0.9,2h-1.5
			c0-0.4-0.2-0.8-0.5-1.1c-0.3-0.3-0.8-0.4-1.3-0.4c-0.5,0-1,0.1-1.3,0.4s-0.5,0.5-0.5,0.9c0,0.4,0.1,0.6,0.4,0.8s0.8,0.4,1.5,0.5
			c0.7,0.2,1.3,0.4,1.8,0.6c0.5,0.2,0.8,0.5,1,0.8c0.2,0.3,0.3,0.7,0.3,1.2c0,0.8-0.3,1.4-0.9,1.9c-0.6,0.5-1.4,0.7-2.4,0.7
			c-0.7,0-1.3-0.1-1.9-0.4s-1-0.6-1.3-1c-0.3-0.4-0.5-0.9-0.5-1.4h1.5c0,0.5,0.2,0.9,0.6,1.2c0.4,0.3,0.9,0.4,1.5,0.4
			c0.6,0,1-0.1,1.4-0.3C252.3,409.3,252.5,409,252.5,408.6z"/>
		<path d="M259.5,411.1c-1.2,0-2.1-0.4-2.9-1.2c-0.7-0.8-1.1-1.8-1.1-3.1v-0.3c0-0.9,0.2-1.6,0.5-2.3c0.3-0.7,0.8-1.2,1.4-1.6
			c0.6-0.4,1.2-0.6,1.9-0.6c1.1,0,2,0.4,2.6,1.1c0.6,0.7,0.9,1.8,0.9,3.2v0.6H257c0,0.9,0.3,1.6,0.8,2.1c0.5,0.5,1.1,0.8,1.8,0.8
			c0.5,0,1-0.1,1.3-0.3c0.4-0.2,0.7-0.5,1-0.9l0.9,0.7C262.1,410.5,261,411.1,259.5,411.1z M259.3,403.2c-0.6,0-1.1,0.2-1.5,0.7
			c-0.4,0.4-0.7,1.1-0.8,1.8h4.4v-0.1c0-0.8-0.2-1.3-0.6-1.8C260.4,403.5,259.9,403.2,259.3,403.2z"/>
		<path d="M266,402.2l0,1c0.6-0.8,1.5-1.1,2.6-1.1c1.2,0,2,0.5,2.5,1.4c0.3-0.4,0.7-0.8,1.1-1c0.5-0.3,1-0.4,1.6-0.4
			c1.9,0,2.9,1,2.9,3v5.8h-1.5v-5.8c0-0.6-0.1-1.1-0.4-1.4c-0.3-0.3-0.8-0.5-1.4-0.5c-0.6,0-1,0.2-1.4,0.5c-0.4,0.3-0.6,0.8-0.6,1.3
			v5.8H270v-5.7c0-1.3-0.6-1.9-1.9-1.9c-1,0-1.6,0.4-2,1.2v6.4h-1.5v-8.7H266z"/>
		<path d="M282.7,411.1c-1.2,0-2.1-0.4-2.9-1.2c-0.7-0.8-1.1-1.8-1.1-3.1v-0.3c0-0.9,0.2-1.6,0.5-2.3c0.3-0.7,0.8-1.2,1.4-1.6
			c0.6-0.4,1.2-0.6,1.9-0.6c1.1,0,2,0.4,2.6,1.1c0.6,0.7,0.9,1.8,0.9,3.2v0.6h-5.9c0,0.9,0.3,1.6,0.8,2.1c0.5,0.5,1.1,0.8,1.8,0.8
			c0.5,0,1-0.1,1.3-0.3c0.4-0.2,0.7-0.5,1-0.9l0.9,0.7C285.3,410.5,284.2,411.1,282.7,411.1z M282.5,403.2c-0.6,0-1.1,0.2-1.5,0.7
			c-0.4,0.4-0.7,1.1-0.8,1.8h4.4v-0.1c0-0.8-0.2-1.3-0.6-1.8C283.6,403.5,283.1,403.2,282.5,403.2z"/>
		<path d="M292.9,408.6c0-0.4-0.2-0.7-0.5-0.9c-0.3-0.2-0.8-0.4-1.6-0.6c-0.8-0.2-1.4-0.4-1.8-0.6c-0.4-0.2-0.8-0.5-1-0.8
			c-0.2-0.3-0.3-0.7-0.3-1.1c0-0.7,0.3-1.3,0.9-1.8c0.6-0.5,1.4-0.7,2.3-0.7c1,0,1.8,0.3,2.4,0.8c0.6,0.5,0.9,1.2,0.9,2h-1.5
			c0-0.4-0.2-0.8-0.5-1.1c-0.3-0.3-0.8-0.4-1.3-0.4c-0.5,0-1,0.1-1.3,0.4s-0.5,0.5-0.5,0.9c0,0.4,0.1,0.6,0.4,0.8s0.8,0.4,1.5,0.5
			c0.7,0.2,1.3,0.4,1.8,0.6c0.5,0.2,0.8,0.5,1,0.8c0.2,0.3,0.3,0.7,0.3,1.2c0,0.8-0.3,1.4-0.9,1.9c-0.6,0.5-1.4,0.7-2.4,0.7
			c-0.7,0-1.3-0.1-1.9-0.4s-1-0.6-1.3-1c-0.3-0.4-0.5-0.9-0.5-1.4h1.5c0,0.5,0.2,0.9,0.6,1.2c0.4,0.3,0.9,0.4,1.5,0.4
			c0.6,0,1-0.1,1.4-0.3C292.7,409.3,292.9,409,292.9,408.6z"/>
		<path d="M298.4,400.1v2.1h1.6v1.2h-1.6v5.4c0,0.3,0.1,0.6,0.2,0.8s0.4,0.3,0.7,0.3c0.2,0,0.4,0,0.7-0.1v1.2
			c-0.4,0.1-0.8,0.2-1.1,0.2c-0.7,0-1.2-0.2-1.5-0.6c-0.3-0.4-0.5-1-0.5-1.7v-5.4h-1.6v-1.2h1.6v-2.1H298.4z"/>
		<path d="M305.3,411.1c-1.2,0-2.1-0.4-2.9-1.2c-0.7-0.8-1.1-1.8-1.1-3.1v-0.3c0-0.9,0.2-1.6,0.5-2.3c0.3-0.7,0.8-1.2,1.4-1.6
			c0.6-0.4,1.2-0.6,1.9-0.6c1.1,0,2,0.4,2.6,1.1c0.6,0.7,0.9,1.8,0.9,3.2v0.6h-5.9c0,0.9,0.3,1.6,0.8,2.1c0.5,0.5,1.1,0.8,1.8,0.8
			c0.5,0,1-0.1,1.3-0.3c0.4-0.2,0.7-0.5,1-0.9l0.9,0.7C307.9,410.5,306.8,411.1,305.3,411.1z M305.2,403.2c-0.6,0-1.1,0.2-1.5,0.7
			c-0.4,0.4-0.7,1.1-0.8,1.8h4.4v-0.1c0-0.8-0.2-1.3-0.6-1.8C306.3,403.5,305.8,403.2,305.2,403.2z"/>
		<path d="M314.7,403.5c-0.2,0-0.5-0.1-0.7-0.1c-1,0-1.6,0.4-2,1.2v6.2h-1.5v-8.7h1.5l0,1c0.5-0.8,1.2-1.2,2.1-1.2
			c0.3,0,0.5,0,0.7,0.1V403.5z"/>
		<path d="M247.4,419.7c0-0.2,0.1-0.4,0.2-0.6c0.1-0.2,0.4-0.3,0.7-0.3s0.5,0.1,0.7,0.3s0.2,0.4,0.2,0.6c0,0.2-0.1,0.4-0.2,0.6
			s-0.4,0.2-0.7,0.2s-0.5-0.1-0.7-0.2C247.5,420.1,247.4,419.9,247.4,419.7z M249,430.7h-1.5V422h1.5V430.7z"/>
		<path d="M252.8,422l0,1.1c0.7-0.8,1.5-1.3,2.6-1.3c1.8,0,2.8,1,2.8,3.1v5.8h-1.5v-5.8c0-0.6-0.1-1.1-0.4-1.4
			c-0.3-0.3-0.7-0.5-1.3-0.5c-0.5,0-0.9,0.1-1.3,0.4c-0.4,0.3-0.7,0.6-0.9,1v6.2h-1.5V422H252.8z"/>
		<path d="M249.4,439.7v2.1h1.6v1.2h-1.6v5.4c0,0.3,0.1,0.6,0.2,0.8s0.4,0.3,0.7,0.3c0.2,0,0.4,0,0.7-0.1v1.2
			c-0.4,0.1-0.8,0.2-1.1,0.2c-0.7,0-1.2-0.2-1.5-0.6c-0.3-0.4-0.5-1-0.5-1.7v-5.4h-1.6v-1.2h1.6v-2.1H249.4z"/>
		<path d="M252.2,446.1c0-0.9,0.2-1.6,0.5-2.3c0.3-0.7,0.8-1.2,1.4-1.6c0.6-0.4,1.3-0.6,2.1-0.6c1.2,0,2.1,0.4,2.9,1.2
			c0.7,0.8,1.1,1.9,1.1,3.3v0.1c0,0.8-0.2,1.6-0.5,2.3c-0.3,0.7-0.8,1.2-1.4,1.6c-0.6,0.4-1.3,0.6-2.1,0.6c-1.2,0-2.1-0.4-2.9-1.2
			c-0.7-0.8-1.1-1.9-1.1-3.3V446.1z M253.7,446.2c0,1,0.2,1.7,0.7,2.3c0.4,0.6,1,0.9,1.8,0.9c0.8,0,1.4-0.3,1.8-0.9
			c0.4-0.6,0.7-1.4,0.7-2.5c0-1-0.2-1.7-0.7-2.3c-0.5-0.6-1.1-0.9-1.8-0.9c-0.7,0-1.3,0.3-1.8,0.9S253.7,445.1,253.7,446.2z"/>
		<path d="M266.2,443.1c-0.2,0-0.5-0.1-0.7-0.1c-1,0-1.6,0.4-2,1.2v6.2H262v-8.7h1.5l0,1c0.5-0.8,1.2-1.2,2.1-1.2
			c0.3,0,0.5,0,0.7,0.1V443.1z"/>
		<path d="M267,446.1c0-0.9,0.2-1.6,0.5-2.3c0.3-0.7,0.8-1.2,1.4-1.6c0.6-0.4,1.3-0.6,2.1-0.6c1.2,0,2.1,0.4,2.9,1.2
			c0.7,0.8,1.1,1.9,1.1,3.3v0.1c0,0.8-0.2,1.6-0.5,2.3c-0.3,0.7-0.8,1.2-1.4,1.6c-0.6,0.4-1.3,0.6-2.1,0.6c-1.2,0-2.1-0.4-2.9-1.2
			c-0.7-0.8-1.1-1.9-1.1-3.3V446.1z M268.5,446.2c0,1,0.2,1.7,0.7,2.3c0.4,0.6,1,0.9,1.8,0.9c0.8,0,1.4-0.3,1.8-0.9
			c0.4-0.6,0.7-1.4,0.7-2.5c0-1-0.2-1.7-0.7-2.3c-0.5-0.6-1.1-0.9-1.8-0.9c-0.7,0-1.3,0.3-1.8,0.9S268.5,445.1,268.5,446.2z"/>
		<path d="M278.3,441.8l0,1.1c0.7-0.8,1.5-1.3,2.6-1.3c1.8,0,2.8,1,2.8,3.1v5.8h-1.5v-5.8c0-0.6-0.1-1.1-0.4-1.4
			c-0.3-0.3-0.7-0.5-1.3-0.5c-0.5,0-0.9,0.1-1.3,0.4c-0.4,0.3-0.7,0.6-0.9,1v6.2h-1.5v-8.7H278.3z"/>
		<path d="M288,439.7v2.1h1.6v1.2H288v5.4c0,0.3,0.1,0.6,0.2,0.8s0.4,0.3,0.7,0.3c0.2,0,0.4,0,0.7-0.1v1.2c-0.4,0.1-0.8,0.2-1.1,0.2
			c-0.7,0-1.2-0.2-1.5-0.6c-0.3-0.4-0.5-1-0.5-1.7v-5.4h-1.6v-1.2h1.6v-2.1H288z"/>
		<path d="M290.8,446.1c0-0.9,0.2-1.6,0.5-2.3c0.3-0.7,0.8-1.2,1.4-1.6c0.6-0.4,1.3-0.6,2.1-0.6c1.2,0,2.1,0.4,2.9,1.2
			c0.7,0.8,1.1,1.9,1.1,3.3v0.1c0,0.8-0.2,1.6-0.5,2.3c-0.3,0.7-0.8,1.2-1.4,1.6c-0.6,0.4-1.3,0.6-2.1,0.6c-1.2,0-2.1-0.4-2.9-1.2
			c-0.7-0.8-1.1-1.9-1.1-3.3V446.1z M292.3,446.2c0,1,0.2,1.7,0.7,2.3c0.4,0.6,1,0.9,1.8,0.9c0.8,0,1.4-0.3,1.8-0.9
			c0.4-0.6,0.7-1.4,0.7-2.5c0-1-0.2-1.7-0.7-2.3c-0.5-0.6-1.1-0.9-1.8-0.9c-0.7,0-1.3,0.3-1.8,0.9S292.3,445.1,292.3,446.2z"/>
	</g>
	<g>
		<path d="M441.1,801.5v-7.6h-1.4v-1.2h1.4v-0.9c0-0.9,0.2-1.7,0.7-2.2c0.5-0.5,1.2-0.8,2.1-0.8c0.3,0,0.7,0,1,0.1l-0.1,1.2
			c-0.3,0-0.5-0.1-0.8-0.1c-0.5,0-0.9,0.1-1.1,0.4c-0.3,0.3-0.4,0.7-0.4,1.2v0.9h1.9v1.2h-1.9v7.6H441.1z"/>
		<path d="M450.3,794.1c-0.2,0-0.5-0.1-0.7-0.1c-1,0-1.6,0.4-2,1.2v6.2h-1.5v-8.7h1.5l0,1c0.5-0.8,1.2-1.2,2.1-1.2
			c0.3,0,0.5,0,0.7,0.1V794.1z"/>
		<path d="M455.2,801.7c-1.2,0-2.1-0.4-2.9-1.2s-1.1-1.8-1.1-3.1v-0.3c0-0.9,0.2-1.6,0.5-2.3c0.3-0.7,0.8-1.2,1.4-1.6
			c0.6-0.4,1.2-0.6,1.9-0.6c1.1,0,2,0.4,2.6,1.1c0.6,0.7,0.9,1.8,0.9,3.2v0.6h-5.9c0,0.9,0.3,1.6,0.8,2.1c0.5,0.5,1.1,0.8,1.8,0.8
			c0.5,0,1-0.1,1.3-0.3s0.7-0.5,1-0.9l0.9,0.7C457.7,801.1,456.6,801.7,455.2,801.7z M455,793.8c-0.6,0-1.1,0.2-1.5,0.7
			s-0.7,1.1-0.8,1.8h4.4v-0.1c0-0.8-0.2-1.3-0.6-1.8S455.6,793.8,455,793.8z"/>
		<path d="M460.3,790.5c0-0.2,0.1-0.4,0.2-0.6c0.1-0.2,0.4-0.3,0.7-0.3s0.5,0.1,0.7,0.3c0.2,0.2,0.2,0.4,0.2,0.6
			c0,0.2-0.1,0.4-0.2,0.6c-0.2,0.2-0.4,0.2-0.7,0.2s-0.5-0.1-0.7-0.2C460.4,790.9,460.3,790.7,460.3,790.5z M461.9,801.5h-1.5v-8.7
			h1.5V801.5z"/>
		<path d="M467.9,801.7c-1.2,0-2.1-0.4-2.9-1.2s-1.1-1.8-1.1-3.1v-0.3c0-0.9,0.2-1.6,0.5-2.3c0.3-0.7,0.8-1.2,1.4-1.6
			c0.6-0.4,1.2-0.6,1.9-0.6c1.1,0,2,0.4,2.6,1.1c0.6,0.7,0.9,1.8,0.9,3.2v0.6h-5.9c0,0.9,0.3,1.6,0.8,2.1c0.5,0.5,1.1,0.8,1.8,0.8
			c0.5,0,1-0.1,1.3-0.3s0.7-0.5,1-0.9l0.9,0.7C470.5,801.1,469.4,801.7,467.9,801.7z M467.7,793.8c-0.6,0-1.1,0.2-1.5,0.7
			s-0.7,1.1-0.8,1.8h4.4v-0.1c0-0.8-0.2-1.3-0.6-1.8S468.3,793.8,467.7,793.8z"/>
		<path d="M442.8,817.3l-0.9,1v3.1h-1.5v-12.4h1.5v7.5l0.8-1l2.7-2.9h1.8l-3.4,3.6l3.8,5.1h-1.7L442.8,817.3z"/>
		<path d="M454.1,820.4c-0.6,0.7-1.4,1-2.6,1c-0.9,0-1.6-0.3-2.1-0.8c-0.5-0.5-0.7-1.3-0.7-2.4v-5.7h1.5v5.6c0,1.3,0.5,2,1.6,2
			c1.1,0,1.9-0.4,2.3-1.3v-6.3h1.5v8.7h-1.4L454.1,820.4z"/>
		<path d="M459.2,812.6l0,1.1c0.7-0.8,1.5-1.3,2.6-1.3c1.8,0,2.8,1,2.8,3.1v5.8h-1.5v-5.8c0-0.6-0.1-1.1-0.4-1.4
			c-0.3-0.3-0.7-0.5-1.3-0.5c-0.5,0-0.9,0.1-1.3,0.4c-0.4,0.3-0.7,0.6-0.9,1v6.2h-1.5v-8.7H459.2z"/>
		<path d="M472,819c0-0.4-0.2-0.7-0.5-0.9c-0.3-0.2-0.8-0.4-1.6-0.6c-0.8-0.2-1.4-0.4-1.8-0.6c-0.4-0.2-0.8-0.5-1-0.8
			c-0.2-0.3-0.3-0.7-0.3-1.1c0-0.7,0.3-1.3,0.9-1.8c0.6-0.5,1.4-0.7,2.3-0.7c1,0,1.8,0.3,2.4,0.8c0.6,0.5,0.9,1.2,0.9,2h-1.5
			c0-0.4-0.2-0.8-0.5-1.1c-0.3-0.3-0.8-0.4-1.3-0.4c-0.5,0-1,0.1-1.3,0.4s-0.5,0.5-0.5,0.9c0,0.4,0.1,0.6,0.4,0.8s0.8,0.4,1.5,0.5
			c0.7,0.2,1.3,0.4,1.8,0.6c0.5,0.2,0.8,0.5,1,0.8c0.2,0.3,0.3,0.7,0.3,1.2c0,0.8-0.3,1.4-0.9,1.9c-0.6,0.5-1.4,0.7-2.4,0.7
			c-0.7,0-1.3-0.1-1.9-0.4c-0.5-0.2-1-0.6-1.3-1c-0.3-0.4-0.5-0.9-0.5-1.4h1.5c0,0.5,0.2,0.9,0.6,1.2c0.4,0.3,0.9,0.4,1.5,0.4
			c0.6,0,1-0.1,1.4-0.3C471.8,819.7,472,819.4,472,819z"/>
		<path d="M477.5,810.5v2.1h1.6v1.2h-1.6v5.4c0,0.3,0.1,0.6,0.2,0.8c0.1,0.2,0.4,0.3,0.7,0.3c0.2,0,0.4,0,0.7-0.1v1.2
			c-0.4,0.1-0.8,0.2-1.1,0.2c-0.7,0-1.2-0.2-1.5-0.6c-0.3-0.4-0.5-1-0.5-1.7v-5.4h-1.6v-1.2h1.6v-2.1H477.5z"/>
		<path d="M483.9,816.9H480v-1.2h3.9V816.9z"/>
		<path d="M445.5,838.8c0-0.4-0.2-0.7-0.5-0.9c-0.3-0.2-0.8-0.4-1.6-0.6c-0.8-0.2-1.4-0.4-1.8-0.6c-0.4-0.2-0.8-0.5-1-0.8
			c-0.2-0.3-0.3-0.7-0.3-1.1c0-0.7,0.3-1.3,0.9-1.8c0.6-0.5,1.4-0.7,2.3-0.7c1,0,1.8,0.3,2.4,0.8c0.6,0.5,0.9,1.2,0.9,2h-1.5
			c0-0.4-0.2-0.8-0.5-1.1c-0.3-0.3-0.8-0.4-1.3-0.4c-0.5,0-1,0.1-1.3,0.4s-0.5,0.5-0.5,0.9c0,0.4,0.1,0.6,0.4,0.8s0.8,0.4,1.5,0.5
			c0.7,0.2,1.3,0.4,1.8,0.6c0.5,0.2,0.8,0.5,1,0.8c0.2,0.3,0.3,0.7,0.3,1.2c0,0.8-0.3,1.4-0.9,1.9c-0.6,0.5-1.4,0.7-2.4,0.7
			c-0.7,0-1.3-0.1-1.9-0.4c-0.5-0.2-1-0.6-1.3-1c-0.3-0.4-0.5-0.9-0.5-1.4h1.5c0,0.5,0.2,0.9,0.6,1.2c0.4,0.3,0.9,0.4,1.5,0.4
			c0.6,0,1-0.1,1.4-0.3C445.3,839.5,445.5,839.2,445.5,838.8z"/>
		<path d="M452.4,840c0.5,0,1-0.2,1.4-0.5c0.4-0.3,0.6-0.7,0.7-1.2h1.4c0,0.5-0.2,1-0.5,1.4s-0.7,0.8-1.3,1.1
			c-0.5,0.3-1.1,0.4-1.7,0.4c-1.2,0-2.1-0.4-2.8-1.2c-0.7-0.8-1.1-1.9-1.1-3.3v-0.2c0-0.8,0.2-1.6,0.5-2.3c0.3-0.7,0.8-1.2,1.3-1.5
			c0.6-0.4,1.3-0.5,2.1-0.5c1,0,1.8,0.3,2.4,0.9c0.6,0.6,1,1.3,1,2.3h-1.4c0-0.6-0.3-1-0.6-1.4c-0.4-0.4-0.9-0.5-1.4-0.5
			c-0.8,0-1.3,0.3-1.8,0.8c-0.4,0.5-0.6,1.3-0.6,2.4v0.3c0,1,0.2,1.8,0.6,2.3C451,839.8,451.6,840,452.4,840z"/>
		<path d="M459,833.4c0.7-0.8,1.5-1.2,2.6-1.2c1.8,0,2.8,1,2.8,3.1v5.8h-1.5v-5.8c0-0.6-0.1-1.1-0.4-1.4c-0.3-0.3-0.7-0.5-1.3-0.5
			c-0.5,0-0.9,0.1-1.3,0.4c-0.4,0.3-0.7,0.6-0.9,1v6.2h-1.5v-12.4h1.5V833.4z"/>
		<path d="M472,840.2c-0.6,0.7-1.4,1-2.6,1c-0.9,0-1.6-0.3-2.1-0.8c-0.5-0.5-0.7-1.3-0.7-2.4v-5.7h1.5v5.6c0,1.3,0.5,2,1.6,2
			c1.1,0,1.9-0.4,2.3-1.3v-6.3h1.5v8.7H472L472,840.2z"/>
		<path d="M477.3,841.1h-1.5v-12.4h1.5V841.1z"/>
		<path d="M483.3,841.3c-1.2,0-2.1-0.4-2.9-1.2s-1.1-1.8-1.1-3.1v-0.3c0-0.9,0.2-1.6,0.5-2.3c0.3-0.7,0.8-1.2,1.4-1.6
			c0.6-0.4,1.2-0.6,1.9-0.6c1.1,0,2,0.4,2.6,1.1c0.6,0.7,0.9,1.8,0.9,3.2v0.6h-5.9c0,0.9,0.3,1.6,0.8,2.1c0.5,0.5,1.1,0.8,1.8,0.8
			c0.5,0,1-0.1,1.3-0.3s0.7-0.5,1-0.9l0.9,0.7C485.9,840.7,484.8,841.3,483.3,841.3z M483.1,833.4c-0.6,0-1.1,0.2-1.5,0.7
			s-0.7,1.1-0.8,1.8h4.4v-0.1c0-0.8-0.2-1.3-0.6-1.8C484.3,833.7,483.8,833.4,483.1,833.4z"/>
		<path d="M442.8,856.9l-0.9,1v3.1h-1.5v-12.4h1.5v7.5l0.8-1l2.7-2.9h1.8l-3.4,3.6l3.8,5.1h-1.7L442.8,856.9z"/>
		<path d="M448.7,849.9c0-0.2,0.1-0.4,0.2-0.6c0.1-0.2,0.4-0.3,0.7-0.3s0.5,0.1,0.7,0.3c0.2,0.2,0.2,0.4,0.2,0.6
			c0,0.2-0.1,0.4-0.2,0.6c-0.2,0.2-0.4,0.2-0.7,0.2s-0.5-0.1-0.7-0.2C448.8,850.3,448.7,850.1,448.7,849.9z M450.4,860.9h-1.5v-8.7
			h1.5V860.9z"/>
		<path d="M456.4,861.1c-1.2,0-2.1-0.4-2.9-1.2s-1.1-1.8-1.1-3.1v-0.3c0-0.9,0.2-1.6,0.5-2.3c0.3-0.7,0.8-1.2,1.4-1.6
			c0.6-0.4,1.2-0.6,1.9-0.6c1.1,0,2,0.4,2.6,1.1c0.6,0.7,0.9,1.8,0.9,3.2v0.6h-5.9c0,0.9,0.3,1.6,0.8,2.1c0.5,0.5,1.1,0.8,1.8,0.8
			c0.5,0,1-0.1,1.3-0.3s0.7-0.5,1-0.9l0.9,0.7C458.9,860.5,457.8,861.1,456.4,861.1z M456.2,853.2c-0.6,0-1.1,0.2-1.5,0.7
			s-0.7,1.1-0.8,1.8h4.4v-0.1c0-0.8-0.2-1.3-0.6-1.8S456.8,853.2,456.2,853.2z"/>
		<path d="M463.1,860.9h-1.5v-12.4h1.5V860.9z"/>
		<path d="M465.8,861.9h-1.3l4.9-12.7h1.3L465.8,861.9z"/>
		<path d="M441.1,880.7v-7.6h-1.4V872h1.4v-0.9c0-0.9,0.2-1.7,0.7-2.2c0.5-0.5,1.2-0.8,2.1-0.8c0.3,0,0.7,0,1,0.1l-0.1,1.2
			c-0.3,0-0.5-0.1-0.8-0.1c-0.5,0-0.9,0.1-1.1,0.4c-0.3,0.3-0.4,0.7-0.4,1.2v0.9h1.9v1.2h-1.9v7.6H441.1z"/>
		<path d="M450.3,873.3c-0.2,0-0.5-0.1-0.7-0.1c-1,0-1.6,0.4-2,1.2v6.2h-1.5V872h1.5l0,1c0.5-0.8,1.2-1.2,2.1-1.2
			c0.3,0,0.5,0,0.7,0.1V873.3z"/>
		<path d="M455.2,880.9c-1.2,0-2.1-0.4-2.9-1.2s-1.1-1.8-1.1-3.1v-0.3c0-0.9,0.2-1.6,0.5-2.3c0.3-0.7,0.8-1.2,1.4-1.6
			c0.6-0.4,1.2-0.6,1.9-0.6c1.1,0,2,0.4,2.6,1.1c0.6,0.7,0.9,1.8,0.9,3.2v0.6h-5.9c0,0.9,0.3,1.6,0.8,2.1c0.5,0.5,1.1,0.8,1.8,0.8
			c0.5,0,1-0.1,1.3-0.3s0.7-0.5,1-0.9l0.9,0.7C457.7,880.3,456.6,880.9,455.2,880.9z M455,873c-0.6,0-1.1,0.2-1.5,0.7
			s-0.7,1.1-0.8,1.8h4.4v-0.1c0-0.8-0.2-1.3-0.6-1.8S455.6,873,455,873z"/>
		<path d="M463.9,880.9c-1.2,0-2.1-0.4-2.9-1.2s-1.1-1.8-1.1-3.1v-0.3c0-0.9,0.2-1.6,0.5-2.3c0.3-0.7,0.8-1.2,1.4-1.6
			c0.6-0.4,1.2-0.6,1.9-0.6c1.1,0,2,0.4,2.6,1.1c0.6,0.7,0.9,1.8,0.9,3.2v0.6h-5.9c0,0.9,0.3,1.6,0.8,2.1c0.5,0.5,1.1,0.8,1.8,0.8
			c0.5,0,1-0.1,1.3-0.3s0.7-0.5,1-0.9l0.9,0.7C466.5,880.3,465.4,880.9,463.9,880.9z M463.7,873c-0.6,0-1.1,0.2-1.5,0.7
			s-0.7,1.1-0.8,1.8h4.4v-0.1c0-0.8-0.2-1.3-0.6-1.8S464.3,873,463.7,873z"/>
		<path d="M445.8,900.5c-0.1-0.2-0.2-0.5-0.2-0.9c-0.7,0.7-1.5,1.1-2.5,1.1c-0.9,0-1.6-0.2-2.1-0.7c-0.6-0.5-0.8-1.1-0.8-1.8
			c0-0.9,0.3-1.6,1-2.1c0.7-0.5,1.7-0.8,2.9-0.8h1.5v-0.7c0-0.5-0.2-0.9-0.5-1.2s-0.8-0.5-1.4-0.5c-0.5,0-1,0.1-1.3,0.4
			s-0.5,0.6-0.5,1h-1.5c0-0.4,0.2-0.9,0.5-1.3c0.3-0.4,0.7-0.7,1.3-1c0.5-0.2,1.1-0.4,1.7-0.4c1,0,1.8,0.3,2.4,0.8s0.9,1.2,0.9,2.1
			v4c0,0.8,0.1,1.4,0.3,1.9v0.1H445.8z M443.3,899.4c0.5,0,0.9-0.1,1.3-0.4c0.4-0.2,0.7-0.6,0.9-0.9v-1.8h-1.2
			c-1.8,0-2.7,0.5-2.7,1.6c0,0.5,0.2,0.8,0.5,1.1C442.4,899.2,442.8,899.4,443.3,899.4z"/>
		<path d="M453.6,893.1c-0.2,0-0.5-0.1-0.7-0.1c-1,0-1.6,0.4-2,1.2v6.2h-1.5v-8.7h1.5l0,1c0.5-0.8,1.2-1.2,2.1-1.2
			c0.3,0,0.5,0,0.7,0.1V893.1z"/>
		<path d="M457.4,889.7v2.1h1.6v1.2h-1.6v5.4c0,0.3,0.1,0.6,0.2,0.8s0.4,0.3,0.7,0.3c0.2,0,0.4,0,0.7-0.1v1.2
			c-0.4,0.1-0.8,0.2-1.1,0.2c-0.7,0-1.2-0.2-1.5-0.6c-0.3-0.4-0.5-1-0.5-1.7v-5.4h-1.6v-1.2h1.6v-2.1H457.4z"/>
		<path d="M463.8,896.1h-3.9v-1.2h3.9V896.1z"/>
		<path d="M445.5,918c0-0.4-0.2-0.7-0.5-0.9c-0.3-0.2-0.8-0.4-1.6-0.6c-0.8-0.2-1.4-0.4-1.8-0.6c-0.4-0.2-0.8-0.5-1-0.8
			c-0.2-0.3-0.3-0.7-0.3-1.1c0-0.7,0.3-1.3,0.9-1.8c0.6-0.5,1.4-0.7,2.3-0.7c1,0,1.8,0.3,2.4,0.8c0.6,0.5,0.9,1.2,0.9,2h-1.5
			c0-0.4-0.2-0.8-0.5-1.1c-0.3-0.3-0.8-0.4-1.3-0.4c-0.5,0-1,0.1-1.3,0.4s-0.5,0.5-0.5,0.9c0,0.4,0.1,0.6,0.4,0.8s0.8,0.4,1.5,0.5
			c0.7,0.2,1.3,0.4,1.8,0.6c0.5,0.2,0.8,0.5,1,0.8c0.2,0.3,0.3,0.7,0.3,1.2c0,0.8-0.3,1.4-0.9,1.9c-0.6,0.5-1.4,0.7-2.4,0.7
			c-0.7,0-1.3-0.1-1.9-0.4c-0.5-0.2-1-0.6-1.3-1c-0.3-0.4-0.5-0.9-0.5-1.4h1.5c0,0.5,0.2,0.9,0.6,1.2c0.4,0.3,0.9,0.4,1.5,0.4
			c0.6,0,1-0.1,1.4-0.3C445.3,918.7,445.5,918.4,445.5,918z"/>
		<path d="M452.4,919.2c0.5,0,1-0.2,1.4-0.5c0.4-0.3,0.6-0.7,0.7-1.2h1.4c0,0.5-0.2,1-0.5,1.4s-0.7,0.8-1.3,1.1
			c-0.5,0.3-1.1,0.4-1.7,0.4c-1.2,0-2.1-0.4-2.8-1.2c-0.7-0.8-1.1-1.9-1.1-3.3v-0.2c0-0.8,0.2-1.6,0.5-2.3c0.3-0.7,0.8-1.2,1.3-1.5
			c0.6-0.4,1.3-0.5,2.1-0.5c1,0,1.8,0.3,2.4,0.9c0.6,0.6,1,1.3,1,2.3h-1.4c0-0.6-0.3-1-0.6-1.4c-0.4-0.4-0.9-0.5-1.4-0.5
			c-0.8,0-1.3,0.3-1.8,0.8c-0.4,0.5-0.6,1.3-0.6,2.4v0.3c0,1,0.2,1.8,0.6,2.3C451,919,451.6,919.2,452.4,919.2z"/>
		<path d="M459,912.6c0.7-0.8,1.5-1.2,2.6-1.2c1.8,0,2.8,1,2.8,3.1v5.8h-1.5v-5.8c0-0.6-0.1-1.1-0.4-1.4c-0.3-0.3-0.7-0.5-1.3-0.5
			c-0.5,0-0.9,0.1-1.3,0.4c-0.4,0.3-0.7,0.6-0.9,1v6.2h-1.5v-12.4h1.5V912.6z"/>
		<path d="M466.2,915.9c0-0.9,0.2-1.6,0.5-2.3c0.3-0.7,0.8-1.2,1.4-1.6c0.6-0.4,1.3-0.6,2.1-0.6c1.2,0,2.1,0.4,2.9,1.2
			c0.7,0.8,1.1,1.9,1.1,3.3v0.1c0,0.8-0.2,1.6-0.5,2.3c-0.3,0.7-0.8,1.2-1.4,1.6c-0.6,0.4-1.3,0.6-2.1,0.6c-1.2,0-2.1-0.4-2.9-1.2
			c-0.7-0.8-1.1-1.9-1.1-3.3V915.9z M467.7,916c0,1,0.2,1.7,0.7,2.3c0.4,0.6,1,0.9,1.8,0.9c0.8,0,1.4-0.3,1.8-0.9
			c0.4-0.6,0.7-1.4,0.7-2.5c0-1-0.2-1.7-0.7-2.3c-0.5-0.6-1.1-0.9-1.8-0.9c-0.7,0-1.3,0.3-1.8,0.9
			C467.9,914.1,467.7,914.9,467.7,916z"/>
		<path d="M475.6,915.9c0-0.9,0.2-1.6,0.5-2.3c0.3-0.7,0.8-1.2,1.4-1.6c0.6-0.4,1.3-0.6,2.1-0.6c1.2,0,2.1,0.4,2.9,1.2
			c0.7,0.8,1.1,1.9,1.1,3.3v0.1c0,0.8-0.2,1.6-0.5,2.3c-0.3,0.7-0.8,1.2-1.4,1.6s-1.3,0.6-2.1,0.6c-1.2,0-2.1-0.4-2.9-1.2
			c-0.7-0.8-1.1-1.9-1.1-3.3V915.9z M477.1,916c0,1,0.2,1.7,0.7,2.3c0.4,0.6,1,0.9,1.8,0.9c0.8,0,1.4-0.3,1.8-0.9
			c0.4-0.6,0.7-1.4,0.7-2.5c0-1-0.2-1.7-0.7-2.3c-0.5-0.6-1.1-0.9-1.8-0.9c-0.7,0-1.3,0.3-1.8,0.9
			C477.3,914.1,477.1,914.9,477.1,916z"/>
		<path d="M487,920.3h-1.5v-12.4h1.5V920.3z"/>
		<path d="M442.8,936.1l-0.9,1v3.1h-1.5v-12.4h1.5v7.5l0.8-1l2.7-2.9h1.8l-3.4,3.6l3.8,5.1h-1.7L442.8,936.1z"/>
		<path d="M448.7,929.1c0-0.2,0.1-0.4,0.2-0.6c0.1-0.2,0.4-0.3,0.7-0.3s0.5,0.1,0.7,0.3c0.2,0.2,0.2,0.4,0.2,0.6
			c0,0.2-0.1,0.4-0.2,0.6c-0.2,0.2-0.4,0.2-0.7,0.2s-0.5-0.1-0.7-0.2C448.8,929.5,448.7,929.3,448.7,929.1z M450.4,940.1h-1.5v-8.7
			h1.5V940.1z"/>
		<path d="M456.4,940.3c-1.2,0-2.1-0.4-2.9-1.2s-1.1-1.8-1.1-3.1v-0.3c0-0.9,0.2-1.6,0.5-2.3c0.3-0.7,0.8-1.2,1.4-1.6
			c0.6-0.4,1.2-0.6,1.9-0.6c1.1,0,2,0.4,2.6,1.1c0.6,0.7,0.9,1.8,0.9,3.2v0.6h-5.9c0,0.9,0.3,1.6,0.8,2.1c0.5,0.5,1.1,0.8,1.8,0.8
			c0.5,0,1-0.1,1.3-0.3s0.7-0.5,1-0.9l0.9,0.7C458.9,939.7,457.8,940.3,456.4,940.3z M456.2,932.4c-0.6,0-1.1,0.2-1.5,0.7
			s-0.7,1.1-0.8,1.8h4.4v-0.1c0-0.8-0.2-1.3-0.6-1.8S456.8,932.4,456.2,932.4z"/>
		<path d="M463.1,940.1h-1.5v-12.4h1.5V940.1z"/>
	</g>
	<g>
		<path d="M345.7,721.1h-5.1v4.2h5.9v1.3h-7.5v-11.7h7.4v1.3h-5.8v3.8h5.1V721.1z"/>
		<path d="M348.3,715.5c0-0.2,0.1-0.4,0.2-0.6c0.1-0.2,0.4-0.3,0.7-0.3s0.5,0.1,0.7,0.3c0.2,0.2,0.2,0.4,0.2,0.6
			c0,0.2-0.1,0.4-0.2,0.6c-0.2,0.2-0.4,0.2-0.7,0.2s-0.5-0.1-0.7-0.2C348.3,715.9,348.3,715.7,348.3,715.5z M349.9,726.5h-1.5v-8.7
			h1.5V726.5z"/>
		<path d="M353.7,717.8l0,1.1c0.7-0.8,1.5-1.3,2.6-1.3c1.8,0,2.8,1,2.8,3.1v5.8h-1.5v-5.8c0-0.6-0.1-1.1-0.4-1.4
			c-0.3-0.3-0.7-0.5-1.3-0.5c-0.5,0-0.9,0.1-1.3,0.4c-0.4,0.3-0.7,0.6-0.9,1v6.2h-1.5v-8.7H353.7z"/>
		<path d="M361.4,715.5c0-0.2,0.1-0.4,0.2-0.6c0.1-0.2,0.4-0.3,0.7-0.3s0.5,0.1,0.7,0.3c0.2,0.2,0.2,0.4,0.2,0.6
			c0,0.2-0.1,0.4-0.2,0.6c-0.2,0.2-0.4,0.2-0.7,0.2s-0.5-0.1-0.7-0.2C361.4,715.9,361.4,715.7,361.4,715.5z M363,726.5h-1.5v-8.7
			h1.5V726.5z"/>
		<path d="M365,722.1c0-1.4,0.3-2.4,0.9-3.2c0.6-0.8,1.5-1.2,2.5-1.2c1.1,0,1.9,0.4,2.5,1.1l0.1-1h1.4v8.5c0,1.1-0.3,2-1,2.7
			c-0.7,0.7-1.6,1-2.7,1c-0.6,0-1.2-0.1-1.8-0.4s-1.1-0.6-1.4-1.1l0.8-0.9c0.6,0.8,1.4,1.2,2.3,1.2c0.7,0,1.3-0.2,1.7-0.6
			c0.4-0.4,0.6-1,0.6-1.7v-0.7c-0.6,0.7-1.4,1-2.4,1c-1,0-1.8-0.4-2.5-1.2C365.3,724.6,365,723.5,365,722.1z M366.5,722.2
			c0,1,0.2,1.8,0.6,2.3c0.4,0.6,1,0.8,1.7,0.8c0.9,0,1.6-0.4,2.1-1.3v-4c-0.5-0.8-1.1-1.2-2.1-1.2c-0.7,0-1.3,0.3-1.7,0.8
			S366.5,721.1,366.5,722.2z"/>
		<path d="M378.2,726.7c-1.2,0-2.1-0.4-2.9-1.2s-1.1-1.8-1.1-3.1v-0.3c0-0.9,0.2-1.6,0.5-2.3c0.3-0.7,0.8-1.2,1.4-1.6
			c0.6-0.4,1.2-0.6,1.9-0.6c1.1,0,2,0.4,2.6,1.1c0.6,0.7,0.9,1.8,0.9,3.2v0.6h-5.9c0,0.9,0.3,1.6,0.8,2.1c0.5,0.5,1.1,0.8,1.8,0.8
			c0.5,0,1-0.1,1.3-0.3s0.7-0.5,1-0.9l0.9,0.7C380.8,726.1,379.7,726.7,378.2,726.7z M378.1,718.8c-0.6,0-1.1,0.2-1.5,0.7
			s-0.7,1.1-0.8,1.8h4.4v-0.1c0-0.8-0.2-1.3-0.6-1.8S378.7,718.8,378.1,718.8z"/>
		<path d="M342.6,741.1c-1.3-0.4-2.3-0.9-2.9-1.4c-0.6-0.6-0.9-1.2-0.9-2.1c0-0.9,0.4-1.7,1.1-2.3c0.7-0.6,1.7-0.9,2.9-0.9
			c0.8,0,1.5,0.2,2.2,0.5c0.6,0.3,1.1,0.7,1.5,1.3c0.3,0.5,0.5,1.1,0.5,1.8h-1.6c0-0.7-0.2-1.3-0.7-1.7c-0.5-0.4-1.1-0.6-1.9-0.6
			c-0.8,0-1.4,0.2-1.8,0.5c-0.4,0.3-0.6,0.8-0.6,1.4c0,0.5,0.2,0.9,0.6,1.2c0.4,0.3,1.1,0.6,2.1,0.9c1,0.3,1.7,0.6,2.3,0.9
			c0.6,0.3,1,0.7,1.2,1.2c0.3,0.4,0.4,1,0.4,1.6c0,1-0.4,1.7-1.1,2.3c-0.7,0.6-1.7,0.9-3,0.9c-0.8,0-1.6-0.2-2.3-0.5
			c-0.7-0.3-1.2-0.7-1.6-1.3c-0.4-0.5-0.6-1.1-0.6-1.8h1.6c0,0.7,0.3,1.3,0.8,1.7c0.5,0.4,1.2,0.6,2.1,0.6c0.8,0,1.4-0.2,1.9-0.5
			s0.7-0.8,0.7-1.4c0-0.6-0.2-1-0.6-1.3C344.4,741.7,343.6,741.4,342.6,741.1z"/>
		<path d="M352.2,745.2c0.5,0,1-0.2,1.4-0.5c0.4-0.3,0.6-0.7,0.7-1.2h1.4c0,0.5-0.2,1-0.5,1.4s-0.7,0.8-1.3,1.1
			c-0.5,0.3-1.1,0.4-1.7,0.4c-1.2,0-2.1-0.4-2.8-1.2c-0.7-0.8-1.1-1.9-1.1-3.3v-0.2c0-0.8,0.2-1.6,0.5-2.3c0.3-0.7,0.8-1.2,1.3-1.5
			c0.6-0.4,1.3-0.5,2.1-0.5c1,0,1.8,0.3,2.4,0.9c0.6,0.6,1,1.3,1,2.3h-1.4c0-0.6-0.3-1-0.6-1.4c-0.4-0.4-0.9-0.5-1.4-0.5
			c-0.8,0-1.3,0.3-1.8,0.8c-0.4,0.5-0.6,1.3-0.6,2.4v0.3c0,1,0.2,1.8,0.6,2.3C350.8,745,351.4,745.2,352.2,745.2z"/>
		<path d="M358.8,738.6c0.7-0.8,1.5-1.2,2.6-1.2c1.8,0,2.8,1,2.8,3.1v5.8h-1.5v-5.8c0-0.6-0.1-1.1-0.4-1.4c-0.3-0.3-0.7-0.5-1.3-0.5
			c-0.5,0-0.9,0.1-1.3,0.4c-0.4,0.3-0.7,0.6-0.9,1v6.2h-1.5v-12.4h1.5V738.6z"/>
		<path d="M371.8,745.4c-0.6,0.7-1.4,1-2.6,1c-0.9,0-1.6-0.3-2.1-0.8c-0.5-0.5-0.7-1.3-0.7-2.4v-5.7h1.5v5.6c0,1.3,0.5,2,1.6,2
			c1.1,0,1.9-0.4,2.3-1.3v-6.3h1.5v8.7h-1.4L371.8,745.4z"/>
		<path d="M377.1,746.3h-1.5v-12.4h1.5V746.3z"/>
		<path d="M383.1,746.5c-1.2,0-2.1-0.4-2.9-1.2s-1.1-1.8-1.1-3.1v-0.3c0-0.9,0.2-1.6,0.5-2.3c0.3-0.7,0.8-1.2,1.4-1.6
			c0.6-0.4,1.2-0.6,1.9-0.6c1.1,0,2,0.4,2.6,1.1c0.6,0.7,0.9,1.8,0.9,3.2v0.6h-5.9c0,0.9,0.3,1.6,0.8,2.1c0.5,0.5,1.1,0.8,1.8,0.8
			c0.5,0,1-0.1,1.3-0.3s0.7-0.5,1-0.9l0.9,0.7C385.7,745.9,384.6,746.5,383.1,746.5z M382.9,738.6c-0.6,0-1.1,0.2-1.5,0.7
			s-0.7,1.1-0.8,1.8h4.4V741c0-0.8-0.2-1.3-0.6-1.8S383.5,738.6,382.9,738.6z"/>
		<path d="M389.6,737.6l0,1.1c0.7-0.8,1.5-1.3,2.6-1.3c1.8,0,2.8,1,2.8,3.1v5.8h-1.5v-5.8c0-0.6-0.1-1.1-0.4-1.4
			c-0.3-0.3-0.7-0.5-1.3-0.5c-0.5,0-0.9,0.1-1.3,0.4c-0.4,0.3-0.7,0.6-0.9,1v6.2h-1.5v-8.7H389.6z"/>
		<path d="M397.6,747.3h-1.3l4.9-12.7h1.3L397.6,747.3z"/>
		<path d="M338.5,761.7c0-1.3,0.3-2.4,1-3.2c0.6-0.8,1.5-1.2,2.5-1.2c1,0,1.8,0.3,2.4,1v-4.5h1.5v12.4h-1.4l-0.1-0.9
			c-0.6,0.7-1.4,1.1-2.5,1.1c-1,0-1.8-0.4-2.5-1.2c-0.6-0.8-1-1.9-1-3.2V761.7z M340,761.8c0,1,0.2,1.8,0.6,2.3s1,0.8,1.7,0.8
			c0.9,0,1.6-0.4,2.1-1.3v-4c-0.4-0.8-1.1-1.2-2.1-1.2c-0.7,0-1.3,0.3-1.7,0.8S340,760.7,340,761.8z"/>
		<path d="M348.2,755.1c0-0.2,0.1-0.4,0.2-0.6c0.1-0.2,0.4-0.3,0.7-0.3s0.5,0.1,0.7,0.3c0.2,0.2,0.2,0.4,0.2,0.6
			c0,0.2-0.1,0.4-0.2,0.6c-0.2,0.2-0.4,0.2-0.7,0.2s-0.5-0.1-0.7-0.2C348.3,755.5,348.2,755.3,348.2,755.1z M349.8,766.1h-1.5v-8.7
			h1.5V766.1z"/>
		<path d="M352.9,766.1v-7.6h-1.4v-1.2h1.4v-0.9c0-0.9,0.2-1.7,0.7-2.2c0.5-0.5,1.2-0.8,2.1-0.8c0.3,0,0.7,0,1,0.1l-0.1,1.2
			c-0.3,0-0.5-0.1-0.8-0.1c-0.5,0-0.9,0.1-1.1,0.4c-0.3,0.3-0.4,0.7-0.4,1.2v0.9h1.9v1.2h-1.9v7.6H352.9z"/>
		<path d="M358.6,766.1v-7.6h-1.4v-1.2h1.4v-0.9c0-0.9,0.2-1.7,0.7-2.2c0.5-0.5,1.2-0.8,2.1-0.8c0.3,0,0.7,0,1,0.1l-0.1,1.2
			c-0.3,0-0.5-0.1-0.8-0.1c-0.5,0-0.9,0.1-1.1,0.4c-0.3,0.3-0.4,0.7-0.4,1.2v0.9h1.9v1.2h-1.9v7.6H358.6z"/>
		<path d="M367.1,766.3c-1.2,0-2.1-0.4-2.9-1.2s-1.1-1.8-1.1-3.1v-0.3c0-0.9,0.2-1.6,0.5-2.3c0.3-0.7,0.8-1.2,1.4-1.6
			c0.6-0.4,1.2-0.6,1.9-0.6c1.1,0,2,0.4,2.6,1.1c0.6,0.7,0.9,1.8,0.9,3.2v0.6h-5.9c0,0.9,0.3,1.6,0.8,2.1c0.5,0.5,1.1,0.8,1.8,0.8
			c0.5,0,1-0.1,1.3-0.3s0.7-0.5,1-0.9l0.9,0.7C369.6,765.7,368.5,766.3,367.1,766.3z M366.9,758.4c-0.6,0-1.1,0.2-1.5,0.7
			s-0.7,1.1-0.8,1.8h4.4v-0.1c0-0.8-0.2-1.3-0.6-1.8S367.5,758.4,366.9,758.4z"/>
		<path d="M376.4,758.7c-0.2,0-0.5-0.1-0.7-0.1c-1,0-1.6,0.4-2,1.2v6.2h-1.5v-8.7h1.5l0,1c0.5-0.8,1.2-1.2,2.1-1.2
			c0.3,0,0.5,0,0.7,0.1V758.7z"/>
		<path d="M381.2,766.3c-1.2,0-2.1-0.4-2.9-1.2s-1.1-1.8-1.1-3.1v-0.3c0-0.9,0.2-1.6,0.5-2.3c0.3-0.7,0.8-1.2,1.4-1.6
			c0.6-0.4,1.2-0.6,1.9-0.6c1.1,0,2,0.4,2.6,1.1c0.6,0.7,0.9,1.8,0.9,3.2v0.6h-5.9c0,0.9,0.3,1.6,0.8,2.1c0.5,0.5,1.1,0.8,1.8,0.8
			c0.5,0,1-0.1,1.3-0.3s0.7-0.5,1-0.9l0.9,0.7C383.8,765.7,382.7,766.3,381.2,766.3z M381.1,758.4c-0.6,0-1.1,0.2-1.5,0.7
			s-0.7,1.1-0.8,1.8h4.4v-0.1c0-0.8-0.2-1.3-0.6-1.8S381.7,758.4,381.1,758.4z"/>
		<path d="M387.8,757.4l0,1.1c0.7-0.8,1.5-1.3,2.6-1.3c1.8,0,2.8,1,2.8,3.1v5.8h-1.5v-5.8c0-0.6-0.1-1.1-0.4-1.4
			c-0.3-0.3-0.7-0.5-1.3-0.5c-0.5,0-0.9,0.1-1.3,0.4c-0.4,0.3-0.7,0.6-0.9,1v6.2h-1.5v-8.7H387.8z"/>
		<path d="M397.5,755.3v2.1h1.6v1.2h-1.6v5.4c0,0.3,0.1,0.6,0.2,0.8s0.4,0.3,0.7,0.3c0.2,0,0.4,0,0.7-0.1v1.2
			c-0.4,0.1-0.8,0.2-1.1,0.2c-0.7,0-1.2-0.2-1.5-0.6c-0.3-0.4-0.5-1-0.5-1.7v-5.4h-1.6v-1.2h1.6v-2.1H397.5z"/>
		<path d="M344,783.6c0-0.4-0.2-0.7-0.5-0.9c-0.3-0.2-0.8-0.4-1.6-0.6c-0.8-0.2-1.4-0.4-1.8-0.6c-0.4-0.2-0.8-0.5-1-0.8
			c-0.2-0.3-0.3-0.7-0.3-1.1c0-0.7,0.3-1.3,0.9-1.8c0.6-0.5,1.4-0.7,2.3-0.7c1,0,1.8,0.3,2.4,0.8c0.6,0.5,0.9,1.2,0.9,2h-1.5
			c0-0.4-0.2-0.8-0.5-1.1c-0.3-0.3-0.8-0.4-1.3-0.4c-0.5,0-1,0.1-1.3,0.4s-0.5,0.5-0.5,0.9c0,0.4,0.1,0.6,0.4,0.8s0.8,0.4,1.5,0.5
			c0.7,0.2,1.3,0.4,1.8,0.6c0.5,0.2,0.8,0.5,1,0.8c0.2,0.3,0.3,0.7,0.3,1.2c0,0.8-0.3,1.4-0.9,1.9c-0.6,0.5-1.4,0.7-2.4,0.7
			c-0.7,0-1.3-0.1-1.9-0.4c-0.5-0.2-1-0.6-1.3-1c-0.3-0.4-0.5-0.9-0.5-1.4h1.5c0,0.5,0.2,0.9,0.6,1.2c0.4,0.3,0.9,0.4,1.5,0.4
			c0.6,0,1-0.1,1.4-0.3C343.8,784.3,344,784,344,783.6z"/>
		<path d="M350.9,784.8c0.5,0,1-0.2,1.4-0.5c0.4-0.3,0.6-0.7,0.7-1.2h1.4c0,0.5-0.2,1-0.5,1.4s-0.7,0.8-1.3,1.1
			c-0.5,0.3-1.1,0.4-1.7,0.4c-1.2,0-2.1-0.4-2.8-1.2c-0.7-0.8-1.1-1.9-1.1-3.3v-0.2c0-0.8,0.2-1.6,0.5-2.3c0.3-0.7,0.8-1.2,1.3-1.5
			c0.6-0.4,1.3-0.5,2.1-0.5c1,0,1.8,0.3,2.4,0.9c0.6,0.6,1,1.3,1,2.3h-1.4c0-0.6-0.3-1-0.6-1.4c-0.4-0.4-0.9-0.5-1.4-0.5
			c-0.8,0-1.3,0.3-1.8,0.8c-0.4,0.5-0.6,1.3-0.6,2.4v0.3c0,1,0.2,1.8,0.6,2.3C349.5,784.6,350.1,784.8,350.9,784.8z"/>
		<path d="M357.5,778.2c0.7-0.8,1.5-1.2,2.6-1.2c1.8,0,2.8,1,2.8,3.1v5.8h-1.5v-5.8c0-0.6-0.1-1.1-0.4-1.4c-0.3-0.3-0.7-0.5-1.3-0.5
			c-0.5,0-0.9,0.1-1.3,0.4c-0.4,0.3-0.7,0.6-0.9,1v6.2H356v-12.4h1.5V778.2z"/>
		<path d="M364.7,781.5c0-0.9,0.2-1.6,0.5-2.3c0.3-0.7,0.8-1.2,1.4-1.6c0.6-0.4,1.3-0.6,2.1-0.6c1.2,0,2.1,0.4,2.9,1.2
			c0.7,0.8,1.1,1.9,1.1,3.3v0.1c0,0.8-0.2,1.6-0.5,2.3c-0.3,0.7-0.8,1.2-1.4,1.6c-0.6,0.4-1.3,0.6-2.1,0.6c-1.2,0-2.1-0.4-2.9-1.2
			c-0.7-0.8-1.1-1.9-1.1-3.3V781.5z M366.2,781.6c0,1,0.2,1.7,0.7,2.3c0.4,0.6,1,0.9,1.8,0.9c0.8,0,1.4-0.3,1.8-0.9
			c0.4-0.6,0.7-1.4,0.7-2.5c0-1-0.2-1.7-0.7-2.3c-0.5-0.6-1.1-0.9-1.8-0.9c-0.7,0-1.3,0.3-1.8,0.9
			C366.4,779.7,366.2,780.5,366.2,781.6z"/>
		<path d="M374.1,781.5c0-0.9,0.2-1.6,0.5-2.3c0.3-0.7,0.8-1.2,1.4-1.6c0.6-0.4,1.3-0.6,2.1-0.6c1.2,0,2.1,0.4,2.9,1.2
			c0.7,0.8,1.1,1.9,1.1,3.3v0.1c0,0.8-0.2,1.6-0.5,2.3c-0.3,0.7-0.8,1.2-1.4,1.6c-0.6,0.4-1.3,0.6-2.1,0.6c-1.2,0-2.1-0.4-2.9-1.2
			c-0.7-0.8-1.1-1.9-1.1-3.3V781.5z M375.6,781.6c0,1,0.2,1.7,0.7,2.3c0.4,0.6,1,0.9,1.8,0.9c0.8,0,1.4-0.3,1.8-0.9
			c0.4-0.6,0.7-1.4,0.7-2.5c0-1-0.2-1.7-0.7-2.3c-0.5-0.6-1.1-0.9-1.8-0.9c-0.7,0-1.3,0.3-1.8,0.9
			C375.8,779.7,375.6,780.5,375.6,781.6z"/>
		<path d="M385.5,785.9h-1.5v-12.4h1.5V785.9z"/>
		<path d="M393,783.6c0-0.4-0.2-0.7-0.5-0.9c-0.3-0.2-0.8-0.4-1.6-0.6c-0.8-0.2-1.4-0.4-1.8-0.6c-0.4-0.2-0.8-0.5-1-0.8
			c-0.2-0.3-0.3-0.7-0.3-1.1c0-0.7,0.3-1.3,0.9-1.8c0.6-0.5,1.4-0.7,2.3-0.7c1,0,1.8,0.3,2.4,0.8c0.6,0.5,0.9,1.2,0.9,2h-1.5
			c0-0.4-0.2-0.8-0.5-1.1c-0.3-0.3-0.8-0.4-1.3-0.4c-0.5,0-1,0.1-1.3,0.4s-0.5,0.5-0.5,0.9c0,0.4,0.1,0.6,0.4,0.8s0.8,0.4,1.5,0.5
			c0.7,0.2,1.3,0.4,1.8,0.6c0.5,0.2,0.8,0.5,1,0.8c0.2,0.3,0.3,0.7,0.3,1.2c0,0.8-0.3,1.4-0.9,1.9c-0.6,0.5-1.4,0.7-2.4,0.7
			c-0.7,0-1.3-0.1-1.9-0.4c-0.5-0.2-1-0.6-1.3-1c-0.3-0.4-0.5-0.9-0.5-1.4h1.5c0,0.5,0.2,0.9,0.6,1.2c0.4,0.3,0.9,0.4,1.5,0.4
			c0.6,0,1-0.1,1.4-0.3C392.8,784.3,393,784,393,783.6z"/>
	</g>
	<g>
		<path d="M145.6,196.3c-1.3-0.4-2.3-0.9-2.9-1.4c-0.6-0.6-0.9-1.2-0.9-2.1c0-0.9,0.4-1.7,1.1-2.3c0.7-0.6,1.7-0.9,2.9-0.9
			c0.8,0,1.5,0.2,2.2,0.5c0.6,0.3,1.1,0.7,1.5,1.3c0.3,0.5,0.5,1.1,0.5,1.8h-1.6c0-0.7-0.2-1.3-0.7-1.7c-0.5-0.4-1.1-0.6-1.9-0.6
			c-0.8,0-1.4,0.2-1.8,0.5c-0.4,0.3-0.6,0.8-0.6,1.4c0,0.5,0.2,0.9,0.6,1.2c0.4,0.3,1.1,0.6,2.1,0.9c1,0.3,1.7,0.6,2.3,0.9
			c0.6,0.3,1,0.7,1.2,1.2c0.3,0.4,0.4,1,0.4,1.6c0,1-0.4,1.7-1.1,2.3c-0.7,0.6-1.7,0.9-3,0.9c-0.8,0-1.6-0.2-2.3-0.5
			c-0.7-0.3-1.2-0.7-1.6-1.3c-0.4-0.5-0.6-1.1-0.6-1.8h1.6c0,0.7,0.3,1.3,0.8,1.7c0.5,0.4,1.2,0.6,2.1,0.6c0.8,0,1.4-0.2,1.9-0.5
			c0.4-0.3,0.7-0.8,0.7-1.4s-0.2-1-0.6-1.3C147.4,196.9,146.6,196.6,145.6,196.3z"/>
		<path d="M153.7,190.7v2.1h1.6v1.2h-1.6v5.4c0,0.3,0.1,0.6,0.2,0.8s0.4,0.3,0.7,0.3c0.2,0,0.4,0,0.7-0.1v1.2
			c-0.4,0.1-0.8,0.2-1.1,0.2c-0.7,0-1.2-0.2-1.5-0.6c-0.3-0.4-0.5-1-0.5-1.7v-5.4h-1.6v-1.2h1.6v-2.1H153.7z"/>
		<path d="M162.4,200.6c-0.6,0.7-1.4,1-2.6,1c-0.9,0-1.6-0.3-2.1-0.8c-0.5-0.5-0.7-1.3-0.7-2.4v-5.7h1.5v5.6c0,1.3,0.5,2,1.6,2
			c1.1,0,1.9-0.4,2.3-1.3v-6.3h1.5v8.7h-1.4L162.4,200.6z"/>
		<path d="M165.8,197.1c0-1.3,0.3-2.4,1-3.2c0.6-0.8,1.5-1.2,2.5-1.2c1,0,1.8,0.3,2.4,1v-4.5h1.5v12.4h-1.4l-0.1-0.9
			c-0.6,0.7-1.4,1.1-2.5,1.1c-1,0-1.8-0.4-2.5-1.2c-0.6-0.8-1-1.9-1-3.2V197.1z M167.3,197.2c0,1,0.2,1.8,0.6,2.3s1,0.8,1.7,0.8
			c0.9,0,1.6-0.4,2.1-1.3v-4c-0.4-0.8-1.1-1.2-2.1-1.2c-0.7,0-1.3,0.3-1.7,0.8S167.3,196.1,167.3,197.2z"/>
		<path d="M175.5,190.5c0-0.2,0.1-0.4,0.2-0.6c0.1-0.2,0.4-0.3,0.7-0.3s0.5,0.1,0.7,0.3s0.2,0.4,0.2,0.6c0,0.2-0.1,0.4-0.2,0.6
			s-0.4,0.2-0.7,0.2s-0.5-0.1-0.7-0.2C175.5,190.9,175.5,190.7,175.5,190.5z M177.1,201.5h-1.5v-8.7h1.5V201.5z"/>
		<path d="M184.8,200.6c-0.6,0.7-1.4,1-2.6,1c-0.9,0-1.6-0.3-2.1-0.8c-0.5-0.5-0.7-1.3-0.7-2.4v-5.7h1.5v5.6c0,1.3,0.5,2,1.6,2
			c1.1,0,1.9-0.4,2.3-1.3v-6.3h1.5v8.7h-1.4L184.8,200.6z"/>
		<path d="M190,192.8l0,1c0.6-0.8,1.5-1.1,2.6-1.1c1.2,0,2,0.5,2.5,1.4c0.3-0.4,0.7-0.8,1.1-1c0.5-0.3,1-0.4,1.6-0.4
			c1.9,0,2.9,1,2.9,3v5.8h-1.5v-5.8c0-0.6-0.1-1.1-0.4-1.4c-0.3-0.3-0.8-0.5-1.4-0.5c-0.6,0-1,0.2-1.4,0.5c-0.4,0.3-0.6,0.8-0.6,1.3
			v5.8h-1.5v-5.7c0-1.3-0.6-1.9-1.9-1.9c-1,0-1.6,0.4-2,1.2v6.4h-1.5v-8.7H190z"/>
		<path d="M147.3,221.3c-0.1-0.2-0.2-0.5-0.2-0.9c-0.7,0.7-1.5,1.1-2.5,1.1c-0.9,0-1.6-0.2-2.1-0.7c-0.6-0.5-0.8-1.1-0.8-1.8
			c0-0.9,0.3-1.6,1-2.1c0.7-0.5,1.7-0.8,2.9-0.8h1.5v-0.7c0-0.5-0.2-0.9-0.5-1.2c-0.3-0.3-0.8-0.5-1.4-0.5c-0.5,0-1,0.1-1.3,0.4
			c-0.4,0.3-0.5,0.6-0.5,1h-1.5c0-0.4,0.2-0.9,0.5-1.3c0.3-0.4,0.7-0.7,1.3-1c0.5-0.2,1.1-0.4,1.7-0.4c1,0,1.8,0.3,2.4,0.8
			c0.6,0.5,0.9,1.2,0.9,2.1v4c0,0.8,0.1,1.4,0.3,1.9v0.1H147.3z M144.8,220.2c0.5,0,0.9-0.1,1.3-0.4s0.7-0.6,0.9-0.9v-1.8h-1.2
			c-1.8,0-2.7,0.5-2.7,1.6c0,0.5,0.2,0.8,0.5,1.1S144.3,220.2,144.8,220.2z"/>
		<path d="M152.3,212.6l0,1.1c0.7-0.8,1.5-1.3,2.6-1.3c1.8,0,2.8,1,2.8,3.1v5.8h-1.5v-5.8c0-0.6-0.1-1.1-0.4-1.4
			c-0.3-0.3-0.7-0.5-1.3-0.5c-0.5,0-0.9,0.1-1.3,0.4c-0.4,0.3-0.7,0.6-0.9,1v6.2h-1.5v-8.7H152.3z"/>
		<path d="M163.7,216.9c0-1.3,0.3-2.4,1-3.2c0.6-0.8,1.5-1.2,2.5-1.2c1,0,1.8,0.3,2.4,1v-4.5h1.5v12.4h-1.4l-0.1-0.9
			c-0.6,0.7-1.4,1.1-2.5,1.1c-1,0-1.8-0.4-2.5-1.2c-0.6-0.8-1-1.9-1-3.2V216.9z M165.2,217c0,1,0.2,1.8,0.6,2.3s1,0.8,1.7,0.8
			c0.9,0,1.6-0.4,2.1-1.3v-4c-0.4-0.8-1.1-1.2-2.1-1.2c-0.7,0-1.3,0.3-1.7,0.8S165.2,215.9,165.2,217z"/>
		<path d="M177,221.5c-1.2,0-2.1-0.4-2.9-1.2c-0.7-0.8-1.1-1.8-1.1-3.1v-0.3c0-0.9,0.2-1.6,0.5-2.3c0.3-0.7,0.8-1.2,1.4-1.6
			c0.6-0.4,1.2-0.6,1.9-0.6c1.1,0,2,0.4,2.6,1.1c0.6,0.7,0.9,1.8,0.9,3.2v0.6h-5.9c0,0.9,0.3,1.6,0.8,2.1c0.5,0.5,1.1,0.8,1.8,0.8
			c0.5,0,1-0.1,1.3-0.3c0.4-0.2,0.7-0.5,1-0.9l0.9,0.7C179.5,220.9,178.4,221.5,177,221.5z M176.8,213.6c-0.6,0-1.1,0.2-1.5,0.7
			c-0.4,0.4-0.7,1.1-0.8,1.8h4.4V216c0-0.8-0.2-1.3-0.6-1.8C177.9,213.9,177.4,213.6,176.8,213.6z"/>
		<path d="M186.3,213.9c-0.2,0-0.5-0.1-0.7-0.1c-1,0-1.6,0.4-2,1.2v6.2h-1.5v-8.7h1.5l0,1c0.5-0.8,1.2-1.2,2.1-1.2
			c0.3,0,0.5,0,0.7,0.1V213.9z"/>
		<path d="M143.3,232.4l0,1c0.6-0.8,1.5-1.1,2.6-1.1c1.2,0,2,0.5,2.5,1.4c0.3-0.4,0.7-0.8,1.1-1c0.5-0.3,1-0.4,1.6-0.4
			c1.9,0,2.9,1,2.9,3v5.8h-1.5v-5.8c0-0.6-0.1-1.1-0.4-1.4c-0.3-0.3-0.8-0.5-1.4-0.5c-0.6,0-1,0.2-1.4,0.5c-0.4,0.3-0.6,0.8-0.6,1.3
			v5.8h-1.5v-5.7c0-1.3-0.6-1.9-1.9-1.9c-1,0-1.6,0.4-2,1.2v6.4h-1.5v-8.7H143.3z"/>
		<path d="M161.7,240.2c-0.6,0.7-1.4,1-2.6,1c-0.9,0-1.6-0.3-2.1-0.8c-0.5-0.5-0.7-1.3-0.7-2.4v-5.7h1.5v5.6c0,1.3,0.5,2,1.6,2
			c1.1,0,1.9-0.4,2.3-1.3v-6.3h1.5v8.7h-1.4L161.7,240.2z"/>
		<path d="M167.5,230.3v2.1h1.6v1.2h-1.6v5.4c0,0.3,0.1,0.6,0.2,0.8s0.4,0.3,0.7,0.3c0.2,0,0.4,0,0.7-0.1v1.2
			c-0.4,0.1-0.8,0.2-1.1,0.2c-0.7,0-1.2-0.2-1.5-0.6c-0.3-0.4-0.5-1-0.5-1.7v-5.4h-1.6v-1.2h1.6v-2.1H167.5z"/>
		<path d="M172.3,233.4c0.7-0.8,1.5-1.2,2.6-1.2c1.8,0,2.8,1,2.8,3.1v5.8h-1.5v-5.8c0-0.6-0.1-1.1-0.4-1.4c-0.3-0.3-0.7-0.5-1.3-0.5
			c-0.5,0-0.9,0.1-1.3,0.4c-0.4,0.3-0.7,0.6-0.9,1v6.2h-1.5v-12.4h1.5V233.4z"/>
		<path d="M183.5,241.3c-1.2,0-2.1-0.4-2.9-1.2c-0.7-0.8-1.1-1.8-1.1-3.1v-0.3c0-0.9,0.2-1.6,0.5-2.3c0.3-0.7,0.8-1.2,1.4-1.6
			c0.6-0.4,1.2-0.6,1.9-0.6c1.1,0,2,0.4,2.6,1.1c0.6,0.7,0.9,1.8,0.9,3.2v0.6H181c0,0.9,0.3,1.6,0.8,2.1c0.5,0.5,1.1,0.8,1.8,0.8
			c0.5,0,1-0.1,1.3-0.3c0.4-0.2,0.7-0.5,1-0.9l0.9,0.7C186.1,240.7,185,241.3,183.5,241.3z M183.3,233.4c-0.6,0-1.1,0.2-1.5,0.7
			c-0.4,0.4-0.7,1.1-0.8,1.8h4.4v-0.1c0-0.8-0.2-1.3-0.6-1.8C184.5,233.7,184,233.4,183.3,233.4z"/>
		<path d="M193.7,238.8c0-0.4-0.2-0.7-0.5-0.9c-0.3-0.2-0.8-0.4-1.6-0.6c-0.8-0.2-1.4-0.4-1.8-0.6c-0.4-0.2-0.8-0.5-1-0.8
			c-0.2-0.3-0.3-0.7-0.3-1.1c0-0.7,0.3-1.3,0.9-1.8c0.6-0.5,1.4-0.7,2.3-0.7c1,0,1.8,0.3,2.4,0.8c0.6,0.5,0.9,1.2,0.9,2h-1.5
			c0-0.4-0.2-0.8-0.5-1.1c-0.3-0.3-0.8-0.4-1.3-0.4c-0.5,0-1,0.1-1.3,0.4s-0.5,0.5-0.5,0.9c0,0.4,0.1,0.6,0.4,0.8s0.8,0.4,1.5,0.5
			c0.7,0.2,1.3,0.4,1.8,0.6c0.5,0.2,0.8,0.5,1,0.8c0.2,0.3,0.3,0.7,0.3,1.2c0,0.8-0.3,1.4-0.9,1.9c-0.6,0.5-1.4,0.7-2.4,0.7
			c-0.7,0-1.3-0.1-1.9-0.4s-1-0.6-1.3-1c-0.3-0.4-0.5-0.9-0.5-1.4h1.5c0,0.5,0.2,0.9,0.6,1.2c0.4,0.3,0.9,0.4,1.5,0.4
			c0.6,0,1-0.1,1.4-0.3C193.6,239.5,193.7,239.2,193.7,238.8z"/>
		<path d="M197.2,230.1c0-0.2,0.1-0.4,0.2-0.6c0.1-0.2,0.4-0.3,0.7-0.3s0.5,0.1,0.7,0.3s0.2,0.4,0.2,0.6c0,0.2-0.1,0.4-0.2,0.6
			s-0.4,0.2-0.7,0.2s-0.5-0.1-0.7-0.2C197.2,230.5,197.2,230.3,197.2,230.1z M198.8,241.1h-1.5v-8.7h1.5V241.1z"/>
		<path d="M206.5,240.2c-0.6,0.7-1.4,1-2.6,1c-0.9,0-1.6-0.3-2.1-0.8c-0.5-0.5-0.7-1.3-0.7-2.4v-5.7h1.5v5.6c0,1.3,0.5,2,1.6,2
			c1.1,0,1.9-0.4,2.3-1.3v-6.3h1.5v8.7h-1.4L206.5,240.2z"/>
		<path d="M215.3,238.8c0-0.4-0.2-0.7-0.5-0.9c-0.3-0.2-0.8-0.4-1.6-0.6c-0.8-0.2-1.4-0.4-1.8-0.6c-0.4-0.2-0.8-0.5-1-0.8
			c-0.2-0.3-0.3-0.7-0.3-1.1c0-0.7,0.3-1.3,0.9-1.8c0.6-0.5,1.4-0.7,2.3-0.7c1,0,1.8,0.3,2.4,0.8c0.6,0.5,0.9,1.2,0.9,2h-1.5
			c0-0.4-0.2-0.8-0.5-1.1c-0.3-0.3-0.8-0.4-1.3-0.4c-0.5,0-1,0.1-1.3,0.4s-0.5,0.5-0.5,0.9c0,0.4,0.1,0.6,0.4,0.8s0.8,0.4,1.5,0.5
			c0.7,0.2,1.3,0.4,1.8,0.6c0.5,0.2,0.8,0.5,1,0.8c0.2,0.3,0.3,0.7,0.3,1.2c0,0.8-0.3,1.4-0.9,1.9c-0.6,0.5-1.4,0.7-2.4,0.7
			c-0.7,0-1.3-0.1-1.9-0.4s-1-0.6-1.3-1c-0.3-0.4-0.5-0.9-0.5-1.4h1.5c0,0.5,0.2,0.9,0.6,1.2c0.4,0.3,0.9,0.4,1.5,0.4
			c0.6,0,1-0.1,1.4-0.3C215.2,239.5,215.3,239.2,215.3,238.8z"/>
		<path d="M219.1,242.1h-1.3l4.9-12.7h1.3L219.1,242.1z"/>
		<path d="M147,258.6c0-0.4-0.2-0.7-0.5-0.9c-0.3-0.2-0.8-0.4-1.6-0.6c-0.8-0.2-1.4-0.4-1.8-0.6c-0.4-0.2-0.8-0.5-1-0.8
			c-0.2-0.3-0.3-0.7-0.3-1.1c0-0.7,0.3-1.3,0.9-1.8c0.6-0.5,1.4-0.7,2.3-0.7c1,0,1.8,0.3,2.4,0.8c0.6,0.5,0.9,1.2,0.9,2h-1.5
			c0-0.4-0.2-0.8-0.5-1.1c-0.3-0.3-0.8-0.4-1.3-0.4c-0.5,0-1,0.1-1.3,0.4s-0.5,0.5-0.5,0.9c0,0.4,0.1,0.6,0.4,0.8s0.8,0.4,1.5,0.5
			c0.7,0.2,1.3,0.4,1.8,0.6c0.5,0.2,0.8,0.5,1,0.8c0.2,0.3,0.3,0.7,0.3,1.2c0,0.8-0.3,1.4-0.9,1.9c-0.6,0.5-1.4,0.7-2.4,0.7
			c-0.7,0-1.3-0.1-1.9-0.4s-1-0.6-1.3-1c-0.3-0.4-0.5-0.9-0.5-1.4h1.5c0,0.5,0.2,0.9,0.6,1.2c0.4,0.3,0.9,0.4,1.5,0.4
			c0.6,0,1-0.1,1.4-0.3C146.8,259.3,147,259,147,258.6z"/>
		<path d="M152.4,250.1v2.1h1.6v1.2h-1.6v5.4c0,0.3,0.1,0.6,0.2,0.8s0.4,0.3,0.7,0.3c0.2,0,0.4,0,0.7-0.1v1.2
			c-0.4,0.1-0.8,0.2-1.1,0.2c-0.7,0-1.2-0.2-1.5-0.6c-0.3-0.4-0.5-1-0.5-1.7v-5.4h-1.6v-1.2h1.6v-2.1H152.4z"/>
		<path d="M161.2,260c-0.6,0.7-1.4,1-2.6,1c-0.9,0-1.6-0.3-2.1-0.8c-0.5-0.5-0.7-1.3-0.7-2.4v-5.7h1.5v5.6c0,1.3,0.5,2,1.6,2
			c1.1,0,1.9-0.4,2.3-1.3v-6.3h1.5v8.7h-1.4L161.2,260z"/>
		<path d="M164.5,256.5c0-1.3,0.3-2.4,1-3.2c0.6-0.8,1.5-1.2,2.5-1.2c1,0,1.8,0.3,2.4,1v-4.5h1.5v12.4h-1.4l-0.1-0.9
			c-0.6,0.7-1.4,1.1-2.5,1.1c-1,0-1.8-0.4-2.5-1.2c-0.6-0.8-1-1.9-1-3.2V256.5z M166,256.6c0,1,0.2,1.8,0.6,2.3s1,0.8,1.7,0.8
			c0.9,0,1.6-0.4,2.1-1.3v-4c-0.4-0.8-1.1-1.2-2.1-1.2c-0.7,0-1.3,0.3-1.7,0.8S166,255.5,166,256.6z"/>
		<path d="M177,258.7l2-6.5h1.6l-3.5,10.1c-0.5,1.5-1.4,2.2-2.6,2.2l-0.3,0l-0.6-0.1v-1.2l0.4,0c0.5,0,0.9-0.1,1.2-0.3
			c0.3-0.2,0.5-0.6,0.7-1.1l0.3-0.9l-3.1-8.6h1.6L177,258.7z"/>
		<path d="M147.3,280.7c-0.1-0.2-0.2-0.5-0.2-0.9c-0.7,0.7-1.5,1.1-2.5,1.1c-0.9,0-1.6-0.2-2.1-0.7c-0.6-0.5-0.8-1.1-0.8-1.8
			c0-0.9,0.3-1.6,1-2.1c0.7-0.5,1.7-0.8,2.9-0.8h1.5v-0.7c0-0.5-0.2-0.9-0.5-1.2c-0.3-0.3-0.8-0.5-1.4-0.5c-0.5,0-1,0.1-1.3,0.4
			c-0.4,0.3-0.5,0.6-0.5,1h-1.5c0-0.4,0.2-0.9,0.5-1.3c0.3-0.4,0.7-0.7,1.3-1c0.5-0.2,1.1-0.4,1.7-0.4c1,0,1.8,0.3,2.4,0.8
			c0.6,0.5,0.9,1.2,0.9,2.1v4c0,0.8,0.1,1.4,0.3,1.9v0.1H147.3z M144.8,279.6c0.5,0,0.9-0.1,1.3-0.4s0.7-0.6,0.9-0.9v-1.8h-1.2
			c-1.8,0-2.7,0.5-2.7,1.6c0,0.5,0.2,0.8,0.5,1.1S144.3,279.6,144.8,279.6z"/>
		<path d="M152.9,269.9v2.1h1.6v1.2h-1.6v5.4c0,0.3,0.1,0.6,0.2,0.8s0.4,0.3,0.7,0.3c0.2,0,0.4,0,0.7-0.1v1.2
			c-0.4,0.1-0.8,0.2-1.1,0.2c-0.7,0-1.2-0.2-1.5-0.6c-0.3-0.4-0.5-1-0.5-1.7v-5.4h-1.6V272h1.6v-2.1H152.9z"/>
		<path d="M143.3,291.8l0,1c0.6-0.8,1.5-1.1,2.6-1.1c1.2,0,2,0.5,2.5,1.4c0.3-0.4,0.7-0.8,1.1-1c0.5-0.3,1-0.4,1.6-0.4
			c1.9,0,2.9,1,2.9,3v5.8h-1.5v-5.8c0-0.6-0.1-1.1-0.4-1.4c-0.3-0.3-0.8-0.5-1.4-0.5c-0.6,0-1,0.2-1.4,0.5c-0.4,0.3-0.6,0.8-0.6,1.3
			v5.8h-1.5v-5.7c0-1.3-0.6-1.9-1.9-1.9c-1,0-1.6,0.4-2,1.2v6.4h-1.5v-8.7H143.3z"/>
		<path d="M161.7,299.6c-0.6,0.7-1.4,1-2.6,1c-0.9,0-1.6-0.3-2.1-0.8c-0.5-0.5-0.7-1.3-0.7-2.4v-5.7h1.5v5.6c0,1.3,0.5,2,1.6,2
			c1.1,0,1.9-0.4,2.3-1.3v-6.3h1.5v8.7h-1.4L161.7,299.6z"/>
		<path d="M167.5,289.7v2.1h1.6v1.2h-1.6v5.4c0,0.3,0.1,0.6,0.2,0.8s0.4,0.3,0.7,0.3c0.2,0,0.4,0,0.7-0.1v1.2
			c-0.4,0.1-0.8,0.2-1.1,0.2c-0.7,0-1.2-0.2-1.5-0.6c-0.3-0.4-0.5-1-0.5-1.7v-5.4h-1.6v-1.2h1.6v-2.1H167.5z"/>
		<path d="M172.3,292.8c0.7-0.8,1.5-1.2,2.6-1.2c1.8,0,2.8,1,2.8,3.1v5.8h-1.5v-5.8c0-0.6-0.1-1.1-0.4-1.4c-0.3-0.3-0.7-0.5-1.3-0.5
			c-0.5,0-0.9,0.1-1.3,0.4c-0.4,0.3-0.7,0.6-0.9,1v6.2h-1.5v-12.4h1.5V292.8z"/>
		<path d="M183.5,300.7c-1.2,0-2.1-0.4-2.9-1.2c-0.7-0.8-1.1-1.8-1.1-3.1v-0.3c0-0.9,0.2-1.6,0.5-2.3c0.3-0.7,0.8-1.2,1.4-1.6
			c0.6-0.4,1.2-0.6,1.9-0.6c1.1,0,2,0.4,2.6,1.1c0.6,0.7,0.9,1.8,0.9,3.2v0.6H181c0,0.9,0.3,1.6,0.8,2.1c0.5,0.5,1.1,0.8,1.8,0.8
			c0.5,0,1-0.1,1.3-0.3c0.4-0.2,0.7-0.5,1-0.9l0.9,0.7C186.1,300.1,185,300.7,183.5,300.7z M183.3,292.8c-0.6,0-1.1,0.2-1.5,0.7
			c-0.4,0.4-0.7,1.1-0.8,1.8h4.4v-0.1c0-0.8-0.2-1.3-0.6-1.8C184.5,293.1,184,292.8,183.3,292.8z"/>
		<path d="M193.7,298.2c0-0.4-0.2-0.7-0.5-0.9c-0.3-0.2-0.8-0.4-1.6-0.6c-0.8-0.2-1.4-0.4-1.8-0.6c-0.4-0.2-0.8-0.5-1-0.8
			c-0.2-0.3-0.3-0.7-0.3-1.1c0-0.7,0.3-1.3,0.9-1.8c0.6-0.5,1.4-0.7,2.3-0.7c1,0,1.8,0.3,2.4,0.8c0.6,0.5,0.9,1.2,0.9,2h-1.5
			c0-0.4-0.2-0.8-0.5-1.1c-0.3-0.3-0.8-0.4-1.3-0.4c-0.5,0-1,0.1-1.3,0.4s-0.5,0.5-0.5,0.9c0,0.4,0.1,0.6,0.4,0.8s0.8,0.4,1.5,0.5
			c0.7,0.2,1.3,0.4,1.8,0.6c0.5,0.2,0.8,0.5,1,0.8c0.2,0.3,0.3,0.7,0.3,1.2c0,0.8-0.3,1.4-0.9,1.9c-0.6,0.5-1.4,0.7-2.4,0.7
			c-0.7,0-1.3-0.1-1.9-0.4s-1-0.6-1.3-1c-0.3-0.4-0.5-0.9-0.5-1.4h1.5c0,0.5,0.2,0.9,0.6,1.2c0.4,0.3,0.9,0.4,1.5,0.4
			c0.6,0,1-0.1,1.4-0.3C193.6,298.9,193.7,298.6,193.7,298.2z"/>
		<path d="M197.2,289.5c0-0.2,0.1-0.4,0.2-0.6c0.1-0.2,0.4-0.3,0.7-0.3s0.5,0.1,0.7,0.3s0.2,0.4,0.2,0.6c0,0.2-0.1,0.4-0.2,0.6
			s-0.4,0.2-0.7,0.2s-0.5-0.1-0.7-0.2C197.2,289.9,197.2,289.7,197.2,289.5z M198.8,300.5h-1.5v-8.7h1.5V300.5z"/>
		<path d="M206.5,299.6c-0.6,0.7-1.4,1-2.6,1c-0.9,0-1.6-0.3-2.1-0.8c-0.5-0.5-0.7-1.3-0.7-2.4v-5.7h1.5v5.6c0,1.3,0.5,2,1.6,2
			c1.1,0,1.9-0.4,2.3-1.3v-6.3h1.5v8.7h-1.4L206.5,299.6z"/>
		<path d="M215.3,298.2c0-0.4-0.2-0.7-0.5-0.9c-0.3-0.2-0.8-0.4-1.6-0.6c-0.8-0.2-1.4-0.4-1.8-0.6c-0.4-0.2-0.8-0.5-1-0.8
			c-0.2-0.3-0.3-0.7-0.3-1.1c0-0.7,0.3-1.3,0.9-1.8c0.6-0.5,1.4-0.7,2.3-0.7c1,0,1.8,0.3,2.4,0.8c0.6,0.5,0.9,1.2,0.9,2h-1.5
			c0-0.4-0.2-0.8-0.5-1.1c-0.3-0.3-0.8-0.4-1.3-0.4c-0.5,0-1,0.1-1.3,0.4s-0.5,0.5-0.5,0.9c0,0.4,0.1,0.6,0.4,0.8s0.8,0.4,1.5,0.5
			c0.7,0.2,1.3,0.4,1.8,0.6c0.5,0.2,0.8,0.5,1,0.8c0.2,0.3,0.3,0.7,0.3,1.2c0,0.8-0.3,1.4-0.9,1.9c-0.6,0.5-1.4,0.7-2.4,0.7
			c-0.7,0-1.3-0.1-1.9-0.4s-1-0.6-1.3-1c-0.3-0.4-0.5-0.9-0.5-1.4h1.5c0,0.5,0.2,0.9,0.6,1.2c0.4,0.3,0.9,0.4,1.5,0.4
			c0.6,0,1-0.1,1.4-0.3C215.2,298.9,215.3,298.6,215.3,298.2z"/>
	</g>
	<g>
		<path d="M543.3,905.3l0,1.1c0.7-0.8,1.5-1.3,2.6-1.3c1.8,0,2.8,1,2.8,3.1v5.8h-1.5v-5.8c0-0.6-0.1-1.1-0.4-1.4s-0.7-0.5-1.3-0.5
			c-0.5,0-0.9,0.1-1.3,0.4s-0.7,0.6-0.9,1v6.2h-1.5v-8.7H543.3z"/>
		<path d="M556.4,914c-0.1-0.2-0.2-0.5-0.2-0.9c-0.7,0.7-1.5,1.1-2.5,1.1c-0.9,0-1.6-0.2-2.1-0.7c-0.6-0.5-0.8-1.1-0.8-1.8
			c0-0.9,0.3-1.6,1-2.1c0.7-0.5,1.7-0.8,2.9-0.8h1.5V908c0-0.5-0.2-0.9-0.5-1.2s-0.8-0.5-1.4-0.5c-0.5,0-1,0.1-1.3,0.4
			c-0.4,0.3-0.5,0.6-0.5,1h-1.5c0-0.4,0.2-0.9,0.5-1.3c0.3-0.4,0.7-0.7,1.3-1s1.1-0.4,1.7-0.4c1,0,1.8,0.3,2.4,0.8
			c0.6,0.5,0.9,1.2,0.9,2.1v4c0,0.8,0.1,1.4,0.3,1.9v0.1H556.4z M553.9,912.9c0.5,0,0.9-0.1,1.3-0.4c0.4-0.2,0.7-0.6,0.9-0.9v-1.8
			H555c-1.8,0-2.7,0.5-2.7,1.6c0,0.5,0.2,0.8,0.5,1.1C553,912.7,553.4,912.9,553.9,912.9z"/>
		<path d="M561.5,905.3v9.7c0,1.7-0.8,2.5-2.3,2.5c-0.3,0-0.6,0-0.9-0.1v-1.2c0.2,0,0.4,0.1,0.7,0.1c0.3,0,0.6-0.1,0.8-0.3
			c0.2-0.2,0.3-0.5,0.3-0.9v-9.8H561.5z M559.9,903c0-0.2,0.1-0.4,0.2-0.6c0.1-0.2,0.4-0.3,0.6-0.3c0.3,0,0.5,0.1,0.7,0.3
			c0.2,0.2,0.2,0.4,0.2,0.6c0,0.2-0.1,0.4-0.2,0.6c-0.2,0.2-0.4,0.2-0.7,0.2s-0.5-0.1-0.7-0.2C559.9,903.4,559.9,903.2,559.9,903z"
			/>
		<path d="M569.3,914c-0.1-0.2-0.2-0.5-0.2-0.9c-0.7,0.7-1.5,1.1-2.5,1.1c-0.9,0-1.6-0.2-2.1-0.7c-0.6-0.5-0.8-1.1-0.8-1.8
			c0-0.9,0.3-1.6,1-2.1c0.7-0.5,1.7-0.8,2.9-0.8h1.5V908c0-0.5-0.2-0.9-0.5-1.2s-0.8-0.5-1.4-0.5c-0.5,0-1,0.1-1.3,0.4
			c-0.4,0.3-0.5,0.6-0.5,1h-1.5c0-0.4,0.2-0.9,0.5-1.3c0.3-0.4,0.7-0.7,1.3-1s1.1-0.4,1.7-0.4c1,0,1.8,0.3,2.4,0.8
			c0.6,0.5,0.9,1.2,0.9,2.1v4c0,0.8,0.1,1.4,0.3,1.9v0.1H569.3z M566.8,912.9c0.5,0,0.9-0.1,1.3-0.4c0.4-0.2,0.7-0.6,0.9-0.9v-1.8
			h-1.2c-1.8,0-2.7,0.5-2.7,1.6c0,0.5,0.2,0.8,0.5,1.1C565.9,912.7,566.3,912.9,566.8,912.9z"/>
		<path d="M543.7,932.5h5.6v1.3h-7.1v-11.7h1.6V932.5z"/>
		<path d="M554.4,934c-1.2,0-2.1-0.4-2.9-1.2s-1.1-1.8-1.1-3.1v-0.3c0-0.9,0.2-1.6,0.5-2.3c0.3-0.7,0.8-1.2,1.4-1.6
			c0.6-0.4,1.2-0.6,1.9-0.6c1.1,0,2,0.4,2.6,1.1c0.6,0.7,0.9,1.8,0.9,3.2v0.6h-5.9c0,0.9,0.3,1.6,0.8,2.1c0.5,0.5,1.1,0.8,1.8,0.8
			c0.5,0,1-0.1,1.3-0.3s0.7-0.5,1-0.9l0.9,0.7C556.9,933.4,555.8,934,554.4,934z M554.2,926.1c-0.6,0-1.1,0.2-1.5,0.7
			s-0.7,1.1-0.8,1.8h4.4v-0.1c0-0.8-0.2-1.3-0.6-1.8C555.3,926.4,554.8,926.1,554.2,926.1z"/>
		<path d="M566.9,929.5c0,1.3-0.3,2.4-0.9,3.2c-0.6,0.8-1.4,1.2-2.5,1.2c-1.1,0-2-0.4-2.6-1.2l-0.1,1h-1.4v-12.4h1.5v4.6
			c0.6-0.7,1.4-1.1,2.5-1.1c1.1,0,1.9,0.4,2.5,1.2c0.6,0.8,0.9,1.9,0.9,3.3V929.5z M565.4,929.4c0-1-0.2-1.8-0.6-2.4
			c-0.4-0.6-1-0.8-1.7-0.8c-1,0-1.7,0.5-2.1,1.4v3.8c0.5,0.9,1.2,1.4,2.1,1.4c0.7,0,1.3-0.3,1.7-0.8
			C565.2,931.3,565.4,930.5,565.4,929.4z"/>
		<path d="M572.4,934c-1.2,0-2.1-0.4-2.9-1.2s-1.1-1.8-1.1-3.1v-0.3c0-0.9,0.2-1.6,0.5-2.3c0.3-0.7,0.8-1.2,1.4-1.6
			c0.6-0.4,1.2-0.6,1.9-0.6c1.1,0,2,0.4,2.6,1.1c0.6,0.7,0.9,1.8,0.9,3.2v0.6h-5.9c0,0.9,0.3,1.6,0.8,2.1c0.5,0.5,1.1,0.8,1.8,0.8
			c0.5,0,1-0.1,1.3-0.3s0.7-0.5,1-0.9l0.9,0.7C574.9,933.4,573.8,934,572.4,934z M572.2,926.1c-0.6,0-1.1,0.2-1.5,0.7
			s-0.7,1.1-0.8,1.8h4.4v-0.1c0-0.8-0.2-1.3-0.6-1.8C573.3,926.4,572.8,926.1,572.2,926.1z"/>
		<path d="M578.9,925.1l0,1.1c0.7-0.8,1.5-1.3,2.6-1.3c1.8,0,2.8,1,2.8,3.1v5.8h-1.5V928c0-0.6-0.1-1.1-0.4-1.4s-0.7-0.5-1.3-0.5
			c-0.5,0-0.9,0.1-1.3,0.4s-0.7,0.6-0.9,1v6.2h-1.5v-8.7H578.9z"/>
		<path d="M543.4,945.9c0.7-0.8,1.5-1.2,2.6-1.2c1.8,0,2.8,1,2.8,3.1v5.8h-1.5v-5.8c0-0.6-0.1-1.1-0.4-1.4s-0.7-0.5-1.3-0.5
			c-0.5,0-0.9,0.1-1.3,0.4s-0.7,0.6-0.9,1v6.2h-1.5v-12.4h1.5V945.9z"/>
		<path d="M556.3,953.6c-0.1-0.2-0.2-0.5-0.2-0.9c-0.7,0.7-1.5,1.1-2.5,1.1c-0.9,0-1.6-0.2-2.1-0.7c-0.6-0.5-0.8-1.1-0.8-1.8
			c0-0.9,0.3-1.6,1-2.1c0.7-0.5,1.7-0.8,2.9-0.8h1.5v-0.7c0-0.5-0.2-0.9-0.5-1.2s-0.8-0.5-1.4-0.5c-0.5,0-1,0.1-1.3,0.4
			c-0.4,0.3-0.5,0.6-0.5,1h-1.5c0-0.4,0.2-0.9,0.5-1.3c0.3-0.4,0.7-0.7,1.3-1s1.1-0.4,1.7-0.4c1,0,1.8,0.3,2.4,0.8
			c0.6,0.5,0.9,1.2,0.9,2.1v4c0,0.8,0.1,1.4,0.3,1.9v0.1H556.3z M553.9,952.5c0.5,0,0.9-0.1,1.3-0.4c0.4-0.2,0.7-0.6,0.9-0.9v-1.8
			h-1.2c-1.8,0-2.7,0.5-2.7,1.6c0,0.5,0.2,0.8,0.5,1.1C553,952.3,553.4,952.5,553.9,952.5z"/>
		<path d="M561.6,953.6h-1.5v-12.4h1.5V953.6z"/>
		<path d="M566,942.8v2.1h1.6v1.2H566v5.4c0,0.3,0.1,0.6,0.2,0.8c0.1,0.2,0.4,0.3,0.7,0.3c0.2,0,0.4,0,0.7-0.1v1.2
			c-0.4,0.1-0.8,0.2-1.1,0.2c-0.7,0-1.2-0.2-1.5-0.6c-0.3-0.4-0.5-1-0.5-1.7V946h-1.6v-1.2h1.6v-2.1H566z"/>
		<path d="M569.6,954.6h-1.3l4.9-12.7h1.3L569.6,954.6z"/>
		<path d="M549.6,971.3l1.7-6.7h1.5l-2.5,8.7H549l-2.1-6.6l-2.1,6.6h-1.2l-2.5-8.7h1.5l1.7,6.5l2-6.5h1.2L549.6,971.3z"/>
		<path d="M557.9,973.6c-1.2,0-2.1-0.4-2.9-1.2s-1.1-1.8-1.1-3.1V969c0-0.9,0.2-1.6,0.5-2.3c0.3-0.7,0.8-1.2,1.4-1.6
			c0.6-0.4,1.2-0.6,1.9-0.6c1.1,0,2,0.4,2.6,1.1c0.6,0.7,0.9,1.8,0.9,3.2v0.6h-5.9c0,0.9,0.3,1.6,0.8,2.1c0.5,0.5,1.1,0.8,1.8,0.8
			c0.5,0,1-0.1,1.3-0.3s0.7-0.5,1-0.9l0.9,0.7C560.5,973,559.4,973.6,557.9,973.6z M557.7,965.7c-0.6,0-1.1,0.2-1.5,0.7
			s-0.7,1.1-0.8,1.8h4.4v-0.1c0-0.8-0.2-1.3-0.6-1.8C558.8,966,558.3,965.7,557.7,965.7z"/>
		<path d="M564.6,973.4h-1.5V961h1.5V973.4z"/>
		<path d="M568.6,973.4h-1.5V961h1.5V973.4z"/>
		<path d="M543.5,993.2H542v-12.4h1.5V993.2z"/>
		<path d="M545.9,982.2c0-0.2,0.1-0.4,0.2-0.6c0.1-0.2,0.4-0.3,0.7-0.3c0.3,0,0.5,0.1,0.7,0.3c0.2,0.2,0.2,0.4,0.2,0.6
			c0,0.2-0.1,0.4-0.2,0.6c-0.2,0.2-0.4,0.2-0.7,0.2c-0.3,0-0.5-0.1-0.7-0.2C546,982.6,545.9,982.4,545.9,982.2z M547.5,993.2H546
			v-8.7h1.5V993.2z"/>
		<path d="M552.8,991.2l2.2-6.7h1.5l-3.1,8.7h-1.1l-3.2-8.7h1.5L552.8,991.2z"/>
		<path d="M557.9,982.2c0-0.2,0.1-0.4,0.2-0.6c0.1-0.2,0.4-0.3,0.7-0.3c0.3,0,0.5,0.1,0.7,0.3c0.2,0.2,0.2,0.4,0.2,0.6
			c0,0.2-0.1,0.4-0.2,0.6c-0.2,0.2-0.4,0.2-0.7,0.2c-0.3,0-0.5-0.1-0.7-0.2C558,982.6,557.9,982.4,557.9,982.2z M559.5,993.2H558
			v-8.7h1.5V993.2z"/>
		<path d="M563.3,984.5l0,1.1c0.7-0.8,1.5-1.3,2.6-1.3c1.8,0,2.8,1,2.8,3.1v5.8h-1.5v-5.8c0-0.6-0.1-1.1-0.4-1.4s-0.7-0.5-1.3-0.5
			c-0.5,0-0.9,0.1-1.3,0.4s-0.7,0.6-0.9,1v6.2h-1.5v-8.7H563.3z"/>
		<path d="M570.6,988.8c0-1.4,0.3-2.4,0.9-3.2c0.6-0.8,1.5-1.2,2.5-1.2c1.1,0,1.9,0.4,2.5,1.1l0.1-1h1.4v8.5c0,1.1-0.3,2-1,2.7
			c-0.7,0.7-1.6,1-2.7,1c-0.6,0-1.2-0.1-1.8-0.4s-1.1-0.6-1.4-1.1l0.8-0.9c0.6,0.8,1.4,1.2,2.3,1.2c0.7,0,1.3-0.2,1.7-0.6
			s0.6-1,0.6-1.7v-0.7c-0.6,0.7-1.4,1-2.4,1c-1,0-1.8-0.4-2.5-1.2C570.9,991.3,570.6,990.2,570.6,988.8z M572.1,988.9
			c0,1,0.2,1.8,0.6,2.3c0.4,0.6,1,0.8,1.7,0.8c0.9,0,1.6-0.4,2.1-1.3v-4c-0.5-0.8-1.1-1.2-2.1-1.2c-0.7,0-1.3,0.3-1.7,0.8
			C572.3,987,572.1,987.8,572.1,988.9z"/>
	</g>
	<g>
		<path d="M153.7,179h-9.9l0.3-2.2l5.3-5c1.1-1,1.8-1.8,2.2-2.5s0.5-1.3,0.4-1.9c-0.1-0.8-0.6-1.3-1.5-1.3c-0.7,0-1.2,0.2-1.6,0.7
			c-0.4,0.5-0.7,1.1-0.8,1.9l-2.9,0c0.1-0.9,0.3-1.8,0.8-2.5s1.2-1.3,2-1.8c0.8-0.4,1.7-0.6,2.7-0.6c1.4,0,2.5,0.4,3.2,1.2
			s1.1,1.8,1,3c-0.1,1.4-0.9,2.9-2.5,4.4l-1.5,1.4l-3.1,2.7l6.2,0L153.7,179z"/>
		<path d="M160.5,179.2c-1.3,0-2.3-0.5-3-1.3s-1.1-2-1.1-3.5c0-0.5,0-1,0.1-1.5l0.4-2.8c0.3-2,1-3.6,2-4.6s2.2-1.6,3.8-1.5
			c1.3,0,2.3,0.5,3,1.3c0.7,0.8,1.1,2,1.1,3.5c0,0.5,0,1-0.1,1.5l-0.4,2.8c-0.3,2.1-1,3.6-2,4.7
			C163.3,178.7,162.1,179.2,160.5,179.2z M164,168.4c0-1.4-0.5-2.1-1.4-2.1c-1.4-0.1-2.3,1-2.6,3.2l-0.5,3.5
			c-0.1,0.7-0.2,1.3-0.2,1.8c0,1.4,0.4,2.1,1.4,2.1c1.4,0.1,2.3-1,2.6-3.2l0.5-3.6C163.9,169.3,164,168.8,164,168.4z"/>
		<path d="M174.2,179h-2.9l2-11.4l-3.6,1.1l0.5-2.5l6.2-2.2l0.4,0L174.2,179z"/>
		<path d="M180.7,171.6l2-7.5h8.2l-0.4,2.5h-5.7l-1,3.2c0.6-0.4,1.3-0.6,2.2-0.6c1.3,0,2.3,0.5,3,1.4c0.7,0.9,1,2.1,0.9,3.6
			c-0.1,1-0.4,1.9-0.9,2.7s-1.1,1.4-2,1.8s-1.7,0.6-2.7,0.6c-0.8,0-1.6-0.2-2.3-0.6c-0.7-0.4-1.2-0.9-1.6-1.6
			c-0.4-0.7-0.6-1.4-0.6-2.2h2.8c0,0.6,0.2,1.1,0.5,1.4s0.7,0.5,1.3,0.5c0.7,0,1.2-0.2,1.7-0.7c0.4-0.5,0.7-1.2,0.8-2.1
			c0.1-0.8,0-1.4-0.4-1.8c-0.3-0.5-0.8-0.7-1.5-0.7c-0.7,0-1.4,0.3-2,0.8L180.7,171.6z"/>
	</g>
	<g>
		<path d="M550.7,891.5h-2.9l2-11.4l-3.6,1.1l0.5-2.5l6.2-2.2l0.4,0L550.7,891.5z"/>
		<path d="M563.4,885.5c-0.8,0.8-1.7,1.2-2.7,1.1c-0.8,0-1.5-0.2-2.1-0.7c-0.6-0.4-1-1-1.3-1.8c-0.3-0.8-0.4-1.6-0.3-2.5
			c0.1-1.1,0.4-2.1,1-3s1.4-1.5,2.3-2c0.6-0.3,1.3-0.4,2.1-0.4c1.2,0,2.2,0.5,2.9,1.3s1.1,2,1.2,3.4c0,0.5,0,1,0,1.4l-0.1,0.9
			c-0.3,2.6-1.3,4.6-2.8,6.1c-1.5,1.5-3.5,2.2-5.8,2.2h-0.2l0.2-2.5h0.2c1.3,0,2.5-0.3,3.3-0.9C562.3,887.7,562.9,886.8,563.4,885.5
			z M561.5,884.4c0.8,0,1.5-0.4,2.2-1.3l0.2-1.2c0-0.3,0.1-0.6,0.1-1c0-0.7-0.2-1.2-0.4-1.6c-0.3-0.4-0.6-0.6-1.1-0.6
			c-0.5,0-0.9,0.2-1.3,0.5c-0.4,0.4-0.7,0.8-0.9,1.5c-0.2,0.6-0.3,1.2-0.2,1.9c0,0.5,0.2,1,0.5,1.3
			C560.7,884.2,561,884.4,561.5,884.4z"/>
		<path d="M575.2,885.5c-0.8,0.8-1.7,1.2-2.7,1.1c-0.8,0-1.5-0.2-2.1-0.7c-0.6-0.4-1-1-1.3-1.8c-0.3-0.8-0.4-1.6-0.3-2.5
			c0.1-1.1,0.4-2.1,1-3s1.4-1.5,2.3-2c0.6-0.3,1.3-0.4,2.1-0.4c1.2,0,2.2,0.5,2.9,1.3s1.1,2,1.2,3.4c0,0.5,0,1,0,1.4l-0.1,0.9
			c-0.3,2.6-1.3,4.6-2.8,6.1c-1.5,1.5-3.5,2.2-5.8,2.2h-0.2l0.2-2.5h0.2c1.3,0,2.5-0.3,3.3-0.9C574,887.7,574.7,886.8,575.2,885.5z
			 M573.3,884.4c0.8,0,1.5-0.4,2.2-1.3l0.2-1.2c0-0.3,0.1-0.6,0.1-1c0-0.7-0.2-1.2-0.4-1.6c-0.3-0.4-0.6-0.6-1.1-0.6
			c-0.5,0-0.9,0.2-1.3,0.5c-0.4,0.4-0.7,0.8-0.9,1.5c-0.2,0.6-0.3,1.2-0.2,1.9c0,0.5,0.2,1,0.5,1.3
			C572.4,884.2,572.8,884.4,573.3,884.4z"/>
		<path d="M589.3,876.4l-0.2,2.5l-0.6,0c-2.3,0.1-4,1.4-5.1,3.9c0.9-0.8,1.9-1.2,3-1.2c0.8,0,1.5,0.2,2,0.7c0.6,0.4,1,1,1.2,1.8
			c0.3,0.8,0.4,1.6,0.3,2.5c-0.1,1-0.4,1.9-0.9,2.7c-0.5,0.8-1.2,1.4-2,1.9c-0.8,0.4-1.7,0.7-2.6,0.6c-1,0-1.8-0.3-2.5-0.8
			c-0.7-0.5-1.2-1.2-1.5-2.1s-0.4-1.9-0.3-3l0.1-0.9c0.3-2.6,1.3-4.6,2.8-6.1c1.6-1.5,3.5-2.3,5.8-2.3H589.3z M585.4,883.9
			c-0.5,0-0.9,0.1-1.3,0.4c-0.4,0.3-0.7,0.6-1,1l-0.1,0.9c0,0.3,0,0.6,0,1c0,0.6,0.2,1.2,0.4,1.6c0.3,0.4,0.7,0.6,1.2,0.6
			c0.5,0,1-0.1,1.4-0.5s0.7-0.8,0.9-1.4s0.3-1.2,0.2-1.8c-0.1-0.5-0.2-1-0.5-1.3C586.3,884,585.9,883.9,585.4,883.9z"/>
	</g>
	<g>
		<g>
			<line class="st1" x1="540.8" y1="71" x2="540.8" y2="68.5"/>
			<line class="st2" x1="540.8" y1="63.5" x2="540.8" y2="56"/>
			<line class="st1" x1="540.8" y1="53.5" x2="540.8" y2="51"/>
		</g>
	</g>
	<g>
		<g>
			<line class="st1" x1="140.8" y1="71" x2="140.8" y2="68.5"/>
			<line class="st2" x1="140.8" y1="63.5" x2="140.8" y2="56"/>
			<line class="st1" x1="140.8" y1="53.5" x2="140.8" y2="51"/>
		</g>
	</g>
	<polyline class="st3" points="1920,71 581.5,69.3 541.5,69.3 141.5,69.3 0,69.3 	"/>
</g>
</svg>
